<svg width="30" height="36" viewBox="0 0 30 36" fill="none" xmlns="http://www.w3.org/2000/svg">
<path d="M20 0.666672H10V4.00001H20V0.666672ZM13.3333 22.3333H16.6667V12.3333H13.3333V22.3333ZM26.7167 11.3167L29.0833 8.95C28.3667 8.1 27.5833 7.3 26.7333 6.6L24.3667 8.96667C21.7833 6.9 18.5333 5.66667 15 5.66667C6.71667 5.66667 0 12.3833 0 20.6667C0 28.95 6.7 35.6667 15 35.6667C23.3 35.6667 30 28.95 30 20.6667C30 17.1333 28.7667 13.8833 26.7167 11.3167ZM15 32.3333C8.55 32.3333 3.33333 27.1167 3.33333 20.6667C3.33333 14.2167 8.55 9 15 9C21.45 9 26.6667 14.2167 26.6667 20.6667C26.6667 27.1167 21.45 32.3333 15 32.3333Z" fill="black"/>
</svg>
