<svg width="34" height="34" viewBox="0 0 34 34" fill="none" xmlns="http://www.w3.org/2000/svg">
<path d="M16.984 0.333344C7.78398 0.333344 0.333984 7.80001 0.333984 17C0.333984 26.2 7.78398 33.6667 16.984 33.6667C26.2007 33.6667 33.6673 26.2 33.6673 17C33.6673 7.80001 26.2007 0.333344 16.984 0.333344ZM17.0007 30.3333C9.63398 30.3333 3.66732 24.3667 3.66732 17C3.66732 9.63334 9.63398 3.66668 17.0007 3.66668C24.3673 3.66668 30.334 9.63334 30.334 17C30.334 24.3667 24.3673 30.3333 17.0007 30.3333ZM17.834 8.66668H15.334V18.6667L24.084 23.9167L25.334 21.8667L17.834 17.4167V8.66668Z" fill="black"/>
</svg>
