<svg width="305" height="269" viewBox="0 0 305 269" fill="none" xmlns="http://www.w3.org/2000/svg">
<path d="M25.75 127.75V123.5H17.25V127.75H25.75ZM4.5 132V155.375H38.5V132H4.5ZM38.5 127.75C40.8588 127.75 42.75 129.641 42.75 132V155.375C42.75 157.734 40.8588 159.625 38.5 159.625H4.5C2.14125 159.625 0.25 157.734 0.25 155.375L0.27125 132C0.27125 129.641 2.14125 127.75 4.5 127.75H13V123.5C13 121.141 14.8912 119.25 17.25 119.25H25.75C28.1088 119.25 30 121.141 30 123.5V127.75H38.5Z" fill="#ABE3C4"/>
<path d="M283 0.666626C272.88 0.666626 264.667 8.87996 264.667 19C264.667 29.12 272.88 37.3333 283 37.3333C293.12 37.3333 301.333 29.12 301.333 19C301.333 8.87996 293.12 0.666626 283 0.666626ZM283 33.6666C274.915 33.6666 268.333 27.085 268.333 19C268.333 10.915 274.915 4.33329 283 4.33329C291.085 4.33329 297.667 10.915 297.667 19C297.667 27.085 291.085 33.6666 283 33.6666ZM283.568 17.4233C280.323 16.5983 279.278 15.7 279.278 14.3616C279.278 12.8216 280.727 11.74 283.128 11.74C285.658 11.74 286.612 12.95 286.685 14.7466H289.82C289.728 12.29 288.225 10.035 285.255 9.30163V6.16663H280.983V9.26496C278.215 9.85163 275.997 11.6483 275.997 14.4166C275.997 17.6983 278.728 19.3483 282.707 20.3016C286.282 21.145 286.997 22.41 286.997 23.73C286.997 24.7016 286.282 26.2783 283.147 26.2783C280.213 26.2783 279.058 24.9583 278.893 23.2716H275.74C275.923 26.3883 278.233 28.1483 280.983 28.7166V31.8333H285.273V28.7716C288.06 28.24 290.26 26.645 290.278 23.6933C290.26 19.66 286.795 18.2666 283.568 17.4233V17.4233Z" fill="#ABE3C4"/>
<path d="M286 239.333H298C299.107 239.333 300.053 238.667 300.453 237.707L304.48 228.307C304.6 228 304.667 227.68 304.667 227.333V224.667C304.667 223.2 303.467 222 302 222H293.587L294.853 215.907L294.893 215.48C294.893 214.933 294.667 214.427 294.307 214.067L292.893 212.667L284.107 221.453C283.627 221.933 283.333 222.6 283.333 223.333V236.667C283.333 238.133 284.533 239.333 286 239.333ZM286 223.333L291.787 217.547L290 224.667H302V227.333L298 236.667H286V223.333ZM275.333 223.333H280.667V239.333H275.333V223.333Z" fill="#ABE3C4"/>
<path d="M64.0003 55.64H252V398.64C252 410.238 242.598 419.64 231 419.64H85.0003C73.4023 419.64 64.0003 410.238 64.0003 398.64V55.64Z" fill="#F8F8F8"/>
<path d="M61.0003 51.64C61.0003 36.7283 73.0886 24.64 88.0003 24.64H229C243.912 24.64 256 36.7283 256 51.64V55.64H61.0003V51.64Z" fill="white"/>
<rect x="129" y="34.64" width="54" height="4" rx="2" fill="#989898"/>
<circle cx="189" cy="36.64" r="2" fill="#989898"/>
<rect x="56.5003" y="21.14" width="203" height="405" rx="32.5" stroke="white" stroke-width="15"/>
<path fill-rule="evenodd" clip-rule="evenodd" d="M132.041 190.016C122.078 190.016 114.001 181.939 114.001 171.976V120.195C114.001 110.232 122.078 102.155 132.041 102.155H183.821C193.784 102.155 201.861 110.232 201.861 120.195V171.976C201.861 181.939 193.784 190.016 183.821 190.016H132.041Z" fill="#7BCED7"/>
<path fill-rule="evenodd" clip-rule="evenodd" d="M134.604 203.854H139.283V224.344H134.604V203.854ZM123.42 213.841H121.02V209.859H123.42V208.95C123.42 204.968 126.407 203.565 129.333 203.565C130.57 203.579 131.799 203.746 132.994 204.062L132.409 207.692C131.718 207.465 130.997 207.346 130.271 207.34C128.574 207.34 128.104 208.278 128.104 209.302V209.859H132.643V213.841H128.104V224.344H123.425L123.42 213.841Z" fill="#57BE85"/>
<path fill-rule="evenodd" clip-rule="evenodd" d="M151.796 215.275C151.591 214.307 150.596 213.284 148.986 213.284C147.695 213.284 146.703 213.957 146.233 215.275H151.796ZM141.374 217.119C141.374 212.601 144.712 209.565 148.957 209.565C153.113 209.565 156.275 212.376 156.275 216.738C156.271 217.227 156.242 217.716 156.188 218.202H146.088C146.411 220.105 147.638 220.983 149.073 220.983C150.302 220.983 151.386 220.338 151.62 219.197L155.689 220.28C154.862 223.295 152.109 224.667 149.095 224.667C144.704 224.667 141.374 221.656 141.374 217.119H141.374Z" fill="#57BE85"/>
<path fill-rule="evenodd" clip-rule="evenodd" d="M167.801 224.347L164.99 220.012L162.186 224.347H157.055L162.033 217.056L157.202 209.851H162.326L165.049 214.209L167.742 209.851H172.896L167.977 217.114L172.954 224.347L167.801 224.347Z" fill="#57BE85"/>
<path fill-rule="evenodd" clip-rule="evenodd" d="M174.738 209.858H179.417V224.344H174.738V209.858ZM174.154 205.409C174.192 203.811 175.498 202.535 177.096 202.535C178.695 202.535 180.001 203.811 180.039 205.409C180.039 206.959 178.72 208.248 177.081 208.248C176.316 208.26 175.578 207.968 175.029 207.435C174.48 206.903 174.165 206.174 174.154 205.409Z" fill="#57BE85"/>
<path fill-rule="evenodd" clip-rule="evenodd" d="M188.702 209.855H192.828V213.838H188.702V218.786C188.702 219.869 189.2 220.806 190.838 220.806C191.442 220.819 192.042 220.699 192.595 220.455L193.18 224.086C192.137 224.447 191.041 224.636 189.937 224.643C187.012 224.643 184.027 223.237 184.027 219.049V213.838H179.094V209.855H188.702Z" fill="#57BE85"/>
<path fill-rule="evenodd" clip-rule="evenodd" d="M183.198 205.407C183.235 203.809 184.54 202.534 186.137 202.534C187.734 202.534 189.038 203.809 189.076 205.407C189.076 206.957 187.759 208.245 186.122 208.245C185.358 208.257 184.62 207.965 184.072 207.433C183.523 206.9 183.209 206.171 183.198 205.407Z" fill="#57BE85"/>
<mask id="mask0_1009_1300" style="mask-type:alpha" maskUnits="userSpaceOnUse" x="114" y="102" width="88" height="88">
<path fill-rule="evenodd" clip-rule="evenodd" d="M132.16 189.903C122.197 189.903 114.12 181.826 114.12 171.863V120.083C114.12 110.12 122.197 102.043 132.16 102.043H183.941C193.904 102.043 201.981 110.12 201.981 120.083V171.863C201.981 181.826 193.904 189.903 183.941 189.903H132.16Z" fill="white"/>
</mask>
<g mask="url(#mask0_1009_1300)">
<path fill-rule="evenodd" clip-rule="evenodd" d="M155.201 150.886L126.131 190.785H154.202L181.443 153.143C186.712 146.146 186.712 146.194 181.363 138.09L156.069 100.919H127.378L155.247 139.847C159.382 145.873 158.653 146.142 155.201 150.886H155.201Z" fill="#348498"/>
<path fill-rule="evenodd" clip-rule="evenodd" d="M188.241 150.886L217.311 190.785H189.239L161.999 153.143C156.73 146.146 156.73 146.194 162.078 138.09L187.373 100.919H216.064L188.192 139.847C184.059 145.873 184.788 146.142 188.241 150.886H188.241Z" fill="#57BE85"/>
</g>
<path fill-rule="evenodd" clip-rule="evenodd" d="M145.008 128.578H153.075V163.875H145.008V128.578ZM125.746 145.771H121.613V138.914H125.746V137.35C125.746 130.493 130.89 128.073 135.934 128.073C138.061 128.099 140.178 128.386 142.236 128.93L141.227 135.182C140.039 134.792 138.798 134.587 137.547 134.577C134.622 134.577 133.815 136.19 133.815 137.955V138.914H141.63V145.771H133.815V163.873H125.748L125.746 145.771Z" fill="white"/>
</svg>
