<svg width="305" height="269" viewBox="0 0 305 269" fill="none" xmlns="http://www.w3.org/2000/svg">
<path d="M25.75 127.75V123.5H17.25V127.75H25.75ZM4.5 132V155.375H38.5V132H4.5ZM38.5 127.75C40.8588 127.75 42.75 129.641 42.75 132V155.375C42.75 157.734 40.8588 159.625 38.5 159.625H4.5C2.14125 159.625 0.25 157.734 0.25 155.375L0.27125 132C0.27125 129.641 2.14125 127.75 4.5 127.75H13V123.5C13 121.141 14.8912 119.25 17.25 119.25H25.75C28.1088 119.25 30 121.141 30 123.5V127.75H38.5Z" fill="#ABE3C4"/>
<path d="M282.999 0.666626C272.879 0.666626 264.666 8.87996 264.666 19C264.666 29.12 272.879 37.3333 282.999 37.3333C293.119 37.3333 301.333 29.12 301.333 19C301.333 8.87996 293.119 0.666626 282.999 0.666626ZM282.999 33.6666C274.914 33.6666 268.333 27.085 268.333 19C268.333 10.915 274.914 4.33329 282.999 4.33329C291.084 4.33329 297.666 10.915 297.666 19C297.666 27.085 291.084 33.6666 282.999 33.6666ZM283.568 17.4233C280.323 16.5983 279.278 15.7 279.278 14.3616C279.278 12.8216 280.726 11.74 283.128 11.74C285.658 11.74 286.611 12.95 286.684 14.7466H289.819C289.728 12.29 288.224 10.035 285.254 9.30163V6.16663H280.983V9.26496C278.214 9.85163 275.996 11.6483 275.996 14.4166C275.996 17.6983 278.728 19.3483 282.706 20.3016C286.281 21.145 286.996 22.41 286.996 23.73C286.996 24.7016 286.281 26.2783 283.146 26.2783C280.213 26.2783 279.058 24.9583 278.893 23.2716H275.739C275.923 26.3883 278.233 28.1483 280.983 28.7166V31.8333H285.273V28.7716C288.059 28.24 290.259 26.645 290.278 23.6933C290.259 19.66 286.794 18.2666 283.568 17.4233V17.4233Z" fill="#ABE3C4"/>
<path d="M286.001 239.333H298.001C299.107 239.333 300.054 238.667 300.454 237.707L304.481 228.307C304.601 228 304.667 227.68 304.667 227.333V224.667C304.667 223.2 303.467 222 302.001 222H293.587L294.854 215.907L294.894 215.48C294.894 214.933 294.667 214.427 294.307 214.067L292.894 212.667L284.107 221.453C283.627 221.933 283.334 222.6 283.334 223.333V236.667C283.334 238.133 284.534 239.333 286.001 239.333ZM286.001 223.333L291.787 217.547L290.001 224.667H302.001V227.333L298.001 236.667H286.001V223.333ZM275.334 223.333H280.667V239.333H275.334V223.333Z" fill="#ABE3C4"/>
<mask id="mask0_1161_14795" style="mask-type:alpha" maskUnits="userSpaceOnUse" x="33" y="3" width="250" height="266">
<rect x="33" y="3" width="249.76" height="266" fill="#C4C4C4"/>
</mask>
<g mask="url(#mask0_1161_14795)">
<path d="M64 55.64H252V398.64C252 410.238 242.598 419.64 231 419.64H85C73.402 419.64 64 410.238 64 398.64V55.64Z" fill="#F8F8F8"/>
<path d="M61 51.64C61 36.7283 73.0883 24.64 88 24.64H229C243.912 24.64 256 36.7283 256 51.64V55.64H61V51.64Z" fill="white"/>
<path d="M184 24.64H132C132 38.9994 143.641 50.64 158 50.64C172.359 50.64 184 38.9994 184 24.64Z" fill="white"/>
<rect x="129" y="34.64" width="54" height="4" rx="2" fill="#989898"/>
<circle cx="189" cy="36.64" r="2" fill="#989898"/>
<rect x="56.5" y="21.14" width="203" height="405" rx="32.5" stroke="white" stroke-width="15"/>
<path fill-rule="evenodd" clip-rule="evenodd" d="M132.04 190.016C122.077 190.016 114 181.939 114 171.976V120.195C114 110.232 122.077 102.155 132.04 102.155H183.82C193.783 102.155 201.86 110.232 201.86 120.195V171.976C201.86 181.939 193.783 190.016 183.82 190.016H132.04Z" fill="#7BCED7"/>
<path fill-rule="evenodd" clip-rule="evenodd" d="M134.604 203.854H139.283V224.344H134.604V203.854ZM123.42 213.841H121.02V209.859H123.42V208.95C123.42 204.968 126.407 203.565 129.333 203.565C130.57 203.579 131.799 203.746 132.994 204.062L132.409 207.692C131.718 207.465 130.997 207.346 130.271 207.34C128.574 207.34 128.104 208.278 128.104 209.302V209.859H132.643V213.841H128.104V224.344H123.425L123.42 213.841Z" fill="#57BE85"/>
<path fill-rule="evenodd" clip-rule="evenodd" d="M151.796 215.275C151.591 214.307 150.595 213.284 148.985 213.284C147.695 213.284 146.702 213.957 146.233 215.275H151.796ZM141.373 217.119C141.373 212.601 144.711 209.565 148.956 209.565C153.112 209.565 156.274 212.376 156.274 216.738C156.27 217.227 156.241 217.716 156.187 218.202H146.087C146.41 220.105 147.638 220.983 149.072 220.983C150.302 220.983 151.386 220.338 151.62 219.197L155.689 220.28C154.861 223.295 152.109 224.667 149.095 224.667C144.703 224.667 141.373 221.656 141.373 217.119H141.373Z" fill="#57BE85"/>
<path fill-rule="evenodd" clip-rule="evenodd" d="M167.8 224.347L164.99 220.012L162.185 224.347H157.054L162.032 217.056L157.201 209.851H162.325L165.048 214.209L167.741 209.851H172.895L167.976 217.114L172.953 224.347L167.8 224.347Z" fill="#57BE85"/>
<path fill-rule="evenodd" clip-rule="evenodd" d="M174.738 209.858H179.417V224.344H174.738V209.858ZM174.154 205.409C174.192 203.811 175.498 202.535 177.096 202.535C178.695 202.535 180.001 203.811 180.038 205.409C180.038 206.959 178.72 208.248 177.081 208.248C176.316 208.26 175.578 207.968 175.029 207.435C174.48 206.903 174.165 206.174 174.154 205.409Z" fill="#57BE85"/>
<path fill-rule="evenodd" clip-rule="evenodd" d="M188.7 209.855H192.827V213.838H188.7V218.786C188.7 219.869 189.198 220.806 190.837 220.806C191.441 220.819 192.04 220.699 192.593 220.455L193.178 224.086C192.135 224.447 191.039 224.636 189.935 224.643C187.01 224.643 184.025 223.237 184.025 219.049V213.838H179.092V209.855H188.7Z" fill="#57BE85"/>
<path fill-rule="evenodd" clip-rule="evenodd" d="M183.197 205.407C183.234 203.809 184.539 202.534 186.136 202.534C187.733 202.534 189.037 203.809 189.075 205.407C189.075 206.957 187.758 208.245 186.121 208.245C185.357 208.257 184.619 207.965 184.071 207.433C183.522 206.9 183.208 206.171 183.197 205.407Z" fill="#57BE85"/>
<mask id="mask1_1161_14795" style="mask-type:alpha" maskUnits="userSpaceOnUse" x="114" y="102" width="88" height="88">
<path fill-rule="evenodd" clip-rule="evenodd" d="M132.159 189.903C122.195 189.903 114.119 181.826 114.119 171.863V120.083C114.119 110.12 122.195 102.043 132.159 102.043H183.939C193.902 102.043 201.979 110.12 201.979 120.083V171.863C201.979 181.826 193.902 189.903 183.939 189.903H132.159Z" fill="white"/>
</mask>
<g mask="url(#mask1_1161_14795)">
<path fill-rule="evenodd" clip-rule="evenodd" d="M155.199 150.886L126.129 190.785H154.2L181.441 153.143C186.71 146.146 186.71 146.194 181.362 138.09L156.067 100.919H127.376L155.245 139.847C159.38 145.873 158.651 146.142 155.199 150.886H155.199Z" fill="#348498"/>
<path fill-rule="evenodd" clip-rule="evenodd" d="M188.239 150.886L217.309 190.785H189.237L161.997 153.143C156.728 146.146 156.728 146.194 162.076 138.09L187.371 100.919H216.062L188.19 139.847C184.057 145.873 184.786 146.142 188.239 150.886H188.239Z" fill="#57BE85"/>
</g>
<path fill-rule="evenodd" clip-rule="evenodd" d="M145.007 128.578H153.074V163.875H145.007V128.578ZM125.745 145.771H121.611V138.914H125.745V137.35C125.745 130.493 130.888 128.073 135.932 128.073C138.06 128.099 140.176 128.386 142.234 128.93L141.226 135.182C140.037 134.792 138.796 134.587 137.545 134.577C134.62 134.577 133.814 136.19 133.814 137.955V138.914H141.629V145.771H133.814V163.873H125.746L125.745 145.771Z" fill="white"/>
</g>
</svg>
