<svg width="170" height="52" viewBox="0 0 170 52" fill="none" xmlns="http://www.w3.org/2000/svg">
<path fill-rule="evenodd" clip-rule="evenodd" d="M152.983 0C149.232 0 146.166 2.99668 146.078 6.74983C146.104 8.54615 146.843 10.2584 148.131 11.5096C149.42 12.7606 151.152 13.4475 152.947 13.4191C156.794 13.4191 159.888 10.3914 159.888 6.74983C159.8 2.99668 156.734 0 152.983 0ZM148.026 26.5579H137.197V51.2418H126.204V17.2095H136.436V17.1999H159.01H168.705V26.5579H159.01V38.1835C159.01 40.7279 160.181 42.9308 164.03 42.9308C165.449 42.9593 166.857 42.6772 168.156 42.1042L169.532 50.6357C167.08 51.4849 164.506 51.927 161.912 51.9438C155.039 51.9438 148.026 48.6412 148.026 38.8016V26.5579ZM131.744 0.00245449C127.988 0.00245449 124.919 3.00049 124.831 6.75511C124.857 8.55186 125.597 10.2648 126.886 11.5161C128.176 12.7676 129.911 13.4548 131.707 13.4264C135.559 13.4264 138.656 10.3979 138.656 6.75511C138.568 3.00049 135.499 0.00245449 131.744 0.00245449ZM42.9096 3.10087H31.9169V51.2416H42.9096V3.10087ZM0 26.5644H5.64042L5.65175 51.2415H16.6446V26.5644H27.3075V17.2092H16.6446V15.9017C16.6446 13.4946 17.7476 11.2921 21.7353 11.2921C23.4421 11.3069 25.1364 11.5858 26.7578 12.1187L28.1338 3.58974C25.3259 2.8478 22.4371 2.45566 19.533 2.42226C12.6569 2.42226 5.64042 5.7199 5.64042 15.0751V17.2092H0V26.5644ZM65.702 25.257C69.485 25.257 71.8238 27.6602 72.3052 29.9347H59.2352C60.3383 26.8378 62.6695 25.257 65.702 25.257ZM65.6342 16.5197C55.6613 16.5197 47.8185 23.6537 47.8185 34.2675C47.8185 44.9266 55.6423 52 65.9603 52C73.0412 52 79.5079 48.7778 81.4525 41.6932L71.8927 39.1498C71.343 41.8296 68.7957 43.3458 65.9073 43.3458C62.5374 43.3458 59.6528 41.2838 58.8947 36.8109H82.6238C82.75 35.669 82.8183 34.5216 82.8285 33.3727C82.8285 23.123 75.3989 16.5197 65.6342 16.5197ZM109.909 51.2487L103.305 41.0645L96.7158 51.2487H84.6601L96.3556 34.1182L85.0052 17.1926H97.0456L103.441 27.4299L109.768 17.1926H121.877L110.322 34.2548L122.013 51.2486L109.909 51.2487Z" fill="#2C2C2C"/>
</svg>
