<svg width="30" height="30" viewBox="0 0 30 30" fill="none" xmlns="http://www.w3.org/2000/svg">
<path d="M26.6667 0H3.33333C1.5 0 0 1.5 0 3.33333V26.6667C0 28.5 1.5 30 3.33333 30H26.6667C28.5 30 30 28.5 30 26.6667V3.33333C30 1.5 28.5 0 26.6667 0ZM26.6667 26.6667H3.33333V3.33333H26.6667V26.6667Z" fill="black"/>
<path d="M9.99935 15H6.66602V23.3333H9.99935V15Z" fill="#323232"/>
<path d="M23.3333 6.66669H20V23.3334H23.3333V6.66669Z" fill="#323232"/>
<path d="M16.6673 18.3333H13.334V23.3333H16.6673V18.3333Z" fill="#323232"/>
<path d="M16.6673 11.6667H13.334V15H16.6673V11.6667Z" fill="#323232"/>
</svg>
