<svg width="34" height="31" viewBox="0 0 34 31" fill="none" xmlns="http://www.w3.org/2000/svg">
<path d="M24.5007 0C21.6007 0 18.8173 1.35 17.0007 3.48333C15.184 1.35 12.4007 0 9.50065 0C4.36732 0 0.333984 4.03333 0.333984 9.16667C0.333984 15.4667 6.00065 20.6 14.584 28.4L17.0007 30.5833L19.4173 28.3833C28.0007 20.6 33.6673 15.4667 33.6673 9.16667C33.6673 4.03333 29.634 0 24.5007 0ZM17.1673 25.9167L17.0007 26.0833L16.834 25.9167C8.90065 18.7333 3.66732 13.9833 3.66732 9.16667C3.66732 5.83333 6.16732 3.33333 9.50065 3.33333C12.0673 3.33333 14.5673 4.98333 15.4507 7.26667H18.5673C19.434 4.98333 21.934 3.33333 24.5007 3.33333C27.834 3.33333 30.334 5.83333 30.334 9.16667C30.334 13.9833 25.1007 18.7333 17.1673 25.9167Z" fill="black"/>
</svg>
