<svg width="40" height="40" viewBox="0 0 40 40" fill="none" xmlns="http://www.w3.org/2000/svg">
<path d="M20.0007 3.33334C13.5507 3.33334 8.33398 8.55001 8.33398 15C8.33398 23.75 20.0007 36.6667 20.0007 36.6667C20.0007 36.6667 31.6673 23.75 31.6673 15C31.6673 8.55001 26.4507 3.33334 20.0007 3.33334ZM11.6673 15C11.6673 10.4 15.4007 6.66668 20.0007 6.66668C24.6007 6.66668 28.334 10.4 28.334 15C28.334 19.8 23.534 26.9833 20.0007 31.4667C16.534 27.0167 11.6673 19.75 11.6673 15Z" fill="black"/>
<path d="M20.0007 19.1667C22.3018 19.1667 24.1673 17.3012 24.1673 15C24.1673 12.6988 22.3018 10.8333 20.0007 10.8333C17.6995 10.8333 15.834 12.6988 15.834 15C15.834 17.3012 17.6995 19.1667 20.0007 19.1667Z" fill="black"/>
</svg>
