<svg width="84" height="116" viewBox="0 0 84 116" fill="none" xmlns="http://www.w3.org/2000/svg">
<path fill-rule="evenodd" clip-rule="evenodd" d="M18.04 83.1594C8.07679 83.1594 0 75.0826 0 65.1194V18.1468C0 8.18361 8.07678 0.106814 18.04 0.106814H65.0125C74.9758 0.106814 83.0525 8.1836 83.0525 18.1468V65.1193C83.0525 75.0826 74.9758 83.1594 65.0125 83.1594H18.04Z" fill="#7BCED7"/>
<path fill-rule="evenodd" clip-rule="evenodd" d="M19.476 96.24H23.8988V115.609H19.476V96.24ZM8.90415 105.68H6.63477V101.916H8.90415V101.058C8.90415 97.2938 11.7272 95.967 14.4937 95.967C15.6622 95.9805 16.8245 96.1383 17.9542 96.4368L17.4006 99.8683C16.7482 99.6539 16.0665 99.5417 15.3798 99.5358C13.7754 99.5358 13.3316 100.422 13.3316 101.39V101.916H17.6218V105.68H13.3316V115.609H8.90871L8.90415 105.68Z" fill="#57BE85"/>
<path fill-rule="evenodd" clip-rule="evenodd" d="M35.7274 107.036C35.5336 106.121 34.5927 105.154 33.0706 105.154C31.8505 105.154 30.9125 105.79 30.4687 107.036H35.7274ZM25.875 108.78C25.875 104.509 29.0305 101.639 33.043 101.639C36.9718 101.639 39.9611 104.296 39.9611 108.42C39.957 108.882 39.9295 109.344 39.8787 109.803H30.3314C30.6364 111.603 31.7971 112.432 33.1529 112.432C34.315 112.432 35.3399 111.822 35.5611 110.744L39.4074 111.767C38.625 114.618 36.0232 115.914 33.1742 115.914C29.0228 115.914 25.875 113.068 25.875 108.78H25.875Z" fill="#57BE85"/>
<path fill-rule="evenodd" clip-rule="evenodd" d="M50.8569 115.612L48.1998 111.514L45.5489 115.612H40.6983L45.404 108.72L40.8372 101.91H45.6816L48.2548 106.029L50.8005 101.91H55.6723L51.0232 108.774L55.7272 115.612L50.8569 115.612Z" fill="#57BE85"/>
<path fill-rule="evenodd" clip-rule="evenodd" d="M57.4139 101.916H61.8367V115.609H57.4139V101.916ZM56.8613 97.7103C56.8966 96.1997 58.1313 94.9934 59.6424 94.9934C61.1534 94.9934 62.3882 96.1997 62.4235 97.7103C62.4235 99.1759 61.1774 100.394 59.6279 100.394C58.905 100.406 58.2071 100.129 57.6882 99.6258C57.1692 99.1224 56.8717 98.4332 56.8613 97.7103Z" fill="#57BE85"/>
<path fill-rule="evenodd" clip-rule="evenodd" d="M70.6134 101.913H74.5143V105.678H70.6134V110.355C70.6134 111.379 71.0844 112.265 72.6332 112.265C73.2042 112.277 73.7707 112.163 74.2933 111.933L74.8467 115.365C73.8604 115.707 72.8248 115.885 71.781 115.892C69.0158 115.892 66.1941 114.563 66.1941 110.604V105.678H61.531V101.913H70.6134Z" fill="#57BE85"/>
<path fill-rule="evenodd" clip-rule="evenodd" d="M65.4096 97.7079C65.4451 96.1979 66.6784 94.9922 68.1878 94.9922C69.6971 94.9922 70.9306 96.1979 70.9659 97.7079C70.9659 99.1731 69.7212 100.391 68.1733 100.391C67.4511 100.403 66.754 100.126 66.2356 99.623C65.7172 99.1196 65.4201 98.4307 65.4096 97.7079Z" fill="#57BE85"/>
<mask id="mask0_1245_24681" style="mask-type:alpha" maskUnits="userSpaceOnUse" x="0" y="0" width="84" height="84">
<path fill-rule="evenodd" clip-rule="evenodd" d="M18.1526 83.0528C8.18938 83.0528 0.112585 74.976 0.112585 65.0128V18.0403C0.112585 8.07704 8.18937 0.000247657 18.1526 0.000247657H65.1251C75.0883 0.000247657 83.1651 8.07703 83.1651 18.0402V65.0128C83.1651 74.976 75.0883 83.0528 65.1251 83.0528H18.1526Z" fill="white"/>
</mask>
<g mask="url(#mask0_1245_24681)">
<path fill-rule="evenodd" clip-rule="evenodd" d="M38.9458 46.1708L11.4665 83.8866H38.0019L63.7519 48.3044C68.7326 41.69 68.7326 41.7358 63.6771 34.0752L39.7663 -1.06169H12.6453L38.9901 35.736C42.8987 41.4323 42.2094 41.687 38.9459 46.1708H38.9458Z" fill="#348498"/>
<path fill-rule="evenodd" clip-rule="evenodd" d="M70.1748 46.1708L97.6542 83.8866H71.1188L45.3688 48.3044C40.388 41.69 40.388 41.7358 45.4435 34.0752L69.3544 -1.06169H96.4754L70.1291 35.736C66.222 41.4323 66.9112 41.687 70.1748 46.1708H70.1748Z" fill="#57BE85"/>
</g>
<path fill-rule="evenodd" clip-rule="evenodd" d="M29.3094 25.0838H36.9351V58.449H29.3094V25.0838ZM11.1007 41.3355H7.19336V34.8538H11.1007V33.3759C11.1007 26.8941 15.9628 24.6064 20.7304 24.6064C22.7418 24.6304 24.7427 24.9024 26.6875 25.4163L25.7343 31.3261C24.6112 30.957 23.4377 30.7641 22.2555 30.7542C19.4904 30.7542 18.7279 32.2794 18.7279 33.9478V34.8538H26.1156V41.3355H18.7279V58.4474H11.1022L11.1007 41.3355Z" fill="white"/>
</svg>
