<svg width="34" height="34" viewBox="0 0 34 34" fill="none" xmlns="http://www.w3.org/2000/svg">
<path d="M17.0007 0.333328C7.80065 0.333328 0.333984 7.8 0.333984 17C0.333984 26.2 7.80065 33.6667 17.0007 33.6667C26.2007 33.6667 33.6673 26.2 33.6673 17C33.6673 7.8 26.2007 0.333328 17.0007 0.333328ZM17.0007 30.3333C9.65065 30.3333 3.66732 24.35 3.66732 17C3.66732 9.65 9.65065 3.66666 17.0007 3.66666C24.3507 3.66666 30.334 9.65 30.334 17C30.334 24.35 24.3507 30.3333 17.0007 30.3333ZM17.5173 15.5667C14.5673 14.8167 13.6173 14 13.6173 12.7833C13.6173 11.3833 14.934 10.4 17.1173 10.4C19.4173 10.4 20.284 11.5 20.3507 13.1333H23.2007C23.1173 10.9 21.7507 8.85 19.0507 8.18333V5.33333H15.1673V8.15C12.6507 8.68333 10.634 10.3167 10.634 12.8333C10.634 15.8167 13.1173 17.3167 16.734 18.1833C19.984 18.95 20.634 20.1 20.634 21.3C20.634 22.1833 19.984 23.6167 17.134 23.6167C14.4673 23.6167 13.4173 22.4167 13.2673 20.8833H10.4007C10.5673 23.7167 12.6673 25.3167 15.1673 25.8333V28.6667H19.0673V25.8833C21.6007 25.4 23.6007 23.95 23.6173 21.2667C23.6007 17.6 20.4507 16.3333 17.5173 15.5667Z" fill="black"/>
</svg>
