<svg width="120" height="325" viewBox="0 0 120 325" fill="none" xmlns="http://www.w3.org/2000/svg">
<path d="M37.0831 52.514C36.1937 51.86 35.4908 50.9849 35.0441 49.9754C34.5974 48.9659 34.4224 47.8571 34.5366 46.7592C33.4134 47.0046 32.2406 46.8726 31.2001 46.3836C30.1596 45.8945 29.3096 45.0758 28.7818 44.0544C27.7799 41.9544 27.5016 39.5817 27.9905 37.3069C26.2391 36.4586 24.7756 35.1143 23.782 33.441C22.7884 31.7677 22.3086 29.8393 22.4021 27.8956C22.4956 25.9518 23.1584 24.0783 24.308 22.5082C25.4576 20.938 27.0434 19.7404 28.8681 19.0642C28.5576 18.9239 28.2855 18.7107 28.0751 18.4426C27.8646 18.1746 27.7221 17.8597 27.6596 17.5247C26.3648 13.2086 28.9257 8.37461 32.8677 6.23094C34.8881 5.2439 37.0956 4.69874 39.3431 4.63175C41.5907 4.56477 43.8268 4.97752 45.9023 5.84249C45.7851 5.27023 45.8338 4.67638 46.0428 4.1309C46.2519 3.58542 46.6124 3.11105 47.0821 2.76367C48.0321 2.08509 49.1245 1.63239 50.276 1.44007C56.0601 0.187283 62.0823 0.62172 67.6267 2.69174C70.2596 3.68444 73.1513 5.68424 72.9355 8.44654C74.6557 8.15316 76.4244 8.388 78.0084 9.12012C79.5925 9.85223 80.9174 11.0472 81.8085 12.5475C82.6997 14.0479 83.1152 15.783 83.0003 17.5243C82.8854 19.2655 82.2455 20.931 81.1649 22.3012C82.4628 23.5446 83.4015 25.1149 83.8823 26.8468C84.3631 28.5787 84.3681 30.4081 83.8969 32.1426C83.4258 33.8772 82.4958 35.4526 81.2048 36.7032C79.9139 37.9538 78.3097 38.8333 76.5611 39.2491C76.7481 38.6017 77.7408 39.1772 77.9998 39.7958C79.7118 44.1119 76.561 49.1618 72.5471 51.5788C68.5331 53.9958 62.692 54.4562 59.3398 51.0896C59.3573 52.2052 58.9974 53.294 58.3184 54.1793C57.6394 55.0646 56.6811 55.6945 55.5992 55.9668C53.417 56.458 51.1464 56.3937 48.9955 55.7798C46.8375 55.3338 44.9096 54.1685 42.8235 53.6937C40.7374 53.2189 38.9678 53.8663 37.0831 52.514Z" fill="white"/>
<path d="M53.0363 56.974C51.6066 56.9365 50.1846 56.7533 48.7921 56.4273C47.65 56.1537 46.5334 55.7831 45.4543 55.3195C44.5219 54.9196 43.5598 54.5925 42.5769 54.3411C41.9368 54.2164 41.2868 54.149 40.6347 54.1397C39.2381 54.2156 37.8533 53.848 36.6782 53.0895C35.812 52.4528 35.1026 51.6267 34.604 50.6743C34.1053 49.7219 33.8306 48.6683 33.8008 47.5937C32.6482 47.6471 31.5042 47.3711 30.5028 46.7978C29.5014 46.2245 28.6842 45.3777 28.1467 44.3566C27.1063 42.2908 26.7679 39.9421 27.1828 37.6666C25.4831 36.7353 24.0698 35.3576 23.0955 33.6822C22.1211 32.0067 21.6226 30.0971 21.6537 28.1592C21.6848 26.2213 22.2443 24.3286 23.2719 22.6853C24.2995 21.042 25.7562 19.7104 27.4849 18.834C27.2484 18.4805 27.0688 18.0922 26.9526 17.6831C25.629 13.367 28.0604 7.98621 32.506 5.5548C34.4433 4.58309 36.5566 4.01217 38.7197 3.8762C40.8827 3.74024 43.051 4.04203 45.0946 4.76352C45.2693 3.74233 45.8055 2.81806 46.6053 2.15948C47.6395 1.40844 48.838 0.9152 50.1013 0.720774C56.0184 -0.564052 62.18 -0.124662 67.8549 1.98683C71.2646 3.26727 73.3507 5.35339 73.6097 7.6697C75.361 7.54542 77.112 7.91513 78.6636 8.73678C80.2151 9.55843 81.505 10.799 82.3864 12.3175C83.2677 13.8359 83.7053 15.5712 83.6492 17.326C83.5932 19.0808 83.0457 20.7847 82.0692 22.2437C83.2324 23.496 84.0788 25.0087 84.5376 26.6551C84.9965 28.3016 85.0543 30.0339 84.7064 31.7073C84.3585 33.3807 83.6149 34.9465 82.5379 36.2736C81.4608 37.6007 80.0816 38.6506 78.5156 39.3355C78.5551 39.4045 78.5888 39.4767 78.6164 39.5513C80.5154 44.3997 77.0769 49.6941 72.8615 52.1975C69.0634 54.4706 63.6395 55.19 59.9132 52.5572C59.6192 53.5358 59.0847 54.4252 58.3583 55.144C57.632 55.8628 56.7371 56.3881 55.7554 56.6718C54.8693 56.908 53.9526 57.0099 53.0363 56.974ZM34.5346 45.9391C34.6979 45.9337 34.8572 45.9903 34.9806 46.0974C35.0729 46.1731 35.1449 46.2706 35.1901 46.3812C35.2353 46.4917 35.2523 46.6117 35.2395 46.7304C35.138 47.7089 35.2928 48.697 35.6889 49.5976C36.0849 50.4981 36.7085 51.2801 37.4983 51.8666C38.4557 52.4821 39.5852 52.7746 40.721 52.701C41.4658 52.7088 42.208 52.7908 42.9366 52.9456C43.9794 53.2084 44.9994 53.5549 45.9866 53.9815C46.9854 54.4167 48.0204 54.7633 49.0798 55.0173C51.1126 55.599 53.2578 55.6682 55.3238 55.2188C56.228 55.0008 57.0353 54.4908 57.6204 53.7678C58.2056 53.0448 58.5361 52.149 58.5609 51.2192C58.5452 51.0704 58.5754 50.9204 58.6474 50.7892C58.7194 50.6581 58.8298 50.5521 58.9637 50.4854C59.0984 50.4214 59.2497 50.4009 59.3966 50.4267C59.5436 50.4524 59.6789 50.5233 59.7838 50.6293C62.9633 53.8088 68.416 53.219 72.1278 51.0034C75.8397 48.7878 78.8178 44.0688 77.264 40.098C77.2258 40.0164 77.1721 39.9431 77.1057 39.8822L76.6885 39.9973C76.5658 40.0273 76.4374 40.0245 76.3162 39.9891C76.195 39.9538 76.0852 39.8871 75.9979 39.7959C75.9117 39.7027 75.8506 39.5891 75.8204 39.4657C75.7902 39.3424 75.7919 39.2134 75.8253 39.0909C75.8861 38.8672 76.0164 38.6686 76.1974 38.5238C76.3784 38.379 76.6008 38.2954 76.8324 38.2853C76.961 38.2643 77.0922 38.2643 77.2208 38.2853C78.6401 37.769 79.9177 36.9254 80.9501 35.8231C81.9824 34.7208 82.7404 33.3906 83.1627 31.9406C83.5747 30.3281 83.5564 28.6358 83.1095 27.0326C82.6627 25.4294 81.8029 23.9716 80.6162 22.8048C80.4921 22.6786 80.4168 22.5125 80.4036 22.336C80.3904 22.1596 80.4402 21.9841 80.5442 21.8409C81.5145 20.5812 82.0844 19.0592 82.18 17.472C82.2756 15.8847 81.8925 14.3054 81.0803 12.9383C80.2681 11.5713 79.0643 10.4795 77.6246 9.80439C76.185 9.12925 74.5758 8.90182 73.0054 9.15156C72.8985 9.1665 72.7896 9.15767 72.6865 9.12569C72.5834 9.09371 72.4886 9.03937 72.4089 8.96654C72.3292 8.89371 72.2665 8.8042 72.2254 8.70437C72.1843 8.60455 72.1657 8.49688 72.171 8.38905C72.3436 6.05835 69.7827 4.2312 67.3225 3.31043C61.9109 1.29266 56.0344 0.868265 50.389 2.08754C49.353 2.25787 48.3691 2.66126 47.5116 3.26727C47.1584 3.53052 46.8843 3.88583 46.7194 4.29434C46.5544 4.70286 46.505 5.14886 46.5765 5.58358C46.6137 5.71031 46.6145 5.84494 46.5789 5.97213C46.5433 6.09931 46.4726 6.21393 46.3751 6.30293C46.2783 6.39292 46.1591 6.45513 46.03 6.48299C45.9008 6.51084 45.7666 6.50331 45.6414 6.46119C43.6626 5.62896 41.5292 5.22802 39.3833 5.28508C37.2374 5.34214 35.1283 5.85589 33.1966 6.79209C29.3265 8.90698 27.1972 13.5108 28.3338 17.2514C28.4345 17.5967 28.6791 18.201 29.0531 18.3161C29.1979 18.3582 29.3258 18.4447 29.4188 18.5635C29.5117 18.6822 29.565 18.8272 29.571 18.9779C29.5728 19.1297 29.5283 19.2784 29.4435 19.4043C29.3587 19.5303 29.2376 19.6274 29.0963 19.6829C27.4047 20.3112 25.935 21.4228 24.8698 22.8795C23.8047 24.3362 23.1911 26.0738 23.1053 27.8763C23.0194 29.6788 23.4652 31.4668 24.3871 33.0182C25.309 34.5695 26.6664 35.8157 28.2906 36.602C28.4317 36.6669 28.5467 36.7775 28.6172 36.9158C28.6877 37.0542 28.7095 37.2122 28.6791 37.3645C28.2068 39.4816 28.4601 41.6959 29.3984 43.6516C29.8479 44.532 30.5747 45.24 31.4665 45.6664C32.3583 46.0928 33.3657 46.2139 34.3331 46.0111C34.399 45.9947 34.4671 45.9899 34.5346 45.9967V45.9391Z" fill="#231F20"/>
<path d="M28.3464 69.4331C28.3464 69.4331 3.77336 113.515 0.478737 121.226C-2.81589 128.938 11.7725 146.85 17.4122 142.505C23.0519 138.16 28.3464 69.4331 28.3464 69.4331Z" fill="#57BE85"/>
<path d="M75.4353 299.338C75.4353 299.338 76.3992 305.812 74.9461 308.301C72.9705 311.836 71.8104 315.769 71.5508 319.81C72.6969 321.135 74.1091 322.204 75.6954 322.948C77.2818 323.692 79.0068 324.093 80.7585 324.126C86.5852 324.126 92.3976 319.638 93.045 317.48C93.6924 315.322 88.3548 292.403 88.3548 292.403L75.4353 299.338Z" fill="white"/>
<path d="M80.7598 324.745C78.9068 324.717 77.0811 324.294 75.4041 323.505C73.7271 322.716 72.2375 321.579 71.0342 320.17C70.9813 320.104 70.9425 320.028 70.9202 319.946C70.898 319.864 70.8927 319.779 70.9047 319.695C71.1647 315.574 72.355 311.565 74.3864 307.97C75.4798 306.099 75.0482 301.165 74.7892 299.438C74.7647 299.305 74.7837 299.167 74.8432 299.046C74.9028 298.924 74.9998 298.825 75.1201 298.762L88.0684 291.784C88.1601 291.739 88.261 291.715 88.3633 291.715C88.4657 291.715 88.5667 291.739 88.6583 291.784C88.7483 291.829 88.828 291.891 88.8924 291.968C88.9569 292.045 89.0045 292.134 89.0324 292.23C89.9244 296.101 94.37 315.437 93.7082 317.652C93.0464 319.868 86.8887 324.745 80.7598 324.745ZM72.2427 319.551C73.3251 320.741 74.6385 321.698 76.1029 322.363C77.5672 323.029 79.1518 323.389 80.7598 323.421C86.3276 323.421 91.881 319.105 92.4133 317.249C92.7873 315.983 90.4135 304.157 87.9101 293.338L76.1416 299.697C76.343 301.265 76.8465 306.344 75.5086 308.632C73.6287 311.986 72.5135 315.715 72.2427 319.551Z" fill="#231F20"/>
<path d="M35.3828 142.217L63.3943 150.187L69.8828 66.9441C69.8828 66.9441 46.691 61.29 41.1088 63.9516C35.5267 66.6132 35.3828 142.217 35.3828 142.217Z" fill="#231F20"/>
<path d="M63.3947 150.907H63.1933L35.2393 142.907C35.0872 142.866 34.9528 142.777 34.8566 142.652C34.7605 142.527 34.7079 142.374 34.707 142.217C34.707 129.513 35.1099 65.9657 40.8215 63.3041C46.5332 60.6425 69.1352 66.0089 70.0991 66.1815C70.2649 66.2248 70.4104 66.3247 70.5102 66.464C70.6101 66.6033 70.658 66.7731 70.6457 66.944L64.1572 150.187C64.1482 150.293 64.1165 150.395 64.0643 150.486C64.0122 150.578 63.9408 150.658 63.8551 150.72C63.7275 150.833 63.565 150.899 63.3947 150.907ZM36.0594 141.67L62.7041 149.252L69.0776 67.4907C62.2581 65.8794 45.6268 62.5704 41.3538 64.6133C38.1167 66.1959 36.1745 105.386 36.1026 141.67H36.0594Z" fill="#231F20"/>
<path d="M44.7218 284.361V303.841L35.6724 306.502L35.8882 302.517L31.8023 306.733C31.8023 306.733 7.48822 311.221 7.6177 307.883C7.74719 304.546 10.2074 302.733 13.2718 301.078C16.5665 299.294 25.2274 294.273 25.2274 294.273L26.5223 279.987" fill="white"/>
<path d="M12.1225 309.754C10.5161 309.931 8.89259 309.641 7.44669 308.919C7.2892 308.794 7.16301 308.634 7.0781 308.452C6.9932 308.27 6.95191 308.07 6.95754 307.869C7.10141 304.172 9.93567 302.114 12.9569 300.503C15.9782 298.892 23.0278 294.748 24.6104 293.87L25.8621 279.915C25.8837 279.743 25.9704 279.587 26.1042 279.477C26.238 279.367 26.4088 279.313 26.5814 279.325C26.6679 279.332 26.7521 279.357 26.8289 279.397C26.9058 279.437 26.9737 279.493 27.0287 279.56C27.0838 279.627 27.1247 279.705 27.1492 279.788C27.1737 279.871 27.1812 279.958 27.1713 280.045L25.8908 294.36C25.8784 294.463 25.842 294.563 25.7846 294.65C25.7272 294.738 25.6503 294.811 25.5599 294.863C25.4736 294.863 16.9278 299.913 13.59 301.683C10.2522 303.452 8.38187 305.078 8.28116 307.941C8.97174 309.149 19.575 308.329 31.473 306.143L35.415 302.085C35.5119 301.991 35.6344 301.927 35.7675 301.901C35.9005 301.875 36.0381 301.89 36.1632 301.942C36.2838 301.996 36.3853 302.086 36.4545 302.198C36.5238 302.311 36.5576 302.442 36.5516 302.575L36.379 305.639L44.076 303.38V284.389C44.0741 284.303 44.0894 284.217 44.1211 284.137C44.1528 284.057 44.2002 283.984 44.2605 283.922C44.3208 283.861 44.3928 283.812 44.4723 283.778C44.5518 283.745 44.6372 283.728 44.7234 283.728C44.899 283.728 45.0673 283.797 45.1914 283.921C45.3155 284.046 45.3852 284.214 45.3852 284.389V303.869C45.3872 304.013 45.3417 304.152 45.2558 304.267C45.1699 304.382 45.0485 304.464 44.9105 304.502L35.861 307.164C35.7605 307.192 35.655 307.196 35.5526 307.176C35.4503 307.156 35.354 307.112 35.2712 307.049C35.1884 306.985 35.1228 306.902 35.0801 306.806C35.0374 306.711 35.0191 306.607 35.0266 306.502L35.1417 304.258L32.2643 307.207C32.1681 307.307 32.0418 307.373 31.9046 307.394C25.3767 308.66 18.7651 309.449 12.1225 309.754Z" fill="#231F20"/>
<path d="M88.1698 150.072L95.6654 298C95.6654 298 94.9461 303.409 83.5228 304.085C72.0995 304.761 73.2505 301.999 73.2505 301.999L55.3818 193.492L48.0588 289.885L23.457 291.482L28.3486 139.555L88.1698 150.072Z" fill="#231F20"/>
<path d="M80.1719 304.905C76.0572 304.905 73.6258 304.315 72.7914 303.136C72.5425 302.801 72.4341 302.383 72.4892 301.97L55.6852 199.535L48.8226 289.928C48.809 290.102 48.7329 290.264 48.6086 290.386C48.4843 290.508 48.3201 290.58 48.1464 290.59L23.5015 292.158C23.4012 292.166 23.3006 292.151 23.2063 292.117C23.112 292.082 23.0262 292.027 22.9547 291.957C22.8827 291.889 22.8261 291.806 22.7889 291.714C22.7516 291.622 22.7346 291.524 22.7389 291.425L27.6305 139.498C27.633 139.394 27.658 139.292 27.7038 139.198C27.7495 139.105 27.815 139.022 27.8957 138.957C27.9764 138.891 28.0704 138.844 28.1711 138.818C28.2719 138.792 28.377 138.788 28.4793 138.807L88.3006 149.367C88.4621 149.394 88.6093 149.476 88.717 149.599C88.8246 149.723 88.8859 149.88 88.8904 150.043L96.3429 297.971C96.3429 298.345 95.4077 304.1 83.5385 304.79C82.3156 304.862 81.1934 304.905 80.1719 304.905ZM73.9135 302.258L74.043 302.387C74.489 302.819 76.3018 303.826 83.4521 303.366C94.0266 302.747 94.9617 297.956 94.9617 297.899L87.5236 150.676L29.0405 140.419L24.192 290.72L47.4271 289.281L54.7069 193.521C54.7238 193.346 54.8028 193.184 54.9295 193.062C55.0562 192.941 55.2222 192.869 55.3975 192.859C55.571 192.85 55.7418 192.905 55.8772 193.014C56.0126 193.123 56.1031 193.278 56.1312 193.449L73.9423 301.956C73.9784 302.088 73.9784 302.227 73.9423 302.359L73.9135 302.258Z" fill="#231F20"/>
<path d="M64.8295 58.988C64.8295 58.988 55.2334 159.453 59.5351 165.207C63.8368 170.962 90.3808 175.523 92.3662 164.358C95.6321 146.001 93.8049 80.0506 89.978 73.8498C74.5264 60.1102 64.8295 58.988 64.8295 58.988Z" fill="#57BE85"/>
<path d="M28.3475 69.4331C28.3475 69.4331 14.6223 160.675 17.212 163.323C19.8016 165.97 33.8721 169.552 37.7566 166.891C41.6411 164.229 46.9499 59.4629 46.9499 59.4629C39.9478 61.0058 33.5093 64.4565 28.3475 69.4331Z" fill="#57BE85"/>
<path d="M47.6956 57.6501L46.5159 67.3901C47.1554 69.317 48.5 70.9307 50.2799 71.9073C52.0598 72.884 54.1432 73.1514 56.112 72.6558C63.5357 71.0876 63.6221 66.7859 63.6221 66.7859C63.6221 66.7859 64.6291 44.8313 64.6291 44.7737C64.4509 44.2658 64.2092 43.7824 63.9098 43.335C62.802 40.8317 61.2194 37.3932 61.6942 34.6165C62.0932 32.3274 63.236 30.2339 64.9456 28.6603C64.0657 29.0521 63.1072 29.2355 62.1447 29.1962C61.1823 29.1569 60.2419 28.896 59.3968 28.4338C58.5517 27.9716 57.8247 27.3205 57.2725 26.5313C56.7202 25.7421 56.3575 24.8361 56.2127 23.8838C56.2127 24.8765 55.3351 25.6102 54.5007 26.1569C53.2685 27.1154 51.7454 27.6231 50.1846 27.5956C48.1416 27.3654 46.6166 25.6246 44.7031 24.8765C44.9989 25.5327 45.0484 26.2736 44.8422 26.9633C44.6361 27.6529 44.1883 28.2452 43.5809 28.6315C42.3331 29.3703 40.8444 29.5874 39.4375 29.2358C40.3727 29.4228 39.5814 39.8246 39.567 40.7454C39.4351 43.9696 39.512 47.1991 39.7972 50.4134C40.4878 56.1539 47.6956 57.6501 47.6956 57.6501Z" fill="white"/>
<path d="M53.9433 73.6054C47.7713 73.6054 45.8146 67.6779 45.8002 67.606C45.7788 67.5064 45.7788 67.4034 45.8002 67.3039L46.8937 58.1969C45.009 57.6502 39.7002 55.6648 39.0671 50.3416C38.792 47.3431 38.7103 44.3299 38.8225 41.3209V40.5728C38.8225 40.4289 38.8225 40.0261 38.8225 39.4506C39.2397 32.4729 39.1103 30.2861 38.9088 29.7106C38.8023 29.6306 38.7211 29.5215 38.6752 29.3964C38.6292 29.2713 38.6204 29.1356 38.6499 29.0056C38.6652 28.9127 38.6994 28.8239 38.7503 28.7447C38.8012 28.6654 38.8678 28.5974 38.9459 28.5449C39.0241 28.4923 39.1122 28.4563 39.2048 28.4391C39.2974 28.4218 39.3925 28.4237 39.4844 28.4445C40.7067 28.7423 41.9964 28.5676 43.0955 27.9554C43.5628 27.6609 43.9096 27.2091 44.0731 26.6815C44.2367 26.1539 44.2063 25.5852 43.9875 25.078C43.9145 24.9484 43.8836 24.7994 43.8989 24.6515C43.9141 24.5036 43.9747 24.3641 44.0725 24.2521C44.1703 24.1401 44.3005 24.0612 44.445 24.0261C44.5894 23.9911 44.7413 24.0017 44.8795 24.0565C45.6893 24.4077 46.4607 24.8416 47.1814 25.3513C48.0603 26.0548 49.0891 26.547 50.1883 26.79C51.5753 26.8007 52.9264 26.3503 54.0296 25.5096C54.9648 24.9053 55.4683 24.3586 55.4683 23.8407C55.4713 23.6582 55.5423 23.4833 55.6673 23.3503C55.7924 23.2173 55.9625 23.1356 56.1445 23.1214C56.3249 23.1048 56.5047 23.1584 56.6467 23.2709C56.7887 23.3834 56.8819 23.5462 56.907 23.7256C57.0233 24.5758 57.3355 25.3874 57.8191 26.0962C58.3027 26.8051 58.9443 27.392 59.6935 27.8105C60.4426 28.229 61.2787 28.4678 62.1359 28.5079C62.9931 28.548 63.8479 28.3884 64.6328 28.0417C64.7876 27.9695 64.9634 27.9559 65.1275 28.0035C65.2916 28.0512 65.4327 28.1568 65.5248 28.3007C65.6174 28.443 65.6566 28.6136 65.6356 28.7821C65.6145 28.9506 65.5345 29.1062 65.4097 29.2214C63.8079 30.683 62.7395 32.6374 62.374 34.7748C61.9568 37.235 63.3812 40.5296 64.417 42.8028L64.5465 43.0761C64.6058 43.2049 64.6731 43.3298 64.7479 43.4502C65.0593 43.8729 65.2574 44.3681 65.3234 44.8889C65.3234 44.8889 65.3234 44.8889 64.3163 66.9442C64.3163 67.1312 64.1293 71.8358 56.2308 73.4759C55.4749 73.5984 54.7082 73.6418 53.9433 73.6054ZM47.2102 67.3039C47.7949 69.0263 49.0104 70.4633 50.6121 71.3255C52.2137 72.1878 54.0826 72.4112 55.8424 71.9509C62.5467 70.5122 62.7769 66.9154 62.7913 66.7572C62.8057 66.5989 63.784 45.0615 63.7984 44.745C63.7984 44.745 63.5538 44.3134 63.4387 44.112C63.3232 43.9434 63.2221 43.7653 63.1366 43.5797L63.0215 43.3207C61.9137 40.7886 60.3887 37.3501 60.8778 34.4583C61.1531 32.797 61.8079 31.2215 62.7913 29.8545C61.4539 29.935 60.12 29.6463 58.9356 29.02C57.6292 28.2784 56.5878 27.1465 55.9575 25.7829C55.6006 26.138 55.2048 26.4517 54.7777 26.7181C53.3944 27.7248 51.7104 28.232 50.0013 28.1568C48.6831 27.9115 47.4411 27.3595 46.3757 26.5455L45.5988 26.0419C45.5572 26.643 45.3804 27.227 45.0814 27.7501C44.7825 28.2733 44.3691 28.7222 43.8724 29.0632C42.838 29.7251 41.6145 30.0285 40.3907 29.9264C40.5805 33.1053 40.5276 36.2941 40.2325 39.465C40.2325 40.0117 40.2325 40.3858 40.2325 40.5296V41.2634C40.1268 44.2149 40.2085 47.1702 40.4771 50.1114C41.0957 55.4202 47.6706 56.8589 47.8 56.8733C47.9738 56.9143 48.1267 57.0173 48.23 57.163C48.3333 57.3086 48.3799 57.487 48.3611 57.6646L47.2102 67.3039Z" fill="#231F20"/>
<path d="M46.3473 39.7815C46.3473 39.7815 42.0312 45.4068 42.9376 46.5002C43.844 47.5936 46.3905 47.1045 46.3905 47.1045" fill="white"/>
<path d="M45.1256 47.9246C44.6298 47.9608 44.1321 47.8881 43.6673 47.7116C43.2026 47.5352 42.7821 47.2592 42.4352 46.9031C41.4569 45.6371 43.7588 42.0835 45.8449 39.3212C45.9594 39.1686 46.1298 39.0677 46.3187 39.0407C46.5075 39.0137 46.6994 39.0628 46.852 39.1773C46.9292 39.2327 46.9944 39.3032 47.0436 39.3845C47.0929 39.4657 47.1252 39.5561 47.1386 39.6502C47.1521 39.7443 47.1464 39.8401 47.1218 39.9319C47.0973 40.0237 47.0545 40.1096 46.9959 40.1844C45.0824 42.7309 43.4999 45.4932 43.615 46.1119C43.9602 46.5291 45.4421 46.5291 46.3197 46.3708C46.4123 46.3519 46.5077 46.3514 46.6004 46.3694C46.6932 46.3873 46.7815 46.4234 46.8604 46.4755C46.9392 46.5276 47.007 46.5948 47.0598 46.6731C47.1127 46.7514 47.1497 46.8393 47.1685 46.9319C47.1873 47.0255 47.1872 47.1219 47.1683 47.2155C47.1495 47.309 47.1122 47.3979 47.0586 47.4769C47.005 47.5559 46.9363 47.6234 46.8564 47.6756C46.7764 47.7278 46.687 47.7635 46.5931 47.7808C46.1094 47.8739 45.6181 47.922 45.1256 47.9246Z" fill="#231F20"/>
<path d="M47.7009 57.6502C47.7009 57.6502 53.4557 57.6502 56.0885 56.0964C56.0885 56.0964 53.8441 62.8152 47.6289 64.4697L47.7009 57.6502Z" fill="#231F20"/>
<path d="M47.63 65.1889C47.4694 65.1921 47.3124 65.1414 47.184 65.045C47.0955 64.9781 47.0246 64.8909 46.977 64.7907C46.9294 64.6905 46.9066 64.5804 46.9106 64.4696L46.9826 57.6501C46.9826 57.4593 47.0584 57.2764 47.1933 57.1415C47.3282 57.0066 47.5111 56.9308 47.7019 56.9308C48.004 56.9308 53.2985 56.9308 55.7155 55.4921C55.8359 55.4085 55.979 55.3638 56.1255 55.3638C56.2721 55.3638 56.4151 55.4085 56.5355 55.4921C56.6471 55.5869 56.7285 55.7125 56.7694 55.8532C56.8103 55.9938 56.809 56.1434 56.7657 56.2834C56.665 56.5711 54.3199 63.3761 47.8026 65.1314L47.63 65.1889ZM48.4069 58.3695V63.4912C51.1694 62.3046 53.4188 60.1725 54.7515 57.4775C52.6831 58.0488 50.5522 58.3629 48.4069 58.4126V58.3695Z" fill="#231F20"/>
<path d="M95.8083 140.188H95.7364C94.8012 140.073 72.933 137.541 65.9841 133.642C65.9006 133.597 65.827 133.536 65.7677 133.462C65.7085 133.388 65.6648 133.303 65.6393 133.211C65.6138 133.12 65.6069 133.024 65.6192 132.93C65.6315 132.836 65.6626 132.746 65.7107 132.664C65.807 132.501 65.9626 132.381 66.1449 132.331C66.3272 132.28 66.5222 132.301 66.689 132.391C73.379 136.146 95.6789 138.721 95.8947 138.75C96.0854 138.761 96.2639 138.848 96.3907 138.991C96.5175 139.134 96.5823 139.321 96.5708 139.512C96.5594 139.703 96.4726 139.881 96.3296 140.008C96.1866 140.135 95.9991 140.2 95.8083 140.188Z" fill="#231F20"/>
<path d="M89.9807 73.8499C89.9807 73.8499 133.372 135.714 114.784 151.712C97.7497 166.344 60.1133 142.044 60.1133 142.044L62.3864 121.5C62.3864 121.5 92.1819 138.088 92.6711 130.362C93.376 118.996 78.7732 103.473 78.7732 103.473C77.4605 100.956 76.6668 98.2003 76.4395 95.3705C76.2121 92.5407 76.5556 89.6941 77.4496 86.9996C78.2993 83.9479 79.8868 81.1523 82.0722 78.859C84.2575 76.5658 86.9735 74.8455 89.9807 73.8499Z" fill="#57BE85"/>
<path d="M22.2883 123.715C22.1947 123.701 22.1049 123.669 22.0238 123.62C21.9428 123.571 21.8721 123.507 21.816 123.43C21.7599 123.354 21.7194 123.268 21.6967 123.176C21.6741 123.084 21.6697 122.989 21.684 122.895C23.022 113.918 29.453 79.6334 29.525 79.2881C29.5633 79.1032 29.6714 78.9403 29.8269 78.8331C29.9823 78.7259 30.173 78.6828 30.3594 78.7126C30.5472 78.7509 30.7125 78.8612 30.82 79.0198C30.9276 79.1784 30.9688 79.3728 30.9349 79.5614C30.863 79.9067 24.432 114.09 23.1084 123.111C23.0765 123.298 22.9732 123.466 22.8203 123.579C22.6673 123.691 22.4766 123.74 22.2883 123.715Z" fill="#231F20"/>
<path d="M16.232 150.835H59.4937C60.2995 150.82 61.092 150.626 61.8137 150.267C62.5355 149.909 63.1685 149.394 63.6669 148.761C64.1653 148.127 64.5167 147.391 64.6957 146.605C64.8747 145.819 64.8768 145.003 64.7018 144.217L55.5085 99.7464C55.245 98.4707 54.5566 97.3222 53.5557 96.4885C52.5548 95.6548 51.3006 95.1854 49.9983 95.157H7.36959C6.51538 95.1707 5.67494 95.3744 4.90925 95.7533C4.14357 96.1323 3.47182 96.677 2.94285 97.3478C2.41387 98.0187 2.0409 98.7989 1.851 99.6319C1.6611 100.465 1.65904 101.33 1.84496 102.163L11.0239 146.49C11.2565 147.704 11.9024 148.801 12.8518 149.593C13.8012 150.385 14.9956 150.824 16.232 150.835Z" fill="white"/>
<path d="M59.4947 151.482H16.233C14.8481 151.463 13.5115 150.97 12.446 150.086C11.3805 149.201 10.6504 147.977 10.3775 146.619L1.21299 102.293C1.01014 101.339 1.02374 100.351 1.25279 99.4022C1.48185 98.4536 1.9205 97.5684 2.53657 96.8117C3.11912 96.0901 3.85542 95.5077 4.69173 95.107C5.52804 94.7063 6.44327 94.4973 7.37063 94.4954H49.9993C51.4566 94.5164 52.8627 95.0362 53.9832 95.9682C55.1037 96.9002 55.8709 98.188 56.157 99.6171L65.3503 144.073C65.5431 144.979 65.5308 145.918 65.3143 146.819C65.0977 147.72 64.6823 148.561 64.0986 149.281C63.5422 149.966 62.8405 150.519 62.0443 150.9C61.2481 151.28 60.3773 151.479 59.4947 151.482ZM7.37063 95.819C6.63895 95.819 5.91658 95.9832 5.25675 96.2994C4.59692 96.6156 4.01646 97.0758 3.55808 97.6461C3.07577 98.2439 2.73045 98.9402 2.5465 99.686C2.36255 100.432 2.34442 101.209 2.49342 101.962L11.6723 146.303C11.8801 147.365 12.4466 148.324 13.2769 149.018C14.1072 149.712 15.1509 150.099 16.233 150.116H59.4947C60.1826 150.112 60.8609 149.955 61.4806 149.656C62.1002 149.358 62.6456 148.925 63.0771 148.389C63.539 147.824 63.868 147.162 64.0398 146.452C64.2116 145.742 64.2219 145.003 64.0698 144.289L54.8622 99.8186C54.6384 98.6879 54.0334 97.6682 53.1484 96.9298C52.2634 96.1914 51.1518 95.779 49.9993 95.7614L7.37063 95.819Z" fill="#231F20"/>
<path d="M68.3991 128.506C68.6489 126.951 68.5307 125.36 68.0539 123.859C67.5824 122.851 66.9344 121.935 66.1404 121.154C64.7898 119.716 63.3482 118.365 61.8243 117.112C60.3856 115.989 58.7598 114.896 57.0334 115.27C57.566 117.848 59.0247 120.141 61.1337 121.715C60.4441 120.892 59.5291 120.287 58.5009 119.975C57.8103 119.759 56.8752 119.788 56.5874 120.478C56.5211 120.7 56.5009 120.933 56.5281 121.164C56.5554 121.394 56.6294 121.616 56.7457 121.816C57.5508 123.597 58.787 125.15 60.3424 126.334L58.6735 125.269C58.2474 124.956 57.7553 124.744 57.2348 124.65C56.9786 124.609 56.7158 124.65 56.4852 124.77C56.2545 124.889 56.0684 125.079 55.9544 125.312C55.8494 125.702 55.8904 126.116 56.0695 126.478C56.504 127.514 57.2221 128.407 58.1412 129.053C57.5398 128.539 56.8166 128.187 56.0407 128.031C55.6488 127.973 55.2488 128.056 54.9135 128.268C54.5781 128.479 54.3298 128.803 54.2136 129.182C54.1706 129.616 54.2609 130.053 54.4725 130.434C55.7098 132.894 58.6591 133.168 60.0978 135.239C61.1769 136.779 60.6733 138.433 62.8602 139.368C68.3272 141.627 68.097 131.786 68.3991 128.506Z" fill="white"/>
<path d="M64.4435 140.419C63.8275 140.409 63.2201 140.271 62.6596 140.016C62.0511 139.77 61.5118 139.379 61.0882 138.878C60.6646 138.376 60.3694 137.779 60.2281 137.138C60.0817 136.631 59.8638 136.146 59.5808 135.7C58.9308 134.915 58.1217 134.278 57.2069 133.829C55.834 133.177 54.6869 132.13 53.9123 130.822C53.6063 130.302 53.4894 129.692 53.5814 129.096C53.7078 128.615 53.986 128.187 54.3747 127.876C54.7634 127.565 55.2419 127.387 55.7394 127.37C55.6413 127.188 55.5548 127.001 55.4804 126.809C55.2205 126.28 55.1741 125.672 55.351 125.111C55.4996 124.767 55.7473 124.475 56.0625 124.273C56.3777 124.07 56.746 123.966 57.1205 123.974C56.7364 123.401 56.4042 122.794 56.1278 122.162C55.9629 121.874 55.8621 121.554 55.8324 121.224C55.8026 120.893 55.8445 120.561 55.9552 120.248C56.1207 119.905 56.3871 119.62 56.7188 119.432C57.0505 119.245 57.4316 119.163 57.8111 119.198C57.1245 118.061 56.6379 116.816 56.3724 115.515C56.3313 115.421 56.3102 115.319 56.3107 115.217C56.3112 115.114 56.3331 115.013 56.3751 114.919C56.4171 114.826 56.4783 114.742 56.5546 114.674C56.631 114.605 56.7209 114.554 56.8184 114.522C58.8758 114.09 60.7748 115.356 62.1992 116.507C63.7588 117.777 65.2297 119.152 66.6016 120.622C67.4555 121.449 68.1526 122.424 68.659 123.5C69.1889 125.098 69.3222 126.801 69.0474 128.463C69.0474 128.88 69.0474 129.398 68.9467 129.988C68.774 133.297 68.4863 138.289 66.0693 139.829C65.5956 140.178 65.031 140.383 64.4435 140.419ZM55.9264 128.722C55.7302 128.709 55.5348 128.758 55.3673 128.861C55.1997 128.964 55.0684 129.117 54.9913 129.297C54.9778 129.58 55.0478 129.86 55.1927 130.103C55.8501 131.157 56.7999 131.997 57.9262 132.52C59.0472 133.053 60.0314 133.836 60.8036 134.808C61.1744 135.375 61.4559 135.996 61.6381 136.649C61.7067 137.102 61.8929 137.529 62.1782 137.888C62.4634 138.246 62.8378 138.524 63.2638 138.692C63.5828 138.87 63.9418 138.963 64.3068 138.963C64.6719 138.963 65.031 138.87 65.3499 138.692C67.1915 137.541 67.4648 132.635 67.6231 130.06C67.6231 129.441 67.6231 128.895 67.7238 128.477C67.9624 127.035 67.8589 125.557 67.4216 124.161C66.9902 123.23 66.3903 122.386 65.6521 121.672C64.3024 120.255 62.8605 118.929 61.336 117.702C60.3902 116.803 59.207 116.194 57.9262 115.946C58.3867 117.464 59.1946 118.853 60.2857 120.003C60.8264 120.333 61.3119 120.746 61.7244 121.226C61.8437 121.359 61.9097 121.53 61.9097 121.708C61.9097 121.886 61.8437 122.058 61.7244 122.19C61.6057 122.321 61.4422 122.402 61.2664 122.418C61.0906 122.434 60.9152 122.384 60.7749 122.277C60.2951 121.928 59.843 121.544 59.4225 121.126C59.0841 120.919 58.7217 120.755 58.3434 120.636C57.8831 120.507 57.3795 120.55 57.3076 120.737C57.2663 121.002 57.3226 121.273 57.4659 121.5C58.21 123.177 59.3685 124.638 60.8324 125.744C60.9082 125.797 60.9725 125.864 61.0216 125.943C61.0707 126.021 61.1037 126.108 61.1184 126.2C61.1332 126.291 61.1295 126.384 61.1075 126.474C61.0856 126.564 61.0458 126.648 60.9907 126.722C60.8854 126.876 60.7246 126.983 60.5422 127.02C60.3597 127.058 60.1698 127.023 60.0123 126.924L58.3434 125.873C58.0212 125.623 57.648 125.446 57.25 125.355C57.1513 125.333 57.0483 125.341 56.9537 125.376C56.8591 125.412 56.7771 125.475 56.7177 125.557C56.6879 125.775 56.7282 125.996 56.8328 126.19C57.1805 127.037 57.7525 127.773 58.4873 128.319L58.66 128.449C58.7373 128.502 58.8032 128.57 58.8539 128.649C58.9046 128.728 58.9389 128.816 58.955 128.909C58.9711 129.001 58.9686 129.096 58.9475 129.187C58.9265 129.279 58.8874 129.365 58.8326 129.441C58.7249 129.597 58.5604 129.703 58.3746 129.738C58.1888 129.773 57.9967 129.734 57.8399 129.628L57.6529 129.499C57.1949 129.12 56.6518 128.859 56.0703 128.736L55.9264 128.722Z" fill="#231F20"/>
<path d="M2.52683 125.413C2.74264 122.435 3.63462 119.14 6.15234 117.644C6.93088 117.196 7.80973 116.952 8.70752 116.935C9.60532 116.917 10.493 117.126 11.2885 117.543C11.4345 117.6 11.5658 117.689 11.6729 117.804C11.7799 117.918 11.86 118.055 11.9071 118.205C12.0079 118.68 11.5762 119.068 11.1878 119.313C10.3552 119.835 9.44803 120.228 8.49743 120.478C9.27171 120.415 10.0465 120.594 10.7142 120.991C11.382 121.388 11.9095 121.983 12.2237 122.694C11.2862 123.796 9.97459 124.513 8.54059 124.708C9.01688 124.581 9.52037 124.601 9.98505 124.765C10.4497 124.93 10.8539 125.231 11.1446 125.629C12.0798 126.981 11.3317 127.355 10.3102 128.161C10.7589 128.065 11.2261 128.11 11.6482 128.29C11.8619 128.387 12.0417 128.546 12.1647 128.746C12.2878 128.946 12.3483 129.178 12.3387 129.412C12.2668 130.276 11.2166 130.549 10.4828 130.981C9.8914 131.34 9.44372 131.895 9.21678 132.549C9.13374 132.924 9.01324 133.291 8.85711 133.642C7.41841 136.217 4.22451 134.074 3.43322 132.203C2.62244 130.037 2.31256 127.716 2.52683 125.413Z" fill="white"/>
<path d="M6.98519 135.556H6.81255C5.94426 135.434 5.12045 135.096 4.41662 134.574C3.71279 134.051 3.15148 133.359 2.7842 132.563C1.92437 130.269 1.59005 127.811 1.80588 125.37C2.00729 122.492 2.85613 118.766 5.79108 117.025C6.67383 116.516 7.67092 116.239 8.68965 116.219C9.70838 116.199 10.7157 116.437 11.6178 116.91C11.8595 117.015 12.0745 117.172 12.2464 117.372C12.4183 117.571 12.5428 117.807 12.6105 118.061C12.6968 118.464 12.6105 119.227 11.5746 119.917L10.9416 120.291C11.8072 120.759 12.491 121.504 12.8839 122.406C12.9345 122.53 12.9505 122.664 12.9302 122.796C12.91 122.928 12.8542 123.052 12.7688 123.154C12.3031 123.724 11.7436 124.211 11.1143 124.593C11.3557 124.778 11.5647 125.001 11.7329 125.255C12.5098 126.363 12.3803 127.111 11.9631 127.672C12.3071 127.832 12.5951 128.092 12.79 128.418C12.9849 128.743 13.0777 129.12 13.0565 129.499C12.9702 130.564 12.0207 131.038 11.3445 131.369L10.8553 131.628C10.4058 131.893 10.0682 132.312 9.90579 132.808C9.8637 132.915 9.83002 133.026 9.80507 133.139C9.7401 133.444 9.6336 133.74 9.48855 134.016C9.24814 134.474 8.88874 134.859 8.44821 135.13C8.00768 135.401 7.50228 135.548 6.98519 135.556ZM3.2446 125.485C3.04054 127.693 3.33049 129.92 4.09343 132.002C4.3601 132.552 4.75349 133.03 5.24125 133.398C5.72901 133.766 6.29715 134.012 6.89887 134.117C7.17734 134.125 7.45201 134.051 7.68952 133.906C7.92703 133.76 8.11721 133.549 8.23689 133.297C8.31664 133.121 8.37924 132.938 8.42389 132.75C8.42389 132.607 8.49585 132.477 8.53901 132.333C8.81486 131.512 9.37652 130.818 10.1216 130.377L10.6971 130.06C11.2438 129.801 11.6034 129.6 11.6322 129.355C11.661 129.11 11.5027 129.039 11.3301 128.952C11.0411 128.842 10.7265 128.817 10.4237 128.88C10.2685 128.903 10.1103 128.874 9.9731 128.798C9.83592 128.722 9.72731 128.603 9.66378 128.46C9.60026 128.316 9.5853 128.156 9.62119 128.004C9.65708 127.851 9.74184 127.714 9.86259 127.614L10.1359 127.398C11.0136 126.722 11.0136 126.722 10.5532 126.06C10.0928 125.399 9.61804 125.312 8.63973 125.442C8.54485 125.456 8.4481 125.45 8.35539 125.426C8.26268 125.401 8.17594 125.358 8.10052 125.299C8.0251 125.24 7.96255 125.166 7.91673 125.081C7.87091 124.997 7.8428 124.904 7.83406 124.809C7.80955 124.62 7.86087 124.429 7.97684 124.278C8.0928 124.127 8.26394 124.028 8.45269 124.003C9.54302 123.85 10.5534 123.345 11.3301 122.564C11.0563 122.085 10.6502 121.694 10.1604 121.439C9.67059 121.184 9.11771 121.075 8.56777 121.126C8.38761 121.147 8.20595 121.1 8.05921 120.993C7.91247 120.886 7.8115 120.728 7.7765 120.55C7.74101 120.371 7.77475 120.186 7.87089 120.031C7.96704 119.876 8.11841 119.763 8.29441 119.716C9.17314 119.482 10.012 119.118 10.7834 118.637C11.0711 118.464 11.1718 118.32 11.1862 118.263L10.9273 118.104C10.2444 117.742 9.48049 117.56 8.70765 117.575C7.93481 117.59 7.17859 117.802 6.51043 118.191C4.1078 119.629 3.40284 122.895 3.2302 125.384L3.2446 125.485Z" fill="#231F20"/>
<path d="M39.999 42.4286C38.9462 42.4286 37.917 42.1164 37.0416 41.5315C36.1662 40.9466 35.4839 40.1152 35.081 39.1425C34.6781 38.1698 34.5727 37.0995 34.7781 36.0669C34.9835 35.0343 35.4904 34.0858 36.2349 33.3414C36.9794 32.5969 37.9279 32.0899 38.9605 31.8845C39.9931 31.6791 41.0634 31.7845 42.0361 32.1874C43.0088 32.5903 43.8401 33.2726 44.4251 34.148C45.01 35.0234 45.3222 36.0526 45.3222 37.1054C45.3184 38.5161 44.7563 39.8678 43.7588 40.8653C42.7614 41.8628 41.4096 42.4248 39.999 42.4286ZM39.999 33.2209C39.2307 33.2209 38.4797 33.4487 37.8409 33.8756C37.2021 34.3024 36.7042 34.9091 36.4102 35.6189C36.1162 36.3287 36.0392 37.1097 36.1891 37.8632C36.339 38.6168 36.709 39.3089 37.2522 39.8522C37.7955 40.3954 38.4877 40.7654 39.2412 40.9153C39.9947 41.0652 40.7757 40.9882 41.4855 40.6942C42.1953 40.4002 42.802 39.9023 43.2288 39.2635C43.6556 38.6247 43.8835 37.8737 43.8835 37.1054C43.8797 36.0764 43.4692 35.0905 42.7415 34.3629C42.0139 33.6352 41.028 33.2247 39.999 33.2209Z" fill="#231F20"/>
<path d="M51.8583 42.4286C50.8055 42.4286 49.7763 42.1164 48.9009 41.5315C48.0256 40.9466 47.3433 40.1152 46.9404 39.1425C46.5375 38.1698 46.432 37.0995 46.6374 36.0669C46.8428 35.0343 47.3499 34.0858 48.0943 33.3414C48.8388 32.5969 49.7872 32.0899 50.8198 31.8845C51.8524 31.6791 52.9228 31.7845 53.8955 32.1874C54.8682 32.5903 55.6995 33.2726 56.2844 34.148C56.8694 35.0234 57.1816 36.0526 57.1816 37.1054C57.1816 38.5172 56.6207 39.8712 55.6224 40.8695C54.6241 41.8678 53.2701 42.4286 51.8583 42.4286ZM51.8583 33.2209C51.0901 33.2209 50.3391 33.4487 49.7003 33.8756C49.0614 34.3024 48.5635 34.9091 48.2695 35.6189C47.9755 36.3287 47.8986 37.1097 48.0485 37.8632C48.1984 38.6168 48.5684 39.3089 49.1116 39.8522C49.6549 40.3954 50.347 40.7654 51.1005 40.9153C51.8541 41.0652 52.6351 40.9882 53.3449 40.6942C54.0547 40.4002 54.6614 39.9023 55.0882 39.2635C55.5151 38.6247 55.7429 37.8737 55.7429 37.1054C55.7429 36.0752 55.3336 35.0872 54.6051 34.3587C53.8766 33.6302 52.8886 33.2209 51.8583 33.2209Z" fill="#231F20"/>
<path d="M47.0962 51.2192C45.2542 51.1825 43.4444 50.73 41.8018 49.8956C41.6388 49.7993 41.5194 49.6437 41.4685 49.4614C41.4175 49.2791 41.439 49.0842 41.5285 48.9173C41.6221 48.7515 41.7778 48.6297 41.9611 48.5784C42.1445 48.5272 42.3407 48.5508 42.5068 48.644C42.7801 48.7878 49.1824 52.2983 53.0956 46.3708C53.2006 46.2105 53.3649 46.0985 53.5524 46.0594C53.7399 46.0203 53.9353 46.0573 54.0955 46.1622C54.2558 46.2671 54.3678 46.4314 54.4069 46.6189C54.446 46.8065 54.4091 47.0018 54.3041 47.1621C53.5611 48.4084 52.5049 49.4387 51.2404 50.1504C49.9759 50.8621 48.5472 51.2306 47.0962 51.2192Z" fill="#231F20"/>
<path d="M47.2494 37.8247H44.6022C44.4114 37.8247 44.2284 37.7489 44.0935 37.614C43.9586 37.4791 43.8828 37.2961 43.8828 37.1053C43.8828 36.9146 43.9586 36.7316 44.0935 36.5967C44.2284 36.4618 44.4114 36.386 44.6022 36.386H47.2494C47.4402 36.386 47.6231 36.4618 47.758 36.5967C47.8929 36.7316 47.9687 36.9146 47.9687 37.1053C47.965 37.295 47.888 37.4758 47.7539 37.6099C47.6198 37.744 47.439 37.821 47.2494 37.8247Z" fill="#231F20"/>
<path d="M67.0796 40.7021C67.018 40.7158 66.9542 40.7158 66.8926 40.7021L56.275 37.8247C56.0842 37.7751 55.921 37.6517 55.8211 37.4817C55.7213 37.3118 55.6931 37.1091 55.7427 36.9183C55.7923 36.7275 55.9156 36.5642 56.0856 36.4644C56.2556 36.3646 56.4583 36.3364 56.6491 36.386L67.2667 39.2634C67.4493 39.3139 67.6045 39.4344 67.6988 39.5987C67.7931 39.763 67.8187 39.9579 67.7702 40.141C67.7371 40.2996 67.6504 40.4421 67.5246 40.5443C67.3988 40.6464 67.2417 40.7022 67.0796 40.7021Z" fill="#231F20"/>
<path d="M61.1367 41.7093C61.4215 40.6842 62.0264 39.7768 62.8632 39.1196C63.5014 38.5808 64.2477 38.1851 65.0518 37.9593C65.856 37.7334 66.6991 37.6827 67.5246 37.8104C68.3473 38.1579 69.0281 38.7736 69.4565 39.5572C69.8849 40.3409 70.0356 41.2464 69.884 42.1265C69.7654 43.323 69.3258 44.4653 68.6117 45.4327C67.8976 46.4001 66.9354 47.1566 65.8269 47.6223C65.0996 47.8827 64.3274 47.9939 63.5562 47.9494C62.785 47.9049 62.0307 47.7056 61.3382 47.3634" fill="white"/>
<path d="M63.9149 48.6726C62.9166 48.6711 61.932 48.4397 61.0375 47.9964C60.9522 47.9552 60.8762 47.8972 60.8138 47.826C60.7515 47.7547 60.7041 47.6716 60.6746 47.5817C60.645 47.4917 60.6339 47.3967 60.6419 47.3023C60.6499 47.208 60.6767 47.1162 60.721 47.0325C60.7624 46.9473 60.8202 46.8712 60.8911 46.8085C60.9621 46.7457 61.0447 46.6976 61.1343 46.6669C61.2238 46.6361 61.3186 46.6234 61.4131 46.6293C61.5075 46.6353 61.5999 46.6598 61.6849 46.7016C62.2909 47 62.95 47.1754 63.6242 47.2173C64.2984 47.2593 64.9742 47.1671 65.6125 46.9461C66.5923 46.5195 67.4415 45.8406 68.0733 44.9788C68.7052 44.1169 69.0971 43.1029 69.2093 42.0402C69.3355 41.328 69.2218 40.5941 68.8859 39.9536C68.55 39.313 68.011 38.8021 67.3534 38.501C66.6359 38.412 65.9078 38.4721 65.2146 38.6776C64.5214 38.8831 63.8781 39.2295 63.325 39.6951C62.6237 40.2573 62.1198 41.0283 61.8863 41.8963C61.8608 41.9908 61.8169 42.0793 61.7572 42.1568C61.6975 42.2343 61.6231 42.2993 61.5383 42.3481C61.4535 42.3968 61.3598 42.4284 61.2628 42.441C61.1658 42.4536 61.0672 42.4469 60.9728 42.4214C60.8783 42.3959 60.7898 42.3521 60.7123 42.2924C60.6348 42.2326 60.5697 42.1582 60.521 42.0734C60.4722 41.9886 60.4407 41.895 60.4281 41.7979C60.4155 41.7009 60.4221 41.6023 60.4476 41.5079C60.7832 40.3641 61.4734 39.3566 62.4187 38.6305C63.1457 38.019 63.9973 37.5735 64.9142 37.3251C65.8311 37.0766 66.7912 37.0311 67.7274 37.1918C68.7108 37.5837 69.5316 38.2987 70.0545 39.2191C70.5775 40.1396 70.7716 41.2106 70.6048 42.256C70.4753 43.5829 69.988 44.8498 69.1949 45.9216C68.4019 46.9934 67.3328 47.8298 66.1017 48.3417C65.3979 48.5798 64.6576 48.6918 63.9149 48.6726Z" fill="#231F20"/>
<path d="M88.2263 132.664C81.5939 132.664 71.8827 127.298 70.4872 126.506C70.405 126.459 70.3329 126.396 70.275 126.321C70.2172 126.246 70.1747 126.16 70.15 126.069C70.1252 125.977 70.1188 125.882 70.131 125.788C70.1432 125.694 70.1738 125.603 70.221 125.521C70.2682 125.439 70.3312 125.367 70.4063 125.309C70.4814 125.251 70.5671 125.208 70.6586 125.184C70.7501 125.159 70.8456 125.153 70.9396 125.165C71.0337 125.177 71.1243 125.208 71.2065 125.255C75.8535 127.902 88.6867 133.887 92.0677 129.902C95.4486 125.917 85.3202 106.192 81.1192 98.9409C81.0458 98.7786 81.0353 98.5949 81.0896 98.4253C81.1439 98.2557 81.2592 98.1123 81.4131 98.0228C81.5671 97.9333 81.7487 97.904 81.923 97.9408C82.0973 97.9775 82.2517 98.0775 82.3564 98.2216C83.9534 100.984 97.88 125.284 93.1755 130.823C92.5357 131.473 91.7609 131.975 90.9057 132.294C90.0505 132.612 89.1358 132.738 88.2263 132.664Z" fill="#231F20"/>
<path d="M93.2917 157.122H93.191C82.559 155.525 68.7331 147.051 68.1288 146.734C68.0484 146.684 67.9786 146.619 67.9235 146.542C67.8684 146.465 67.829 146.378 67.8077 146.286C67.7863 146.194 67.7833 146.098 67.7989 146.005C67.8145 145.911 67.8484 145.822 67.8987 145.742C67.9472 145.66 68.0119 145.589 68.0887 145.532C68.1656 145.476 68.253 145.436 68.3458 145.414C68.4386 145.393 68.5348 145.39 68.6285 145.407C68.7223 145.424 68.8117 145.459 68.8914 145.511C69.0209 145.583 83.0626 154.144 93.3493 155.712C93.4431 155.722 93.5338 155.752 93.6157 155.799C93.6977 155.845 93.7692 155.908 93.8258 155.984C93.8824 156.059 93.9229 156.146 93.9449 156.238C93.9669 156.329 93.9698 156.425 93.9535 156.518C93.9278 156.678 93.8484 156.826 93.7282 156.935C93.608 157.045 93.4541 157.111 93.2917 157.122Z" fill="#231F20"/>
</svg>
