<svg width="217" height="306" viewBox="0 0 217 306" fill="none" xmlns="http://www.w3.org/2000/svg">
<path d="M214.532 48.5923C214.421 48.594 214.312 48.5702 214.212 48.5228C214.112 48.4754 214.025 48.4056 213.956 48.3189C213.844 48.1667 213.794 47.977 213.818 47.7894C213.843 47.6017 213.938 47.4306 214.086 47.3118C214.705 46.8543 215.425 46.5532 216.186 46.4342C216.281 46.4222 216.377 46.4291 216.469 46.4545C216.56 46.4799 216.646 46.5233 216.721 46.5822C216.796 46.6411 216.859 46.7143 216.905 46.7976C216.952 46.8808 216.981 46.9725 216.992 47.0673C217.012 47.2554 216.96 47.4443 216.844 47.5945C216.729 47.7446 216.56 47.8444 216.373 47.8729C215.855 47.9482 215.362 48.1454 214.934 48.4484C214.819 48.5387 214.678 48.5892 214.532 48.5923Z" fill="#D1D3D4"/>
<path d="M10.3195 165.086L0.648438 206.189L50.6308 217.949L60.3018 176.846L10.3195 165.086Z" fill="white"/>
<path d="M50.6477 218.618H50.4894L0.508946 206.849C0.424171 206.831 0.343993 206.795 0.273178 206.745C0.202363 206.695 0.142359 206.631 0.0967264 206.557C0.0510943 206.484 0.020771 206.401 0.00755403 206.316C-0.00566289 206.23 -0.00150582 206.142 0.0197873 206.058L9.68786 164.954C9.72887 164.785 9.83494 164.639 9.98306 164.547C10.1312 164.456 10.3094 164.426 10.4791 164.465L60.4596 176.234C60.5446 176.252 60.6253 176.287 60.6969 176.336C60.7685 176.386 60.8296 176.449 60.8768 176.522C60.9654 176.674 60.9912 176.854 60.9488 177.025L51.2807 218.129C51.2392 218.295 51.1363 218.439 50.993 218.532C50.8885 218.593 50.7687 218.623 50.6477 218.618ZM1.4441 205.67L50.1585 217.179L59.5245 177.356L10.8244 165.846L1.4441 205.67Z" fill="#231F20"/>
<path d="M40.7077 157.157C40.7077 157.157 39.8733 178.378 37.672 177.111C34.7946 175.428 35.9888 170.537 35.9888 170.537L26.2344 168.479C26.2344 168.479 30.3778 154.394 30.6512 153.92C30.9245 153.445 40.7077 157.157 40.7077 157.157Z" fill="white"/>
<path d="M37.8551 177.816C37.6726 177.816 37.4936 177.767 37.3372 177.673C34.69 176.147 34.9633 172.551 35.2079 171.055L26.1009 169.127C26.0116 169.105 25.9273 169.066 25.8532 169.012C25.7791 168.958 25.7166 168.889 25.6693 168.81C25.605 168.643 25.605 168.459 25.6693 168.292C27.2231 162.998 29.8847 154.063 30.1581 153.589C30.4314 153.114 30.7048 152.625 41.0059 156.552C41.1371 156.596 41.2504 156.682 41.3283 156.796C41.4063 156.911 41.4446 157.047 41.4375 157.185C41.2073 162.94 40.4592 176.565 38.4162 177.687C38.2467 177.786 38.051 177.831 37.8551 177.816ZM27.0649 167.976L36.1143 169.889C36.2912 169.932 36.4454 170.04 36.5459 170.191C36.6093 170.353 36.6093 170.533 36.5459 170.695C36.5459 170.695 35.5244 174.896 37.74 176.45C38.6896 175.011 39.6103 165.861 39.9556 157.631C36.2582 156.193 32.273 154.855 31.0357 154.596C30.5609 156.193 28.5323 163.012 27.0649 167.976Z" fill="#231F20"/>
<path d="M55.7681 276.411C55.7681 276.411 54.9624 289.704 55.0056 294.74C55.0487 299.775 55.0056 304.509 60.9186 303.372C64.1413 302.782 81.8373 298.308 80.2116 295.013C78.5859 291.719 67.0907 290.87 67.0907 290.87L68.1265 275.677" fill="white"/>
<path d="M59.3478 304.235C58.2734 304.286 57.2165 303.949 56.3697 303.286C54.413 301.674 54.3842 298.408 54.3555 294.956V294.754C54.3555 289.748 55.1036 276.511 55.1036 276.368C55.1091 276.282 55.1313 276.199 55.169 276.123C55.2067 276.046 55.2592 275.978 55.3233 275.922C55.3875 275.866 55.4621 275.823 55.5429 275.796C55.6237 275.768 55.7091 275.757 55.7942 275.763C55.8812 275.765 55.9669 275.784 56.046 275.821C56.1251 275.857 56.1959 275.909 56.2539 275.974C56.312 276.039 56.356 276.115 56.3834 276.197C56.4107 276.28 56.4207 276.367 56.4128 276.454C56.4128 276.583 55.6215 289.776 55.6647 294.74V294.941C55.6647 298.078 55.6647 301.056 57.2041 302.279C57.731 302.619 58.3258 302.84 58.9469 302.927C59.5681 303.014 60.2008 302.965 60.8009 302.782C64.9731 302.005 78.3098 298.293 79.5903 295.747C79.6258 295.688 79.6447 295.621 79.6447 295.553C79.6447 295.484 79.6258 295.417 79.5903 295.358C78.5256 293.215 71.3178 291.906 67.016 291.589C66.843 291.574 66.6826 291.492 66.5695 291.36C66.4565 291.228 66.3998 291.057 66.4118 290.884L67.4476 275.691C67.4623 275.52 67.5419 275.36 67.6702 275.245C67.7986 275.13 67.966 275.068 68.1382 275.073C68.3125 275.087 68.4743 275.169 68.5896 275.301C68.705 275.432 68.7649 275.603 68.7569 275.778L67.7642 290.323C70.4258 290.568 79.2738 291.618 80.7125 294.783C80.8361 295.023 80.9007 295.29 80.9007 295.56C80.9007 295.83 80.8361 296.096 80.7125 296.337C78.7414 300.25 61.1461 304.034 60.9735 304.063C60.4379 304.169 59.8938 304.227 59.3478 304.235Z" fill="#231F20"/>
<path d="M97.1197 277.993C97.1197 277.993 96.314 291.287 96.3571 296.322C96.4003 301.358 96.3571 306.091 102.27 304.955C105.493 304.365 124.584 301.315 122.959 298.02C121.333 294.725 108.442 292.452 108.442 292.452L109.478 277.26" fill="white"/>
<path d="M100.699 305.818C99.6249 305.868 98.5681 305.531 97.7212 304.868C95.7646 303.257 95.7358 299.991 95.707 296.538V296.308C95.707 291.301 96.4552 278.065 96.4552 277.936C96.4663 277.763 96.5449 277.601 96.674 277.485C96.8032 277.369 96.9725 277.309 97.1457 277.317C97.2327 277.319 97.3184 277.338 97.3975 277.374C97.4766 277.411 97.5474 277.463 97.6055 277.528C97.6635 277.592 97.7076 277.668 97.7349 277.751C97.7623 277.834 97.7723 277.921 97.7644 278.008C97.7644 278.137 96.9731 291.344 97.0163 296.293V296.495C97.0163 299.631 97.0163 302.609 98.5557 303.832C99.0826 304.173 99.6773 304.394 100.298 304.481C100.92 304.568 101.552 304.518 102.152 304.336L103.16 304.149C118.021 301.545 121.863 299.689 122.352 298.581C122.352 298.466 122.352 298.408 122.352 298.336C121.273 296.164 113.173 294.02 108.31 293.128C108.15 293.103 108.005 293.018 107.906 292.889C107.807 292.761 107.761 292.599 107.778 292.438L108.814 277.245C108.828 277.073 108.908 276.914 109.036 276.799C109.165 276.684 109.332 276.622 109.504 276.626C109.678 276.641 109.84 276.723 109.956 276.854C110.071 276.986 110.131 277.157 110.123 277.331L109.145 291.992C111.907 292.51 121.978 294.61 123.531 297.747C123.65 297.968 123.712 298.215 123.712 298.466C123.712 298.717 123.65 298.964 123.531 299.185C122.481 301.271 116.338 303.199 103.39 305.458L102.397 305.645C101.837 305.749 101.269 305.807 100.699 305.818Z" fill="#231F20"/>
<path d="M54.057 126.354C54.057 126.354 49.9711 267.98 52.1292 280.094C52.1292 280.094 60.4305 289.46 71.192 284.784L84.8164 169.918L92.01 284.683C92.01 284.683 98.9013 291.531 113.346 280.151V121.347L54.057 126.354Z" fill="#231F20"/>
<path d="M98.2689 287.474C95.8014 287.601 93.3782 286.783 91.4927 285.187C91.3648 285.066 91.2876 284.902 91.2769 284.726L84.6157 177.903L71.9407 284.87C71.9229 284.994 71.8741 285.112 71.7986 285.213C71.7232 285.314 71.6236 285.394 71.5091 285.446C60.3879 290.265 51.6982 280.669 51.6119 280.568C51.5234 280.466 51.4638 280.342 51.4392 280.209C49.31 268.167 53.2088 132.109 53.3671 126.268C53.3766 126.092 53.4486 125.926 53.57 125.8C53.6914 125.673 53.8542 125.594 54.0289 125.577L113.275 120.57C113.374 120.562 113.474 120.575 113.568 120.608C113.662 120.64 113.748 120.692 113.821 120.76C113.894 120.827 113.952 120.909 113.992 121.001C114.031 121.092 114.052 121.19 114.051 121.29V280.151C114.052 280.261 114.028 280.37 113.981 280.47C113.933 280.57 113.864 280.657 113.778 280.727C107.059 286.007 101.909 287.474 98.2689 287.474ZM92.7012 284.338C93.8665 285.287 100.226 289.431 112.613 279.806V122.124L54.7914 127.016C54.5037 137.346 50.8637 267.03 52.8348 279.763C53.9426 280.942 61.1936 288.078 70.5596 284.28L84.1265 169.832C84.1299 169.741 84.152 169.651 84.1914 169.57C84.2308 169.488 84.2867 169.415 84.3555 169.355C84.4244 169.296 84.5047 169.251 84.5916 169.224C84.6784 169.197 84.7699 169.189 84.8603 169.198C85.039 169.201 85.2102 169.271 85.3405 169.393C85.4708 169.516 85.5509 169.682 85.5652 169.86L92.7012 284.338Z" fill="#231F20"/>
<path d="M174.75 65.2382C174.75 65.2382 182.634 60.7782 183.21 60.289C183.785 59.7999 186.533 52.5057 186.979 52.0309C187.425 51.5561 188.533 50.6929 188.907 51.7C189.281 52.7071 188.475 58.3036 188.475 58.3036C188.475 58.3036 198.172 50.7217 198.848 51.1101C199.524 51.4986 200.028 52.3762 198.503 54.5055C197.126 56.153 195.5 57.5753 193.683 58.7209C193.683 58.7209 197.093 62.5478 196.561 63.857C196.028 65.1662 183.094 73.8416 183.094 73.8416" fill="white"/>
<path d="M183.151 74.5321C183.043 74.5348 182.936 74.5098 182.84 74.4595C182.744 74.4091 182.663 74.335 182.604 74.2444C182.555 74.1726 182.52 74.0918 182.502 74.0067C182.484 73.9216 182.483 73.8337 182.5 73.7482C182.516 73.6627 182.548 73.5811 182.596 73.5083C182.643 73.4354 182.705 73.3727 182.777 73.3236C188.906 69.2233 195.524 64.4756 196.013 63.6268C196.171 63.152 194.833 61.0227 193.135 59.1812C193.071 59.1097 193.024 59.0249 192.996 58.9328C192.969 58.8408 192.962 58.7438 192.977 58.6489C192.99 58.5543 193.023 58.4638 193.076 58.3841C193.128 58.3044 193.198 58.2375 193.279 58.1885C195.022 57.0932 196.585 55.7343 197.912 54.1601C198.775 52.9372 198.833 52.3473 198.775 52.1028C198.753 51.997 198.698 51.9012 198.617 51.8294C195.2 53.9404 191.927 56.2763 188.819 58.8215C188.711 58.8957 188.583 58.9355 188.452 58.9355C188.321 58.9355 188.194 58.8957 188.086 58.8215C187.972 58.7553 187.88 58.6574 187.822 58.5399C187.763 58.4223 187.74 58.2902 187.755 58.1597C188.142 56.0924 188.301 53.9889 188.229 51.887C188.143 51.887 187.755 52.0596 187.409 52.4337C187.064 52.8077 186.532 54.3615 185.971 55.7283C184.532 59.2675 183.971 60.4185 183.582 60.7494C183.194 61.0803 176.389 65.0655 174.95 65.7704C174.799 65.8426 174.626 65.8545 174.466 65.8038C174.306 65.7531 174.171 65.6436 174.089 65.4974C174.007 65.3512 173.983 65.1792 174.023 65.0162C174.062 64.8533 174.163 64.7114 174.303 64.6195C177.324 62.9218 182.259 60.0876 182.676 59.7279C183.429 58.2646 184.101 56.7613 184.69 55.2247C185.133 53.9439 185.702 52.7102 186.388 51.5417C186.647 51.2683 187.568 50.3907 188.46 50.549C188.68 50.6005 188.884 50.7085 189.05 50.8624C189.217 51.0162 189.34 51.2106 189.409 51.4266C189.601 53.2008 189.538 54.9934 189.222 56.7498C198.07 49.9303 198.66 50.29 199.077 50.5346C199.312 50.6643 199.516 50.8433 199.675 51.0594C199.834 51.2755 199.944 51.5235 199.998 51.7863C200.04 52.3471 199.967 52.9106 199.784 53.4424C199.601 53.9742 199.311 54.4631 198.933 54.8795C197.707 56.4122 196.251 57.7467 194.617 58.8359C195.826 60.2746 197.653 62.7492 197.178 64.0584C196.703 65.3676 187.409 71.7266 183.453 74.3739C183.367 74.4505 183.263 74.5049 183.151 74.5321Z" fill="#231F20"/>
<path d="M106.528 57.2534C106.528 57.2534 92.5579 52.6783 55.7703 59.7424C49.3825 60.9653 46.4475 120.527 51.2671 156.351L115.707 155.819C115.707 155.819 126.339 62.2169 106.528 57.2534Z" fill="#57BE85"/>
<path d="M53.3374 51.1245C53.3374 51.1245 39.3964 95.7242 38.5044 99.6807C37.6124 103.637 28.1602 156.15 28.1602 156.15L42.8061 161.07C42.8061 161.07 64.0414 111.982 62.689 98.1988C61.3366 84.4161 53.3374 51.1245 53.3374 51.1245Z" fill="#57BE85"/>
<path d="M105.315 57.2822C116.523 58.3468 139.844 85.4088 141.743 84.6175C143.642 83.8262 178.2 60.1596 178.2 60.1596L189.134 72.1295C189.134 72.1295 155.655 110.974 148.85 115.089C138.376 121.347 93.9062 92.8612 93.9062 92.8612C93.9062 92.8612 94.1077 56.2031 105.315 57.2822Z" fill="#57BE85"/>
<path d="M36.0299 170.753C36.0299 170.753 31.498 168.292 33.4978 164.12L36.0299 170.753Z" fill="white"/>
<path d="M36.0302 171.414C35.9192 171.413 35.8103 171.383 35.7137 171.328C33.9585 170.378 31.1099 167.587 32.8363 163.832C32.9126 163.674 33.0487 163.552 33.2147 163.494C33.3806 163.436 33.5628 163.447 33.7211 163.523C33.8795 163.599 34.001 163.735 34.059 163.901C34.117 164.067 34.1068 164.249 34.0304 164.408C32.3184 167.976 36.1166 170.163 36.2748 170.163C36.4011 170.234 36.5003 170.346 36.5572 170.479C36.614 170.613 36.6253 170.761 36.5893 170.902C36.5533 171.043 36.472 171.168 36.358 171.258C36.244 171.348 36.1035 171.398 35.9583 171.4L36.0302 171.414Z" fill="#231F20"/>
<path d="M139.344 115.938H139.215C132.18 114.499 118.411 106.356 100.37 92.9188L99.5498 92.3002C99.4063 92.2035 99.3064 92.0545 99.2715 91.8851C99.2365 91.7157 99.2693 91.5394 99.3627 91.3938C99.4543 91.2529 99.597 91.1531 99.7608 91.1155C99.9246 91.0779 100.097 91.1055 100.24 91.1924C100.558 91.4022 100.866 91.6279 101.161 91.8686C119.001 105.205 132.582 113.32 139.431 114.672C139.602 114.707 139.753 114.808 139.85 114.954C139.947 115.099 139.982 115.277 139.948 115.449C139.91 115.583 139.832 115.701 139.724 115.789C139.616 115.877 139.483 115.929 139.344 115.938Z" fill="#231F20"/>
<path d="M101.796 29.7311C100.86 29.7311 99.9445 29.4535 99.1661 28.9333C98.3877 28.4132 97.7811 27.674 97.4228 26.8091C97.0645 25.9442 96.9708 24.9925 97.1535 24.0743C97.3361 23.1561 97.7869 22.3127 98.4489 21.6508C99.1108 20.9888 99.9542 20.538 100.872 20.3554C101.791 20.1727 102.742 20.2665 103.607 20.6247C104.472 20.983 105.211 21.5896 105.731 22.368C106.252 23.1464 106.529 24.0616 106.529 24.9977C106.529 26.2531 106.03 27.457 105.143 28.3447C104.255 29.2324 103.051 29.7311 101.796 29.7311ZM101.796 21.7031C101.144 21.7031 100.507 21.8963 99.9654 22.2584C99.4236 22.6204 99.0014 23.1349 98.752 23.7369C98.5026 24.3389 98.4374 25.0014 98.5645 25.6405C98.6916 26.2796 99.0054 26.8666 99.4662 27.3274C99.9269 27.7881 100.514 28.1019 101.153 28.2291C101.792 28.3562 102.455 28.2909 103.057 28.0416C103.659 27.7922 104.173 27.3699 104.535 26.8281C104.897 26.2863 105.09 25.6493 105.09 24.9977C105.09 24.5651 105.005 24.1367 104.84 23.7369C104.674 23.3372 104.431 22.974 104.125 22.6681C103.82 22.3622 103.456 22.1195 103.057 21.9539C102.657 21.7883 102.228 21.7031 101.796 21.7031Z" fill="#231F20"/>
<path d="M99.8632 28.1196C99.8632 28.1196 104.539 35.8311 103.46 37.3417C102.381 38.8523 99 37.7014 99 37.7014" fill="white"/>
<path d="M101.43 38.7805C100.521 38.7578 99.6194 38.6027 98.7545 38.3201C98.5637 38.2571 98.4058 38.121 98.3154 37.9415C98.225 37.7621 98.2096 37.5541 98.2725 37.3633C98.3355 37.1726 98.4717 37.0146 98.6511 36.9242C98.8305 36.8338 99.0385 36.8184 99.2293 36.8814C100.164 37.2123 102.279 37.6007 102.869 36.7951C103.243 36.1045 101.56 32.1624 99.258 28.3643C99.2082 28.2851 99.1745 28.1969 99.1591 28.1046C99.1437 28.0124 99.1468 27.9179 99.1682 27.8269C99.1896 27.7358 99.2289 27.65 99.2839 27.5743C99.3388 27.4986 99.4083 27.4345 99.4882 27.386C99.5685 27.3357 99.6579 27.3018 99.7512 27.2862C99.8446 27.2706 99.9401 27.2736 100.032 27.295C100.125 27.3164 100.212 27.3557 100.289 27.4108C100.366 27.466 100.431 27.5357 100.481 27.6161C101.92 30.0619 105.272 35.9174 104.035 37.687C103.722 38.0667 103.321 38.3646 102.867 38.555C102.414 38.7455 101.921 38.8229 101.43 38.7805Z" fill="#231F20"/>
<path d="M99.1896 18.1638C102.254 20.8542 101.132 26.2781 100.959 29.8173C100.729 34.8048 100.384 39.7875 99.9233 44.7654C99.6356 47.9161 91.4494 47.6428 90.0394 46.6645L91.7659 54.5629L73.8828 51.9445L74.9906 41.6434C74.9906 41.6434 73.8397 27.2564 77.2925 20.9837C78.295 19.166 79.785 17.6642 81.5948 16.6475C83.4046 15.6308 85.4622 15.1395 87.5361 15.2288C87.5361 15.2288 96.1971 15.5166 99.1896 18.1638Z" fill="white"/>
<path d="M91.7644 55.2824H91.6637L73.7806 52.664C73.5973 52.6354 73.4321 52.5372 73.3195 52.3897C73.2069 52.2423 73.1556 52.057 73.1764 51.8727L74.2698 41.5716C74.2698 41.1112 73.1476 27.0695 76.658 20.6385C77.7173 18.6909 79.3063 17.083 81.2414 16.0009C83.1764 14.9188 85.3782 14.4068 87.5922 14.524C87.9231 14.524 96.5265 14.8405 99.6629 17.6172C102.54 20.1062 102.109 24.451 101.821 27.9471C101.821 28.6233 101.706 29.2707 101.677 29.8606C101.447 34.8385 101.102 39.9315 100.641 44.823C100.576 45.3719 100.354 45.8904 100.002 46.3165C99.6499 46.7425 99.1825 47.0582 98.6558 47.2257C96.209 48.1116 93.5643 48.3008 91.0163 47.7724L92.455 54.4192C92.4785 54.5308 92.4751 54.6465 92.445 54.7565C92.415 54.8666 92.3593 54.9679 92.2823 55.0522C92.2166 55.1243 92.1367 55.182 92.0475 55.2216C91.9584 55.2613 91.862 55.282 91.7644 55.2824ZM74.6726 51.3404L90.8436 53.6998L89.4049 46.8228C89.3727 46.6822 89.3844 46.5351 89.4384 46.4013C89.4924 46.2675 89.5862 46.1535 89.7071 46.0747C89.8275 45.9912 89.9705 45.9464 90.1171 45.9464C90.2637 45.9464 90.4067 45.9912 90.5271 46.0747C93.0104 46.84 95.6742 46.7845 98.1235 45.9165C98.8428 45.5856 99.2313 45.1683 99.2744 44.6792C99.7348 39.7444 100.08 34.7377 100.31 29.7742C100.31 29.17 100.397 28.5082 100.454 27.8176C100.728 24.6381 101.058 20.6241 98.7853 18.6818C96.023 16.2504 87.6641 15.9483 87.5922 15.9483C85.6497 15.8486 83.7185 16.2994 82.0208 17.2487C80.3232 18.1981 78.9281 19.6075 77.996 21.3147C74.687 27.3716 75.7661 41.4565 75.7804 41.5716L74.6726 51.3404Z" fill="#231F20"/>
<path d="M70.3711 54.376L72.0544 48.9233L94.0089 51.0382L95.2606 56.0449C91.2457 57.6199 86.932 58.287 82.6289 57.9984C78.3258 57.7099 74.1398 56.4729 70.3711 54.376Z" fill="white"/>
<path d="M84.8178 58.7926C79.6561 58.7682 74.5805 57.4684 70.0424 55.0089C69.8951 54.9296 69.7801 54.8014 69.7171 54.6465C69.6541 54.4916 69.647 54.3196 69.6971 54.16L71.3228 48.7073C71.3742 48.5495 71.4776 48.4138 71.6161 48.3224C71.7546 48.2309 71.92 48.1891 72.0853 48.2038L94.0831 50.2899C94.2287 50.3035 94.3664 50.3621 94.4773 50.4574C94.5881 50.5528 94.6665 50.6803 94.7017 50.8222L95.9678 55.8289C96.0071 55.9894 95.9899 56.1586 95.9192 56.3079C95.8484 56.4573 95.7284 56.5777 95.5793 56.649C92.1799 58.1028 88.5149 58.8329 84.8178 58.7926ZM71.3228 54.0161C74.8654 55.8632 78.7508 56.9596 82.7364 57.2369C86.7219 57.5141 90.7217 56.9663 94.4859 55.6275L93.5076 51.7142L72.6464 49.6857L71.3228 54.0161Z" fill="#231F20"/>
<path d="M81.1164 42.9381C81.1164 51.4121 89.6335 68.547 82.3249 75.2801C75.4623 81.6104 63.6218 83.2649 54.7594 82.2866C41.8111 80.8479 35.006 71.8848 40.3724 59.2674C42.9764 53.1097 47.5659 48.0311 51.3785 42.5353C54.7339 37.6961 57.5513 32.5053 59.7805 27.0549C61.6796 22.4366 63.0895 16.984 65.6504 12.6679C71.3188 3.11488 81.3322 -0.625742 91.8635 2.45308C96.381 3.77668 105.071 9.21497 102.941 15.0993C102.424 16.538 100.654 18.7104 99.244 18.1061C98.8412 20.8972 97.0428 22.2352 94.856 24.0192C92.5601 25.7122 90.1731 27.278 87.7056 28.7094C86.0262 29.7087 84.5597 31.0286 83.3895 32.5939C82.1094 34.7288 81.3687 37.1435 81.2315 39.6291C81.1289 40.7289 81.0905 41.8338 81.1164 42.9381Z" fill="white"/>
<path d="M59.5214 83.2651C57.9066 83.2632 56.2931 83.1768 54.6874 83.0061C47.6953 82.258 42.3865 79.3231 39.6961 74.7768C37.0057 70.2305 37.1352 64.9792 39.6961 58.951C41.7922 54.4984 44.4254 50.3191 47.537 46.5063C48.6304 45.0676 49.7238 43.6289 50.7741 42.0895C54.0956 37.2875 56.8885 32.1406 59.1042 26.7385C59.7228 25.2135 60.2839 23.6453 60.8738 21.9764C61.9471 18.635 63.3344 15.4026 65.0172 12.3228C67.6006 7.7026 71.7108 4.12507 76.643 2.20361C81.5753 0.282138 87.0225 0.136433 92.0504 1.79147C95.417 2.76979 101.1 6.00686 103.172 10.0928C103.613 10.8924 103.879 11.7764 103.954 12.6865C104.028 13.5966 103.909 14.5122 103.603 15.3728C103.081 16.8048 102.059 18.0002 100.726 18.7394C100.434 18.8637 100.122 18.9367 99.805 18.9552C99.2008 21.4297 97.5175 22.7965 95.5896 24.3647L95.2875 24.6093C93.7897 25.7836 92.2077 26.8463 90.5542 27.7888C89.7485 28.278 88.9428 28.7671 88.1515 29.2275C86.5415 30.2133 85.139 31.5034 84.0225 33.0257C82.8182 35.0653 82.1224 37.3648 81.9939 39.73C81.8745 40.8047 81.8216 41.8858 81.8356 42.9671C82.0892 46.4178 82.7065 49.832 83.6772 53.1531C85.7345 61.5119 87.9933 70.993 82.814 75.827C76.7858 81.366 67.3479 83.2651 59.5214 83.2651ZM84.7562 2.17992C80.9743 2.18294 77.2617 3.19524 74.0017 5.1123C70.7417 7.02936 68.0524 9.78172 66.2113 13.0853C64.5805 16.0903 63.232 19.2402 62.183 22.4944C61.6219 24.1057 61.0176 25.8322 60.3846 27.2709C58.141 32.7738 55.2993 38.0133 51.9107 42.8952C50.8604 44.3339 49.7526 45.8877 48.6304 47.3551C45.6001 51.0802 43.0303 55.1572 40.9765 59.4978C38.6458 65.0511 38.6315 70.0722 40.9765 73.9999C43.4223 78.1577 48.3571 80.8337 54.8744 81.5387C62.9743 82.4163 74.9011 81.1502 81.8788 74.7048C86.497 70.3887 84.2814 61.3968 82.3248 53.4264C81.3175 49.9945 80.6856 46.4634 80.4401 42.8952C80.4236 41.7656 80.4813 40.6362 80.6127 39.5142C80.7412 36.9287 81.502 34.4143 82.8283 32.1912C84.0332 30.5491 85.5546 29.1648 87.3027 28.1197C88.1084 27.5874 88.9284 27.0838 89.7485 26.5947C91.349 25.6778 92.8826 24.649 94.338 23.5159L94.6401 23.2857C96.6686 21.6312 98.1217 20.4083 98.4814 18.0488C98.4988 17.941 98.5406 17.8385 98.6035 17.7493C98.6664 17.66 98.7488 17.5862 98.8445 17.5335C98.9402 17.4808 99.0466 17.4506 99.1557 17.4451C99.2648 17.4397 99.3737 17.4592 99.4741 17.5021C99.6769 17.5852 99.9043 17.5852 100.107 17.5021C101.078 16.925 101.82 16.0306 102.208 14.97C102.446 14.2935 102.538 13.574 102.476 12.8594C102.414 12.1448 102.2 11.4517 101.848 10.8265C99.9921 7.15783 94.6545 4.13655 91.6044 3.25894C89.3845 2.57593 87.0786 2.2126 84.7562 2.17992Z" fill="#231F20"/>
<path d="M99.9519 41.0393C99.9519 41.0393 95.9955 43.2693 94.082 39.1833L99.9519 41.0393Z" fill="white"/>
<path d="M97.5657 42.3629C97.1118 42.3665 96.6603 42.2985 96.2277 42.1615C95.5999 41.9419 95.0262 41.5908 94.5449 41.1319C94.0636 40.6729 93.6858 40.1165 93.4366 39.4999C93.396 39.4139 93.3727 39.3208 93.368 39.2258C93.3634 39.1309 93.3775 39.0359 93.4096 38.9464C93.4417 38.8569 93.491 38.7746 93.5549 38.7042C93.6188 38.6337 93.6959 38.5766 93.7819 38.536C93.8678 38.4953 93.961 38.472 94.0559 38.4674C94.1509 38.4628 94.2458 38.4769 94.3354 38.509C94.4249 38.541 94.5072 38.5904 94.5776 38.6543C94.648 38.7182 94.7052 38.7953 94.7458 38.8812C94.9103 39.3156 95.1645 39.7105 95.4917 40.0401C95.8188 40.3698 96.2118 40.6269 96.6449 40.7947C97.6426 41.0266 98.6906 40.8886 99.5942 40.4063C99.6773 40.3607 99.7686 40.332 99.8628 40.3218C99.957 40.3116 100.052 40.3201 100.143 40.3468C100.234 40.3736 100.319 40.418 100.393 40.4776C100.466 40.5372 100.527 40.6107 100.573 40.694C100.62 40.7746 100.651 40.8642 100.663 40.9571C100.675 41.0501 100.669 41.1445 100.643 41.2347C100.617 41.3249 100.574 41.4089 100.515 41.4817C100.456 41.5545 100.382 41.6144 100.299 41.6579C99.4575 42.1081 98.5201 42.3498 97.5657 42.3629Z" fill="#231F20"/>
<path d="M90.1849 30.9539C90.0908 29.6991 89.6528 28.4945 88.9189 27.4723C88.461 26.6148 87.8792 25.8295 87.1924 25.1416C86.8466 24.8021 86.4298 24.5434 85.9721 24.3842C85.5144 24.225 85.0271 24.1692 84.5452 24.2208C84.1253 24.3055 83.7279 24.4773 83.3784 24.7251C83.029 24.9729 82.7355 25.2912 82.5167 25.6595C82.1053 26.4142 81.86 27.2481 81.7973 28.1053C81.6443 29.9807 81.9864 31.8633 82.7892 33.565C83.5921 35.2667 84.8277 36.7278 86.3724 37.8021L86.1134 37.4856" fill="white"/>
<path d="M86.3709 38.5503C86.2269 38.5476 86.0868 38.5026 85.9681 38.4208C84.3242 37.2711 83.0093 35.7118 82.1538 33.8973C81.2983 32.0828 80.9319 30.0762 81.0909 28.0765C81.1498 27.1052 81.4303 26.1603 81.911 25.3142C82.1736 24.8514 82.5333 24.451 82.9655 24.1406C83.3976 23.8301 83.8919 23.617 84.4143 23.5158C85.0058 23.4412 85.6066 23.5008 86.1719 23.6901C86.7373 23.8793 87.2528 24.1935 87.6802 24.6093C88.4215 25.3453 89.0472 26.1893 89.5361 27.1126C90.3667 28.2381 90.8651 29.5739 90.9748 30.9683C90.9607 31.1555 90.8781 31.331 90.7427 31.4611C90.6073 31.5912 90.4287 31.6667 90.241 31.6733C90.1466 31.6714 90.0534 31.6509 89.9668 31.6131C89.8803 31.5752 89.802 31.5206 89.7366 31.4525C89.6711 31.3843 89.6197 31.3039 89.5853 31.2159C89.5509 31.1279 89.5342 31.034 89.5361 30.9395C89.4375 29.8214 89.0345 28.7516 88.3707 27.8463C87.9516 27.0491 87.4185 26.3173 86.7882 25.6739C86.5195 25.4081 86.1966 25.2037 85.8414 25.0745C85.4863 24.9454 85.1074 24.8946 84.7308 24.9258C84.4113 24.9982 84.1106 25.1367 83.8479 25.3325C83.5852 25.5283 83.3665 25.7769 83.2058 26.0624C82.8419 26.7217 82.6305 27.4542 82.5872 28.206C82.4542 29.8358 82.72 31.4734 83.3617 32.9774C84.0034 34.4813 85.0017 35.8065 86.2702 36.8382C86.3595 36.8457 86.4464 36.8712 86.5255 36.9133C86.6047 36.9553 86.6744 37.013 86.7306 37.0828L86.9896 37.3849C87.1049 37.5162 87.1685 37.685 87.1685 37.8597C87.1685 38.0344 87.1049 38.2032 86.9896 38.3345C86.9096 38.415 86.8123 38.4763 86.7051 38.5137C86.598 38.5511 86.4837 38.5636 86.3709 38.5503Z" fill="#231F20"/>
<path d="M98.589 25.9703C98.9783 25.9642 99.2814 25.1606 99.2659 24.1754C99.2504 23.1903 98.9223 22.3966 98.533 22.4027C98.1437 22.4089 97.8407 23.2124 97.8561 24.1976C97.8716 25.1827 98.1997 25.9764 98.589 25.9703Z" fill="#231F20"/>
<path d="M50.2437 147.762C50.0782 147.766 49.9178 147.705 49.7968 147.592C49.6758 147.479 49.6038 147.323 49.5963 147.158C48.3447 130.339 50.848 85.2937 50.8768 84.8477C50.8804 84.7613 50.9013 84.6766 50.9382 84.5985C50.9751 84.5204 51.0273 84.4504 51.0916 84.3927C51.156 84.3351 51.2312 84.2909 51.3129 84.2628C51.3946 84.2347 51.4811 84.2232 51.5673 84.229C51.7416 84.2437 51.9034 84.3254 52.0188 84.4568C52.1341 84.5883 52.194 84.7593 52.186 84.934C52.186 85.38 49.6539 130.325 50.9055 147.057C50.9175 147.23 50.8608 147.401 50.7478 147.533C50.6347 147.665 50.4744 147.747 50.3013 147.762H50.2437Z" fill="#231F20"/>
<path d="M56.2989 149.186C56.1419 149.163 55.9986 149.084 55.895 148.964C55.7914 148.844 55.7344 148.69 55.7344 148.532C55.7344 148.373 55.7914 148.22 55.895 148.1C55.9986 147.979 56.1419 147.9 56.2989 147.877L113.847 145C113.934 144.994 114.022 145.006 114.105 145.035C114.187 145.064 114.263 145.109 114.328 145.168C114.392 145.228 114.444 145.299 114.48 145.379C114.516 145.459 114.536 145.545 114.537 145.633C114.542 145.807 114.478 145.977 114.36 146.105C114.242 146.234 114.079 146.312 113.904 146.323L56.3564 149.201L56.2989 149.186Z" fill="#231F20"/>
</svg>
