<svg width="377" height="329" viewBox="0 0 377 329" fill="none" xmlns="http://www.w3.org/2000/svg">
<path d="M191 233C226.6 229 247.167 237.333 253 242V309.5H51C52.2 256.3 95.8333 236.333 117.5 233H148.5H191Z" fill="#56BD85"/>
<path d="M155.5 205.5L143 237.5L162.5 256L196.5 240.5L191.5 210C179.1 212 162.333 207.833 155.5 205.5Z" fill="white" stroke="black"/>
<path d="M267.5 195.5H306.5C308.167 218.167 311.6 266.3 312 277.5C312.5 291.5 306.5 329 273 329C239.5 329 246 291.5 246 274C246 260 260.334 215.833 267.5 195.5Z" fill="#56BD85"/>
<path d="M254.5 133C235.667 131.5 195.9 116.4 187.5 68C178 74.1667 160.5 83.5 153 98.5C143.5 117.5 128 123 120.5 123M183 135C185.667 141.167 190.8 154.7 190 159.5C189.583 162 179.667 162.167 175 160.5" stroke="black" stroke-width="2"/>
<path d="M99.9368 273.5L108.437 309.5M92.5 242C80.6667 235.833 61.1368 213.6 79.9368 180C103.437 138 109.936 113 109.936 107C109.936 101 121.936 29.5001 191.436 34.0001C247.036 37.6001 266.936 85.5 269.936 109C270.936 114.167 272.929 129 279 137.5C282.936 143.01 297.564 162.5 284.5 179.5" stroke="black" stroke-width="2"/>
<circle cx="333" cy="25" r="5" fill="black"/>
<circle cx="372" cy="25" r="5" fill="black"/>
<circle cx="352" cy="5" r="5" fill="black"/>
<path d="M169.936 307.5L144.5 240C165 253 186.667 248 195.5 242L169.936 307.5Z" fill="black" stroke="black" stroke-width="2"/>
<ellipse cx="154.758" cy="128.935" rx="3.5" ry="8.5" transform="rotate(5.61165 154.758 128.935)" fill="black"/>
<ellipse cx="214.314" cy="135.802" rx="3.5" ry="8.5" transform="rotate(5.61165 214.314 135.802)" fill="black"/>
<path d="M164.502 176.5C170.835 180.333 186.802 186.2 200.002 179M239.5 130.5C241.932 155.881 236.022 203.909 191.5 209.574M130.002 121C122.887 145.474 120.849 190.697 156 205.393M143.5 237.5L156 205.393M156 205.393C162.022 207.91 169.134 209.532 177.5 210C182.54 210.282 187.198 210.121 191.5 209.574M191.5 209.574L196 240.5M274 194C274 189.5 280.8 179.8 292 175C306 169 313.5 158 313.5 154.5C313.5 151 314 143 317.5 143.5C321 144 325 150 323.5 164.5C322 179 317.5 183 306 194" stroke="black" stroke-width="2"/>
<path d="M306.501 195H268.501L254.001 242.5C249.167 255.333 241.101 286.9 247.501 310.5C253.901 334.1 289 329.5 295.5 321" stroke="black" stroke-width="2"/>
<path d="M0 309H246.5" stroke="black" stroke-width="4"/>
</svg>
