<svg width="424" height="328" viewBox="0 0 424 328" fill="none" xmlns="http://www.w3.org/2000/svg">
<path opacity="0.06" fill-rule="evenodd" clip-rule="evenodd" d="M154.155 74.0443C164.811 -1.78952 345.968 -34.3389 405.119 54.4178C464.269 143.175 367.583 193.002 344.993 201.886C322.403 210.77 322.437 242.863 322.437 242.863C322.437 242.863 305.914 332.571 154.155 326.733C2.39502 320.894 2.60119 228.274 2.60119 228.274C2.60119 228.274 -19.2163 132.006 63.6445 110.45C146.505 88.8944 154.155 74.0442 154.155 74.0442V74.0443Z" fill="#57BE85"/>
<path opacity="0.06" fill-rule="evenodd" clip-rule="evenodd" d="M62.9723 28.6324C60.1933 17.9749 64.8925 2.41166 90.9814 3.24917C117.07 4.08742 125.816 24.0792 111.815 35.0457C97.8135 46.0122 65.7512 39.2893 62.9723 28.6324Z" fill="#57BE85"/>
<path fill-rule="evenodd" clip-rule="evenodd" d="M202.441 219.731L331.805 219.88C335.595 219.687 338.771 216.948 339.518 213.228L363.582 86.2361C364.012 84.6324 363.664 82.9199 362.643 81.6104C361.622 80.3008 360.046 79.546 358.385 79.5713L229.021 79.4218C225.231 79.6153 222.055 82.3544 221.308 86.0742L197.244 213.066C196.814 214.67 197.162 216.382 198.183 217.692C199.204 219.001 200.78 219.756 202.441 219.731H202.441Z" fill="white"/>
<path fill-rule="evenodd" clip-rule="evenodd" d="M202.405 219.114L331.771 219.263C335.265 219.08 338.189 216.551 338.874 213.121L362.925 86.1275C363.274 84.6196 362.921 83.0351 361.966 81.8171C361.058 80.7651 359.729 80.1715 358.339 80.1976L228.973 80.0481C225.48 80.2312 222.555 82.7599 221.87 86.1898L197.856 213.184C197.51 214.692 197.862 216.275 198.816 217.494C199.724 218.546 201.053 219.14 202.442 219.114H202.405ZM331.769 220.509L202.403 220.359C200.639 220.392 198.954 219.627 197.817 218.279C196.614 216.787 196.156 214.83 196.571 212.959L220.697 85.9531C221.516 81.9507 224.94 79.0093 229.021 78.8024V78.8024L358.387 78.9519C360.131 78.9348 361.793 79.6923 362.923 81.0198C364.124 82.517 364.583 84.4775 364.169 86.3517L340.131 213.358C339.308 217.373 335.864 220.318 331.769 220.509Z" fill="#231F20"/>
<path fill-rule="evenodd" clip-rule="evenodd" d="M361.321 98.7901V98.7901L219.055 98.6174C218.71 98.6174 218.432 98.3413 218.432 98.0006C218.438 97.6627 218.713 97.3904 219.055 97.3838V97.3838L361.333 97.5565C361.677 97.5565 361.956 97.8327 361.956 98.1733C361.949 98.5159 361.667 98.7902 361.321 98.7901Z" fill="#231F20"/>
<path fill-rule="evenodd" clip-rule="evenodd" d="M347.159 91.3522C345.968 90.23 346.109 88.1478 347.472 86.7016C348.836 85.2553 350.907 84.9927 352.098 86.115C353.289 87.2372 353.149 89.3194 351.785 90.7656C350.421 92.2118 348.35 92.4745 347.159 91.3522Z" fill="#D1D3D4"/>
<path fill-rule="evenodd" clip-rule="evenodd" d="M335.826 91.3368C334.635 90.2145 334.776 88.1323 336.139 86.6861C337.503 85.2399 339.574 84.9772 340.765 86.0995C341.956 87.2217 341.816 89.3039 340.452 90.7501C339.088 92.1964 337.017 92.459 335.826 91.3368Z" fill="#D1D3D4"/>
<path fill-rule="evenodd" clip-rule="evenodd" d="M324.493 91.3214C323.303 90.1992 323.443 88.117 324.807 86.6708C326.17 85.2245 328.241 84.9619 329.432 86.0841C330.623 87.2064 330.483 89.2886 329.119 90.7348C327.755 92.181 325.684 92.4437 324.493 91.3214Z" fill="#D1D3D4"/>
<path fill-rule="evenodd" clip-rule="evenodd" d="M294.045 108.587L281.818 173.076L333.669 173.138L345.897 108.649L294.045 108.587Z" fill="white"/>
<path fill-rule="evenodd" clip-rule="evenodd" d="M294.034 107.343C293.428 107.332 292.902 107.758 292.787 108.352L280.575 172.846C280.503 173.215 280.602 173.596 280.844 173.884C281.086 174.172 281.445 174.335 281.821 174.328H333.662C334.272 174.338 334.799 173.906 334.908 173.307L347.121 108.813C347.189 108.451 347.093 108.076 346.859 107.791C346.622 107.507 346.27 107.342 345.9 107.343H294.059L294.034 107.343ZM294.036 108.589H345.89L333.677 173.082H281.824L294.036 108.589" fill="#231F20"/>
<path fill-rule="evenodd" clip-rule="evenodd" d="M330.916 125.499C330.815 126.338 330.9 127.189 331.166 127.991C331.402 128.458 331.686 128.901 332.013 129.311C333.041 130.881 333.634 132.695 333.733 134.568C333.87 135.836 333.699 137.118 333.234 138.305C332.861 139.177 332.262 139.95 331.913 140.797C331.498 141.827 331.432 142.965 331.726 144.036C332.013 145.045 332.586 146.141 332.063 147.038C331.643 147.635 330.931 147.955 330.206 147.873C329.495 147.782 328.797 147.611 328.125 147.362C324.324 146.266 319.538 146.789 315.55 146.515L300.595 145.469C298.563 145.319 296.046 144.808 295.51 142.84C295.061 141.183 296.681 138.418 297.33 136.86C298.328 134.176 299.637 131.617 301.23 129.236C302.151 128.149 302.933 126.952 303.561 125.674C303.841 124.827 304.078 123.966 304.271 123.095C305.127 120.589 306.606 118.343 308.571 116.567C309.839 115.257 311.297 114.144 312.895 113.266C318.317 110.45 327.327 112.356 329.795 118.349C330.685 120.622 331.068 123.062 330.916 125.499Z" fill="white"/>
<path fill-rule="evenodd" clip-rule="evenodd" d="M318.61 112.662C316.746 112.646 314.905 113.073 313.239 113.908C311.692 114.752 310.284 115.827 309.064 117.097C307.17 118.779 305.748 120.927 304.939 123.326C304.839 123.638 304.777 123.949 304.702 124.261C304.575 124.84 304.408 125.41 304.204 125.967C303.742 127.012 303.133 127.985 302.397 128.858L301.786 129.667C300.238 132.007 298.959 134.515 297.973 137.142C297.836 137.478 297.649 137.852 297.462 138.276C296.789 139.683 295.879 141.627 296.216 142.71C296.552 143.794 298.073 144.666 300.715 144.853L315.669 145.9C316.977 145.987 318.348 145.999 319.794 145.999C322.682 145.876 325.574 146.14 328.392 146.784L328.878 146.934C329.346 147.098 329.831 147.207 330.324 147.258C330.8 147.32 331.274 147.125 331.57 146.747C331.844 146.286 331.57 145.613 331.383 144.903C331.308 144.679 331.234 144.455 331.171 144.243C330.841 143.036 330.916 141.754 331.383 140.593C331.589 140.106 331.83 139.636 332.106 139.185C332.33 138.799 332.542 138.437 332.716 138.064C333.139 136.957 333.293 135.766 333.165 134.588C333.083 132.813 332.528 131.093 331.557 129.605L331.333 129.306C331.062 128.956 330.832 128.575 330.648 128.172C330.351 127.334 330.244 126.441 330.336 125.556L330.984 125.469H330.349C330.515 123.134 330.166 120.791 329.327 118.605C328.205 116.159 326.1 114.303 323.532 113.497C321.954 112.931 320.286 112.653 318.61 112.675L318.61 112.662ZM330.326 148.541H330.164C329.564 148.49 328.973 148.36 328.407 148.154L327.946 148.017C325.245 147.41 322.475 147.163 319.709 147.282C318.226 147.282 316.842 147.282 315.496 147.183L300.542 146.136C297.24 145.912 295.396 144.891 294.897 143.047C294.473 141.502 295.458 139.409 296.243 137.727C296.43 137.329 296.604 136.967 296.741 136.656C297.755 133.923 299.085 131.319 300.704 128.895C300.904 128.608 301.115 128.334 301.327 128.06C301.986 127.274 302.535 126.402 302.96 125.469C303.142 124.969 303.288 124.457 303.396 123.937C303.471 123.6 303.558 123.276 303.645 122.94C304.525 120.329 306.067 117.99 308.119 116.151C309.425 114.785 310.934 113.629 312.593 112.725C316.123 111.083 320.167 110.935 323.808 112.314C326.709 113.245 329.081 115.358 330.339 118.131C331.248 120.491 331.631 123.021 331.46 125.544V125.656C331.231 126.701 331.514 127.792 332.22 128.596L332.445 128.92C333.545 130.583 334.182 132.51 334.289 134.501C334.438 135.884 334.245 137.283 333.728 138.574C333.53 139.003 333.305 139.42 333.055 139.82C332.812 140.221 332.595 140.637 332.407 141.066C332.053 141.963 332.001 142.952 332.258 143.881C332.258 144.081 332.382 144.28 332.445 144.479C332.899 145.388 332.926 146.451 332.519 147.382C332.036 148.119 331.208 148.557 330.326 148.541V148.541Z" fill="#231F20"/>
<path fill-rule="evenodd" clip-rule="evenodd" d="M285.345 154.46L281.818 173.138H333.684L337.211 154.523C332.936 149.405 325.756 147.637 319.437 147.052C316.944 146.828 314.7 146.765 312.743 146.765H312.282C310.449 146.765 308.33 146.765 306.049 147.027H305.937C299.368 147.562 291.553 149.355 285.345 154.46V154.46Z" fill="#57BE85"/>
<path fill-rule="evenodd" clip-rule="evenodd" d="M305.109 150.592V150.592L306.691 168.035L307.164 173.118H308.334L310.725 168.022L318.882 150.679V150.679V150.679C315.794 149.595 308.608 149.595 305.109 150.592H305.109Z" fill="#231F20"/>
<path fill-rule="evenodd" clip-rule="evenodd" d="M318.906 150.619C317.184 153.036 314.402 154.474 311.435 154.481C308.717 154.668 306.179 153.113 305.109 150.606L308.645 135.419H321.098L318.906 150.619Z" fill="white"/>
<path fill-rule="evenodd" clip-rule="evenodd" d="M305.774 150.559C306.81 152.707 309.052 154.005 311.432 153.835H311.432C314.132 153.826 316.671 152.548 318.286 150.384L320.354 136.083H309.139L305.774 150.559ZM311.447 155.118C308.454 155.293 305.675 153.567 304.505 150.808C304.468 150.695 304.468 150.572 304.505 150.459L308.044 135.286C308.113 134.996 308.37 134.791 308.667 134.787H321.129C321.317 134.785 321.495 134.867 321.615 135.011C321.739 135.151 321.794 135.338 321.765 135.522L319.559 150.708C319.549 150.797 319.519 150.882 319.472 150.957C317.634 153.568 314.64 155.12 311.447 155.118V155.118Z" fill="#231F20"/>
<path fill-rule="evenodd" clip-rule="evenodd" d="M319.882 141.942C318.662 143.368 317.16 144.526 315.471 145.343C312.742 146.751 308.742 148.321 305.838 147.835L307.545 141.418C309.739 141.681 311.956 141.681 314.15 141.418C316.168 141.335 318.163 140.953 320.069 140.284C320.405 140.21 320.38 141.331 319.882 141.942H319.882Z" fill="#231F20"/>
<path fill-rule="evenodd" clip-rule="evenodd" d="M306.621 147.307C309.624 147.419 313.55 145.625 315.182 144.816C316.8 144.052 318.236 142.952 319.394 141.589C319.471 141.473 319.534 141.347 319.581 141.215C317.825 141.733 316.014 142.043 314.185 142.137C312.115 142.365 310.025 142.365 307.955 142.137L306.621 147.307ZM306.957 148.553C306.54 148.553 306.123 148.52 305.711 148.453C305.537 148.427 305.382 148.328 305.287 148.179C305.188 148.033 305.161 147.85 305.213 147.681L306.92 141.265C306.999 140.962 307.295 140.768 307.605 140.817C309.749 141.083 311.917 141.083 314.06 140.817C316.022 140.741 317.962 140.376 319.818 139.733C320.131 139.606 320.491 139.708 320.69 139.982C321.011 140.756 320.876 141.643 320.341 142.287C319.072 143.786 317.501 145 315.73 145.85C313.711 146.934 310.06 148.553 306.957 148.553L306.957 148.553Z" fill="#231F20"/>
<path fill-rule="evenodd" clip-rule="evenodd" d="M325.282 173.776H325.083C324.92 173.724 324.785 173.61 324.707 173.457C324.63 173.305 324.617 173.128 324.672 172.966L329.654 157.321C329.764 156.977 330.132 156.787 330.476 156.897C330.82 157.007 331.009 157.375 330.899 157.719L325.918 173.365C325.819 173.627 325.561 173.794 325.282 173.776L325.282 173.776Z" fill="#231F20"/>
<path fill-rule="evenodd" clip-rule="evenodd" d="M290.214 173.71V173.71C289.86 173.69 289.588 173.391 289.602 173.038L290.551 157.387C290.646 157.113 290.913 156.935 291.203 156.952C291.494 156.969 291.738 157.178 291.799 157.462L290.85 173.113C290.831 173.449 290.551 173.711 290.214 173.71L290.214 173.71Z" fill="#231F20"/>
<path fill-rule="evenodd" clip-rule="evenodd" d="M307.682 131.933C307.944 128.368 303.83 127.483 303.256 131.683C302.997 133.01 303.131 134.383 303.643 135.634C303.853 136.135 304.268 136.522 304.782 136.698C305.297 136.874 305.862 136.823 306.336 136.556" fill="white"/>
<path fill-rule="evenodd" clip-rule="evenodd" d="M305.418 137.457C305.186 137.461 304.954 137.428 304.733 137.357C304.006 137.133 303.408 136.612 303.087 135.923C302.511 134.557 302.346 133.053 302.613 131.595C302.962 129.101 304.471 128.116 305.817 128.253C307.534 128.604 308.648 130.274 308.311 131.995C308.212 132.269 307.941 132.444 307.649 132.421C307.358 132.397 307.118 132.182 307.064 131.895C307.164 130.461 306.453 129.625 305.693 129.55C304.932 129.475 304.147 130.012 303.91 131.783C303.667 132.978 303.779 134.218 304.234 135.349C304.408 135.717 304.722 136 305.107 136.135C305.422 136.229 305.762 136.184 306.042 136.01C306.356 135.841 306.748 135.951 306.927 136.259C307.093 136.573 306.977 136.962 306.665 137.132C306.285 137.348 305.855 137.46 305.418 137.457H305.418Z" fill="#231F20"/>
<path fill-rule="evenodd" clip-rule="evenodd" d="M323.814 131.959C324.896 128.395 329.338 127.522 328.33 131.723C328.029 133.167 327.384 134.518 326.452 135.661C325.518 136.683 324.249 137.169 323.403 136.584" fill="white"/>
<path fill-rule="evenodd" clip-rule="evenodd" d="M324.296 137.477C323.852 137.489 323.415 137.358 323.051 137.103C322.762 136.9 322.692 136.502 322.895 136.213C323.098 135.924 323.497 135.855 323.785 136.058C324.296 136.406 325.243 136.058 325.99 135.223C326.851 134.164 327.444 132.913 327.721 131.576C327.82 131.152 328.082 129.796 327.335 129.584C326.587 129.372 325.006 130.281 324.433 132.148C324.326 132.492 323.961 132.685 323.617 132.578C323.273 132.471 323.081 132.106 323.188 131.763C323.96 129.273 326.152 127.941 327.646 128.351C328.119 128.476 329.614 129.111 328.891 131.875C328.57 133.422 327.873 134.867 326.861 136.082C326.231 136.876 325.305 137.379 324.296 137.477L324.296 137.477Z" fill="#231F20"/>
<path fill-rule="evenodd" clip-rule="evenodd" d="M307.805 124.113L305.85 134.442C304.915 139.426 308.055 143.413 312.863 143.425H313.872C318.981 143.165 323.265 139.48 324.287 134.467C324.761 131.975 326.48 128.088 324.661 126.219C321.758 123.229 318.943 121.235 317.336 117.186C313.648 117.958 307.805 118.98 307.805 124.113L307.805 124.113Z" fill="white"/>
<path fill-rule="evenodd" clip-rule="evenodd" d="M316.949 117.895C313.323 118.655 308.45 119.713 308.45 124.124C308.457 124.165 308.457 124.207 308.451 124.248L306.494 134.563C306.011 136.651 306.502 138.846 307.827 140.53C309.079 142.011 310.936 142.841 312.874 142.785L313.896 142.785C318.697 142.533 322.717 139.062 323.666 134.351C323.778 133.778 323.953 133.105 324.14 132.433C324.713 130.29 325.386 127.861 324.215 126.677C323.567 126.005 322.968 125.432 322.308 124.809C320.049 122.922 318.222 120.573 316.949 117.92L316.949 117.895ZM313.885 144.056H312.863C310.546 144.108 308.331 143.104 306.844 141.328C305.27 139.35 304.679 136.766 305.236 134.302L307.18 124.049C307.18 118.617 312.987 117.421 316.813 116.637L317.225 116.549C317.527 116.485 317.833 116.648 317.947 116.936C319.126 119.622 320.924 121.991 323.194 123.85C323.829 124.46 324.44 125.095 325.138 125.756C326.808 127.462 326.01 130.39 325.375 132.744C325.2 133.392 325.038 133.99 324.938 134.563C323.857 139.881 319.306 143.789 313.885 144.056L313.885 144.056Z" fill="#231F20"/>
<path fill-rule="evenodd" clip-rule="evenodd" d="M314.781 135.927C314.319 135.926 313.858 135.896 313.399 135.84C313.149 135.845 312.92 135.704 312.812 135.479C312.705 135.253 312.74 134.986 312.901 134.795C313.063 134.605 313.321 134.527 313.561 134.596C314.31 134.672 315.065 134.672 315.814 134.596C316.048 132.604 315.93 130.586 315.466 128.635C315.405 128.285 315.639 127.951 315.989 127.888C316.338 127.835 316.667 128.065 316.736 128.411C316.972 129.742 317.707 134.197 316.81 135.417C316.644 135.659 316.381 135.818 316.088 135.853C315.655 135.906 315.218 135.931 314.781 135.927V135.927Z" fill="#231F20"/>
<path fill-rule="evenodd" clip-rule="evenodd" d="M280.44 121.988V121.988H227.198C226.928 122.024 226.662 121.901 226.516 121.671C226.37 121.442 226.37 121.149 226.516 120.92C226.662 120.69 226.928 120.567 227.198 120.603V120.603L280.44 120.666C280.787 120.712 281.045 121.008 281.045 121.358C281.045 121.708 280.787 122.004 280.44 122.05V121.988Z" fill="#D1D3D4"/>
<path fill-rule="evenodd" clip-rule="evenodd" d="M278.636 131.489V131.489H225.406C225.137 131.526 224.871 131.402 224.725 131.173C224.578 130.944 224.578 130.65 224.725 130.421C224.871 130.192 225.137 130.068 225.406 130.105V130.105L278.649 130.167C278.995 130.214 279.254 130.51 279.254 130.859C279.254 131.209 278.995 131.505 278.649 131.552L278.636 131.489Z" fill="#D1D3D4"/>
<path fill-rule="evenodd" clip-rule="evenodd" d="M276.836 140.98V140.98L223.603 140.918C223.222 140.911 222.917 140.6 222.917 140.219C222.917 139.84 223.224 139.533 223.603 139.533V139.533L276.836 139.596C277.105 139.559 277.371 139.683 277.517 139.912C277.663 140.141 277.663 140.435 277.517 140.664C277.371 140.893 277.105 141.017 276.836 140.98V140.98Z" fill="#D1D3D4"/>
<path fill-rule="evenodd" clip-rule="evenodd" d="M275.044 150.476V150.476L221.813 150.4C221.63 150.404 221.454 150.332 221.325 150.202C221.195 150.072 221.124 149.895 221.128 149.711C221.124 149.526 221.195 149.348 221.324 149.216C221.453 149.084 221.629 149.01 221.813 149.01V149.01L275.044 149.072C275.429 149.072 275.741 149.387 275.741 149.774C275.735 150.159 275.426 150.469 275.044 150.476V150.476Z" fill="#D1D3D4"/>
<path fill-rule="evenodd" clip-rule="evenodd" d="M273.195 160.016V160.016H235.664C235.318 159.969 235.06 159.672 235.06 159.32C235.06 158.969 235.318 158.671 235.664 158.624V158.624H273.195C273.541 158.671 273.8 158.969 273.8 159.32C273.8 159.672 273.541 159.969 273.195 160.016Z" fill="#D1D3D4"/>
<path fill-rule="evenodd" clip-rule="evenodd" d="M211.642 209.471L326.502 209.608L331.487 183.123L216.614 182.986L211.642 209.471ZM327.071 210.991L210.803 210.854C210.595 210.858 210.397 210.766 210.267 210.605C210.133 210.446 210.078 210.236 210.117 210.032L215.401 182.164C215.466 181.842 215.746 181.609 216.074 181.603L332.343 181.74C332.55 181.738 332.747 181.83 332.879 181.989C333.008 182.15 333.062 182.359 333.028 182.562L327.744 210.43C327.68 210.752 327.4 210.986 327.071 210.991L327.071 210.991Z" fill="#D1D3D4"/>
<path fill-rule="evenodd" clip-rule="evenodd" d="M330.262 191.84V191.84L214.367 191.703C214.098 191.739 213.832 191.616 213.686 191.387C213.539 191.158 213.539 190.865 213.686 190.636C213.832 190.406 214.098 190.283 214.367 190.319V190.319L330.262 190.456C330.609 190.503 330.867 190.799 330.867 191.148C330.867 191.498 330.609 191.794 330.262 191.84V191.84Z" fill="#D1D3D4"/>
<path fill-rule="evenodd" clip-rule="evenodd" d="M295.632 210.956H295.507C295.134 210.881 294.89 210.521 294.959 210.147L300.231 182.279C300.306 181.906 300.666 181.662 301.041 181.73C301.415 181.806 301.663 182.163 301.602 182.54L296.317 210.408C296.247 210.73 295.961 210.958 295.632 210.956V210.956Z" fill="#D1D3D4"/>
<path fill-rule="evenodd" clip-rule="evenodd" d="M236.967 210.882H236.842C236.464 210.813 236.212 210.451 236.281 210.072L241.574 182.187C241.59 181.916 241.761 181.679 242.014 181.578C242.267 181.478 242.555 181.534 242.753 181.72C242.951 181.907 243.022 182.191 242.935 182.449L237.654 210.322C237.588 210.648 237.301 210.883 236.967 210.882Z" fill="#D1D3D4"/>
<path fill-rule="evenodd" clip-rule="evenodd" d="M139.211 169.141L268.58 169.29C272.37 169.107 275.55 166.37 276.294 162.65L300.358 35.656C301.056 31.9187 298.726 28.9912 295.161 28.9912L165.793 28.8417C162.018 29.0197 158.843 31.7319 158.079 35.4318L134.014 162.501C133.317 166.151 135.647 169.141 139.211 169.141L139.211 169.141Z" fill="white"/>
<path fill-rule="evenodd" clip-rule="evenodd" d="M139.208 168.585L268.574 168.734C272.101 168.552 275.044 165.977 275.69 162.506L299.741 35.5366C300.087 34.0326 299.735 32.4529 298.782 31.2387C297.883 30.175 296.548 29.5788 295.155 29.6192L165.789 29.4697C162.297 29.6571 159.375 32.1838 158.686 35.6114L134.622 162.605C134.282 164.109 134.634 165.687 135.582 166.903C136.482 167.965 137.816 168.561 139.208 168.523V168.585ZM268.574 169.98L139.208 169.831C137.445 169.872 135.758 169.111 134.622 167.763C133.419 166.266 132.96 164.305 133.376 162.431L157.464 35.437C158.275 31.4298 161.704 28.4845 165.789 28.2863H165.789L295.155 28.4357C296.91 28.3807 298.596 29.1226 299.741 30.4539C300.942 31.9511 301.4 33.9116 300.987 35.7858L276.936 162.767C276.146 166.812 272.692 169.792 268.574 169.98H268.574Z" fill="#231F20"/>
<path fill-rule="evenodd" clip-rule="evenodd" d="M298.119 48.1999V48.1999L155.85 48.0393C155.506 48.0393 155.227 47.7627 155.227 47.4214C155.227 47.0802 155.506 46.8035 155.85 46.8035V46.8035L298.119 46.9642C298.46 46.9708 298.735 47.2436 298.742 47.5821C298.742 47.9233 298.463 48.1999 298.119 48.1999Z" fill="#231F20"/>
<path fill-rule="evenodd" clip-rule="evenodd" d="M283.926 40.7798C282.736 39.6576 282.876 37.5754 284.24 36.1292C285.603 34.6829 287.674 34.4203 288.865 35.5425C290.056 36.6648 289.916 38.747 288.552 40.1932C287.188 41.6394 285.117 41.9021 283.926 40.7798Z" fill="#D1D3D4"/>
<path fill-rule="evenodd" clip-rule="evenodd" d="M272.594 40.7645C271.403 39.6422 271.543 37.5601 272.907 36.1138C274.27 34.6676 276.341 34.405 277.532 35.5272C278.723 36.6494 278.583 38.7316 277.219 40.1778C275.855 41.6241 273.784 41.8867 272.594 40.7645Z" fill="#D1D3D4"/>
<path fill-rule="evenodd" clip-rule="evenodd" d="M261.263 40.749C260.072 39.6268 260.212 37.5446 261.576 36.0984C262.939 34.6521 265.01 34.3895 266.201 35.5117C267.392 36.634 267.252 38.7162 265.888 40.1624C264.524 41.6086 262.453 41.8713 261.263 40.749Z" fill="#D1D3D4"/>
<path fill-rule="evenodd" clip-rule="evenodd" d="M230.816 58.0068L218.591 122.498L270.443 122.548L282.655 58.0691L230.816 58.0068Z" fill="white"/>
<path fill-rule="evenodd" clip-rule="evenodd" d="M230.827 56.7647C230.222 56.7537 229.696 57.1794 229.581 57.7737L217.369 122.267C217.3 122.63 217.396 123.004 217.63 123.289C217.868 123.574 218.219 123.738 218.59 123.737L270.444 123.8C271.049 123.811 271.575 123.385 271.69 122.791L283.902 58.297C283.971 57.9345 283.875 57.5604 283.641 57.2754C283.406 56.9861 283.054 56.817 282.681 56.8145H230.84L230.827 56.7647ZM230.829 58.0105H282.671L270.458 122.504L218.604 122.442L230.829 58.0105" fill="#231F20"/>
<path fill-rule="evenodd" clip-rule="evenodd" d="M222.107 103.867L218.58 122.486L270.43 122.548L273.969 103.954C269.695 98.8227 262.517 97.0667 256.2 96.4813C253.708 96.2571 251.465 96.1949 249.508 96.1949H249.047C247.215 96.1949 245.097 96.1949 242.817 96.4564H242.705C236.163 97.0168 228.337 98.7729 222.107 103.867V103.867Z" fill="#57BE85"/>
<path fill-rule="evenodd" clip-rule="evenodd" d="M241.87 100.021V100.021L243.465 117.457L243.927 122.538H245.099L247.492 117.444L255.658 100.108V100.108V100.108C251.123 99.074 246.417 99.0442 241.87 100.021H241.87Z" fill="#231F20"/>
<path fill-rule="evenodd" clip-rule="evenodd" d="M255.677 100.041C253.954 102.457 251.169 103.891 248.2 103.891C245.479 104.082 242.937 102.526 241.87 100.016L245.421 84.8385H257.883L255.677 100.041Z" fill="white"/>
<path fill-rule="evenodd" clip-rule="evenodd" d="M242.605 99.968C243.637 102.121 245.88 103.425 248.263 103.257V103.257C250.966 103.26 253.51 101.979 255.117 99.806L257.198 85.5046H245.982L242.605 99.968ZM248.275 104.54C245.286 104.703 242.513 102.981 241.334 100.229C241.303 100.115 241.303 99.9948 241.334 99.8806L244.873 84.6947C244.947 84.4033 245.208 84.1985 245.509 84.1964H257.971C258.155 84.1944 258.332 84.2715 258.457 84.4081C258.578 84.5537 258.632 84.7437 258.606 84.9314L256.4 100.105C256.39 100.193 256.361 100.278 256.313 100.354C254.483 102.982 251.479 104.546 248.275 104.54L248.275 104.54Z" fill="#231F20"/>
<path fill-rule="evenodd" clip-rule="evenodd" d="M256.646 91.3533C255.429 92.7789 253.926 93.9333 252.234 94.7421C249.504 96.1499 245.503 97.7322 242.599 97.2339L244.307 90.8052C246.5 91.0745 248.719 91.0745 250.913 90.8052C252.931 90.7223 254.927 90.3402 256.833 89.6714C257.17 89.6216 257.157 90.7304 256.646 91.3533Z" fill="#231F20"/>
<path fill-rule="evenodd" clip-rule="evenodd" d="M243.39 96.7166C246.393 96.8536 250.331 95.0348 251.963 94.225C253.575 93.4575 255.006 92.358 256.163 90.9985L256.163 90.9985C256.249 90.8922 256.313 90.7692 256.35 90.6372C254.592 91.1453 252.781 91.4504 250.954 91.5466C248.883 91.7676 246.794 91.7676 244.723 91.5466L243.39 96.7166ZM243.726 97.9624C243.309 97.9661 242.892 97.9369 242.48 97.8752C242.308 97.8435 242.155 97.7449 242.056 97.6011C241.965 97.4519 241.938 97.2722 241.981 97.1028L243.688 90.6871C243.768 90.377 244.07 90.1777 244.386 90.2261C246.53 90.4873 248.698 90.4873 250.841 90.2261C252.798 90.1428 254.733 89.7778 256.586 89.1423C256.897 89.0073 257.259 89.1057 257.459 89.379C257.779 90.1566 257.645 91.0472 257.11 91.6961C255.843 93.1976 254.271 94.4122 252.499 95.2591C249.801 96.7754 246.809 97.6972 243.726 97.9624H243.726Z" fill="#231F20"/>
<path fill-rule="evenodd" clip-rule="evenodd" d="M262.044 123.184H261.857C261.691 123.136 261.553 123.022 261.473 122.869C261.393 122.717 261.378 122.538 261.433 122.375L266.419 106.726C266.471 106.563 266.585 106.427 266.738 106.35C266.89 106.272 267.068 106.26 267.23 106.314C267.392 106.363 267.527 106.475 267.605 106.626C267.682 106.776 267.695 106.952 267.641 107.112L262.654 122.761C262.563 123.019 262.317 123.189 262.044 123.184V123.184Z" fill="#231F20"/>
<path fill-rule="evenodd" clip-rule="evenodd" d="M226.976 123.155V123.155C226.803 123.145 226.642 123.068 226.527 122.939C226.412 122.81 226.353 122.641 226.363 122.47L227.314 106.817C227.256 106.55 227.374 106.274 227.608 106.13C227.841 105.986 228.141 106.004 228.356 106.175C228.571 106.346 228.655 106.633 228.565 106.892L227.614 122.544C227.601 122.886 227.319 123.155 226.976 123.155H226.976Z" fill="#231F20"/>
<path fill-rule="evenodd" clip-rule="evenodd" d="M244.466 81.3515C244.728 77.7879 240.615 76.9033 240.03 81.1023C239.77 82.4242 239.904 83.7934 240.416 85.0397C240.627 85.5433 241.043 85.9332 241.559 86.1116C242.075 86.29 242.643 86.24 243.12 85.9742" fill="white"/>
<path fill-rule="evenodd" clip-rule="evenodd" d="M242.181 86.8762C241.949 86.875 241.718 86.8415 241.496 86.7766C240.776 86.5408 240.183 86.0244 239.851 85.3448C239.272 83.9823 239.112 82.4786 239.39 81.0247C239.739 78.5348 241.234 77.5512 242.58 77.6882C244.296 78.0384 245.408 79.7057 245.071 81.4231C245.126 81.6911 245.006 81.9642 244.772 82.1056C244.537 82.247 244.24 82.2262 244.027 82.0536C243.815 81.881 243.734 81.5938 243.826 81.336C243.938 79.9043 243.215 79.0701 242.455 78.983C241.695 78.8958 240.922 79.4561 240.673 81.224C240.433 82.413 240.546 83.6462 240.997 84.7722C241.171 85.1428 241.485 85.4294 241.869 85.569C242.189 85.6548 242.53 85.61 242.816 85.4445C242.965 85.3603 243.141 85.3392 243.305 85.3861C243.469 85.4329 243.607 85.5437 243.688 85.6935C243.857 86.0033 243.746 86.3907 243.439 86.565C243.053 86.7731 242.62 86.8801 242.181 86.8762L242.181 86.8762Z" fill="#231F20"/>
<path fill-rule="evenodd" clip-rule="evenodd" d="M260.57 81.368C261.669 77.8046 266.116 76.9324 265.104 81.1313C264.816 82.578 264.172 83.9308 263.23 85.0685C262.306 86.1026 261.019 86.5886 260.182 86.003" fill="white"/>
<path fill-rule="evenodd" clip-rule="evenodd" d="M261.016 86.8963C260.572 86.9072 260.136 86.7764 259.771 86.5229C259.555 86.4032 259.426 86.1712 259.438 85.9246C259.45 85.678 259.602 85.4599 259.828 85.3622C260.055 85.2645 260.318 85.3043 260.505 85.4648C261.016 85.8258 261.962 85.4648 262.709 84.6433C263.579 83.5798 264.184 82.3259 264.477 80.9838C264.576 80.573 264.85 79.2038 264.091 79.0046C263.332 78.8055 261.763 79.7017 261.203 81.4941C261.099 81.8378 260.737 82.0329 260.393 81.9298C260.05 81.8267 259.854 81.4644 259.958 81.1207C260.729 78.6312 262.921 77.2869 264.427 77.6977C264.888 77.8346 266.382 78.4694 265.672 81.2203C265.337 82.7693 264.637 84.2159 263.63 85.44C263 86.2685 262.052 86.7964 261.016 86.8963V86.8963Z" fill="#231F20"/>
<path fill-rule="evenodd" clip-rule="evenodd" d="M244.535 73.531L242.577 83.85C241.63 88.835 244.772 92.8355 249.585 92.8355H250.607C255.715 92.5693 259.996 88.8843 261.018 83.8749L262.926 74.0545C262.926 74.0545 264.559 64.0845 255.27 65.0815C245.981 66.0785 244.535 73.531 244.535 73.531H244.535Z" fill="white"/>
<path fill-rule="evenodd" clip-rule="evenodd" d="M245.211 73.6572L243.292 84.022C242.82 86.1104 243.31 88.3 244.625 89.9893C245.883 91.4609 247.736 92.2889 249.672 92.2441H250.694C255.497 91.9962 259.519 88.5237 260.464 83.8103L262.321 74.0185C262.321 74.0185 263.006 69.6209 260.751 67.254C259.297 65.937 257.3 65.3952 255.38 65.7964C246.669 66.7058 245.273 73.3582 245.211 73.6572L245.211 73.6572ZM250.656 93.4775H249.634C247.316 93.5309 245.098 92.5324 243.602 90.7617C242.046 88.776 241.473 86.1926 242.045 83.7356L244.001 73.4081C244.001 73.3334 245.596 65.5349 255.217 64.4635C257.542 64.0082 259.944 64.699 261.672 66.3197C264.351 69.1476 263.591 73.9812 263.566 74.193L261.697 84.0221C260.602 89.3208 256.061 93.209 250.656 93.4775L250.656 93.4775Z" fill="#231F20"/>
<path fill-rule="evenodd" clip-rule="evenodd" d="M251.549 85.3367C251.087 85.3353 250.624 85.3104 250.164 85.2621C249.815 85.2107 249.571 84.8899 249.615 84.5404C249.661 84.1923 249.976 83.9438 250.326 83.9805C251.077 84.0675 251.835 84.0675 252.585 83.9806C252.885 83.3833 252.722 80.6834 252.236 78.0208C252.175 77.6707 252.409 77.3375 252.76 77.2743C252.927 77.2416 253.1 77.2772 253.241 77.3731C253.382 77.469 253.478 77.6171 253.508 77.7844C253.745 79.1282 254.482 83.5824 253.583 84.7893C253.416 85.034 253.153 85.1968 252.86 85.2372C252.426 85.2997 251.988 85.3329 251.549 85.3367V85.3367Z" fill="#231F20"/>
<path fill-rule="evenodd" clip-rule="evenodd" d="M217.216 71.4209V71.4209H163.978C163.631 71.374 163.373 71.0766 163.373 70.725C163.373 70.3734 163.631 70.076 163.978 70.0291V70.0291H217.216C217.562 70.076 217.82 70.3734 217.82 70.725C217.82 71.0767 217.562 71.3741 217.216 71.4209Z" fill="#D1D3D4"/>
<path fill-rule="evenodd" clip-rule="evenodd" d="M215.413 80.9072V80.9072H162.183C161.797 80.9072 161.485 80.5935 161.485 80.2064C161.485 79.8194 161.797 79.5056 162.183 79.5056V79.5056L215.413 79.5807C215.792 79.5807 216.099 79.8889 216.099 80.269C216.067 80.6267 215.771 80.9022 215.413 80.9072Z" fill="#D1D3D4"/>
<path fill-rule="evenodd" clip-rule="evenodd" d="M213.61 90.3901V90.3901H160.39C160.121 90.4265 159.855 90.3026 159.709 90.0726C159.562 89.8427 159.562 89.5484 159.709 89.3184C159.855 89.0884 160.121 88.9646 160.39 89.0009V89.0009H213.61C213.996 89.0009 214.308 89.3147 214.308 89.7018C214.308 89.8866 214.234 90.0636 214.103 90.1931C213.972 90.3224 213.794 90.3935 213.61 90.3901L213.61 90.3901Z" fill="#D1D3D4"/>
<path fill-rule="evenodd" clip-rule="evenodd" d="M211.806 99.8784V99.8784H158.578C158.232 99.8318 157.973 99.5359 157.973 99.1861C157.973 98.8362 158.232 98.5403 158.578 98.4937V98.4937L211.806 98.5561C212.075 98.5198 212.341 98.6433 212.487 98.8726C212.633 99.1018 212.633 99.3951 212.487 99.6244C212.341 99.8536 212.075 99.9771 211.806 99.9408V99.8784Z" fill="#D1D3D4"/>
<path fill-rule="evenodd" clip-rule="evenodd" d="M210.016 109.372V109.372H172.48C172.134 109.325 171.876 109.031 171.876 108.683C171.876 108.336 172.134 108.041 172.48 107.995V107.995H210.016C210.394 107.995 210.701 108.301 210.701 108.677C210.701 109.056 210.396 109.365 210.016 109.372H210.016Z" fill="#D1D3D4"/>
<path fill-rule="evenodd" clip-rule="evenodd" d="M148.406 158.893L263.266 159.03L268.251 132.532L153.39 132.395L148.406 158.893ZM263.838 160.413L147.569 160.276C147.364 160.271 147.171 160.178 147.039 160.02C146.908 159.863 146.851 159.656 146.884 159.454L152.168 131.586C152.228 131.254 152.516 131.013 152.853 131.013L269.122 131.15C269.33 131.152 269.527 131.248 269.657 131.411C269.793 131.564 269.848 131.772 269.807 131.972L264.473 159.84C264.417 160.153 264.156 160.389 263.838 160.413L263.838 160.413Z" fill="#D1D3D4"/>
<path fill-rule="evenodd" clip-rule="evenodd" d="M267.035 141.324V141.324L151.127 141.188C150.741 141.188 150.429 140.876 150.429 140.492C150.429 140.309 150.503 140.133 150.634 140.005C150.765 139.877 150.943 139.806 151.127 139.809H151.127L267.035 139.946C267.381 139.992 267.64 140.287 267.64 140.635C267.64 140.983 267.381 141.278 267.035 141.324Z" fill="#D1D3D4"/>
<path fill-rule="evenodd" clip-rule="evenodd" d="M232.365 160.376H232.241C231.867 160.301 231.623 159.941 231.692 159.566L236.978 131.702C237.009 131.521 237.11 131.36 237.26 131.255C237.41 131.15 237.596 131.109 237.776 131.141C238.154 131.21 238.405 131.573 238.337 131.951L233.051 159.815C232.986 160.142 232.699 160.377 232.365 160.376V160.376Z" fill="#D1D3D4"/>
<path fill-rule="evenodd" clip-rule="evenodd" d="M173.738 160.302H173.613C173.241 160.227 172.997 159.866 173.065 159.492L178.333 131.618C178.444 131.286 178.783 131.088 179.126 131.154C179.469 131.22 179.71 131.53 179.691 131.879L174.423 159.754C174.352 160.075 174.067 160.304 173.738 160.302V160.302Z" fill="#D1D3D4"/>
<path fill-rule="evenodd" clip-rule="evenodd" d="M52.3317 291.027L50.2132 252.196L146.318 234.606C146.43 235.64 150.568 267.781 153.559 291.002L52.3317 291.027Z" fill="#231F20"/>
<path fill-rule="evenodd" clip-rule="evenodd" d="M52.9241 290.409H152.868C150.375 271.149 146.413 240.342 145.789 235.371L50.8679 252.737L52.9241 290.409ZM153.567 291.655H52.3392C52.0092 291.655 51.7359 291.399 51.7162 291.069L49.5977 252.264C49.5855 251.951 49.8021 251.677 50.1086 251.616L146.214 234.025C146.386 233.997 146.563 234.042 146.7 234.15C146.838 234.251 146.928 234.404 146.949 234.574C147.061 235.682 152.046 274.438 154.19 290.957C154.204 291.132 154.15 291.306 154.04 291.443C153.919 291.576 153.747 291.653 153.567 291.655L153.567 291.655Z" fill="#231F20"/>
<path fill-rule="evenodd" clip-rule="evenodd" d="M204.867 173.907L221.839 159.105C221.839 159.105 228.07 143.606 230.562 140.653C233.054 137.7 251.746 128.567 251.958 130.611C252.17 132.654 247.708 135.42 246.462 136.442C244.581 137.974 242.624 139.395 240.693 140.852C244.606 142.472 248.518 146.945 250.251 150.82C251.888 154.23 251.589 158.254 249.465 161.385C248.885 162.246 248.028 162.884 247.036 163.192C246.014 163.467 244.93 163.067 244.332 162.195L244.082 162.506C242.089 165.193 239.708 167.57 237.017 169.558C234.824 171.028 232.095 171.19 230.3 173.009C227.684 175.638 225.615 179.239 223.372 182.154L210.886 198.638L204.867 173.907Z" fill="white"/>
<path fill-rule="evenodd" clip-rule="evenodd" d="M205.619 174.129L211.189 197.175L222.903 181.715C223.639 180.756 224.349 179.722 225.072 178.676C226.499 176.489 228.113 174.43 229.895 172.522C231.024 171.509 232.365 170.76 233.82 170.329C234.828 169.998 235.794 169.55 236.699 168.996C239.336 167.035 241.67 164.697 243.627 162.057L243.877 161.746C244.018 161.595 244.218 161.513 244.425 161.521C244.63 161.544 244.811 161.665 244.911 161.845C245.365 162.478 246.168 162.757 246.917 162.543C247.771 162.267 248.505 161.709 248.998 160.961C251.004 158.006 251.275 154.204 249.709 150.995C248.151 147.556 244.4 143.022 240.487 141.402C240.284 141.319 240.142 141.134 240.113 140.916C240.079 140.696 240.17 140.475 240.35 140.343L242.107 139.01C243.428 138.014 244.786 136.992 246.095 135.933C246.319 135.746 246.631 135.522 247.005 135.236C248.251 134.314 251.092 132.208 251.354 130.9C248.861 130.9 233.583 138.101 231.066 141.041C228.549 143.981 222.542 159.154 222.48 159.304C222.441 159.399 222.381 159.484 222.305 159.553L205.619 174.129ZM210.888 199.231H210.764C210.525 199.177 210.337 198.994 210.278 198.758L204.321 174.066C204.261 173.84 204.333 173.6 204.508 173.444L221.319 158.768C221.992 157.111 227.55 143.171 230.042 140.294C232.534 137.416 249.258 128.982 251.875 129.804C252.234 129.908 252.495 130.218 252.535 130.589C252.71 132.408 250.23 134.414 247.675 136.307L246.803 136.955C245.482 138.039 244.111 139.073 242.778 140.069L241.856 140.767C245.748 143.05 248.855 146.46 250.766 150.546C252.514 154.165 252.191 158.443 249.919 161.758C249.256 162.739 248.274 163.461 247.14 163.801C246.147 164.063 245.09 163.831 244.298 163.178C242.319 165.805 239.969 168.13 237.32 170.08C236.332 170.688 235.279 171.181 234.179 171.55C232.897 171.922 231.71 172.568 230.702 173.444C228.975 175.302 227.411 177.307 226.029 179.436C225.294 180.495 224.559 181.541 223.824 182.525L211.362 199.032C211.239 199.162 211.067 199.234 210.888 199.231V199.231Z" fill="#231F20"/>
<path fill-rule="evenodd" clip-rule="evenodd" d="M46.3027 276.637C46.3027 276.637 47.5489 172.532 59.9484 151.701C72.3479 130.87 106.431 124.927 123.354 136.364C140.277 147.801 153.561 267.853 153.561 267.853C153.561 267.853 100.287 278.904 46.3027 276.637H46.3027Z" fill="#57BE85"/>
<path fill-rule="evenodd" clip-rule="evenodd" d="M123.36 136.341C123.36 136.341 139.261 138.771 148.022 152.25C156.783 165.73 166.491 184.317 166.491 184.317L212.202 160.46L233.599 180.804C233.599 180.804 195.216 222.338 176.66 233.588C159.151 244.202 145.368 229.539 135.809 220.096C131.759 216.097 125.491 206.268 125.491 206.268L123.36 136.341Z" fill="#57BE85"/>
<path fill-rule="evenodd" clip-rule="evenodd" d="M125.911 82.5272H125.462C124.011 82.6464 122.666 83.3364 121.723 84.4457C120.789 85.5533 120.34 86.99 120.477 88.4322C120.675 90.905 122.51 92.9365 124.951 93.3855C127.391 93.8345 129.829 92.589 130.895 90.3488C131.96 88.1085 131.388 85.4319 129.5 83.8228C128.508 82.9731 127.241 82.5127 125.936 82.5273L125.911 82.5272ZM125.911 94.7482C124.315 94.7511 122.772 94.1808 121.561 93.1412C119.123 91.0639 118.491 87.554 120.053 84.7574C121.615 81.9609 124.935 80.6562 127.983 81.641C131.032 82.6259 132.961 85.6261 132.59 88.8074C132.219 91.9887 129.652 94.4654 126.459 94.7233L125.911 94.7482Z" fill="#231F20"/>
<path fill-rule="evenodd" clip-rule="evenodd" d="M123.393 92.9835C123.393 92.9835 131.428 104.075 129.956 106.502C128.484 108.929 123.231 107.585 123.231 107.585" fill="white"/>
<path fill-rule="evenodd" clip-rule="evenodd" d="M126.249 108.587C125.182 108.576 124.121 108.447 123.084 108.201C122.923 108.16 122.786 108.057 122.702 107.914C122.617 107.772 122.593 107.601 122.635 107.441C122.673 107.279 122.776 107.139 122.919 107.054C123.063 106.97 123.235 106.947 123.395 106.993C124.728 107.329 128.379 107.852 129.414 106.195C130.199 104.95 126.635 98.5221 122.884 93.3402C122.689 93.064 122.75 92.6824 123.021 92.4807C123.154 92.3795 123.322 92.3369 123.487 92.3628C123.651 92.3887 123.798 92.4808 123.893 92.6177C125.277 94.5236 132.08 104.177 130.485 106.831C129.65 108.226 127.856 108.587 126.249 108.587Z" fill="#231F20"/>
<path fill-rule="evenodd" clip-rule="evenodd" d="M121.172 77.9527C126.156 81.6896 125.085 90.0232 125.272 95.392C125.537 102.974 125.621 110.564 125.521 118.163C125.521 122.971 113.059 123.594 110.766 122.249L114.355 134.008L86.9393 132.214L87.3505 116.481C87.3505 116.481 83.8737 94.8813 88.3225 84.8786C90.9701 79.0102 96.7162 75.1488 103.152 74.9132C103.152 74.9132 116.299 74.3278 121.172 77.9527H121.172Z" fill="white"/>
<path fill-rule="evenodd" clip-rule="evenodd" d="M87.5404 131.673L113.473 133.355L110.146 122.467C110.074 122.22 110.158 121.955 110.358 121.794C110.569 121.651 110.845 121.651 111.056 121.794C112.539 122.678 119.542 122.604 123.044 120.635C124.29 119.963 124.876 119.153 124.876 118.231C124.976 110.682 124.876 103.033 124.627 95.4957C124.627 94.5738 124.627 93.5648 124.627 92.5183C124.627 87.5353 124.627 81.4061 120.801 78.5034C116.178 75.0526 103.354 75.6257 103.18 75.6381C96.9724 75.8286 91.4201 79.5499 88.8862 85.2181C84.5495 94.9227 87.9267 116.25 87.9641 116.462L87.5404 131.673ZM114.334 134.663L86.9178 132.869C86.5835 132.849 86.3248 132.568 86.3321 132.233L86.7433 116.487C86.6063 115.715 83.2914 94.7108 87.7652 84.6574C92.239 74.6041 102.994 74.3425 103.18 74.3425C103.691 74.3425 116.589 73.732 121.574 77.4569C125.948 80.7333 125.923 87.2486 125.898 92.4061C125.898 93.4401 125.898 94.4367 125.898 95.3337C126.16 102.896 126.247 110.569 126.148 118.131C126.044 119.669 125.078 121.015 123.655 121.607C120.452 123.401 114.583 123.787 111.692 123.189L114.932 133.853C114.99 134.051 114.948 134.264 114.82 134.426C114.703 134.576 114.524 134.664 114.334 134.663V134.663Z" fill="#231F20"/>
<path fill-rule="evenodd" clip-rule="evenodd" d="M81.8826 136.347L83.7646 127.871L117.304 128.407L119.797 135.886C119.797 135.886 103.108 145.533 81.8826 136.347L81.8826 136.347Z" fill="white"/>
<path fill-rule="evenodd" clip-rule="evenodd" d="M82.6068 135.983C94.2592 141.057 107.526 140.902 119.058 135.56L116.852 129.045L84.2642 128.521L82.6068 135.983ZM100.492 140.904C94.0004 140.889 87.5818 139.536 81.637 136.93C81.3646 136.808 81.2142 136.512 81.2756 136.22L83.1573 127.749C83.2173 127.461 83.474 127.257 83.768 127.263L117.303 127.811C117.563 127.809 117.795 127.975 117.876 128.222L120.368 135.697C120.473 135.976 120.356 136.289 120.094 136.432C114.009 139.461 107.289 140.994 100.492 140.904V140.904Z" fill="#231F20"/>
<path fill-rule="evenodd" clip-rule="evenodd" d="M46.6934 264.664C46.3702 264.665 46.1024 264.414 46.0827 264.091C43.9387 237.926 51.3304 182.345 51.7292 180.713C51.8119 180.369 52.1579 180.157 52.5021 180.239C52.8463 180.322 53.0583 180.668 52.9757 181.012C52.5769 182.644 45.235 237.901 47.3541 263.991C47.3678 264.157 47.315 264.321 47.2074 264.447C47.0998 264.573 46.9462 264.651 46.7807 264.664L46.6934 264.664Z" fill="#231F20"/>
<path fill-rule="evenodd" clip-rule="evenodd" d="M99.0732 116.648C97.4531 126.514 99.1853 134.823 89.3654 141.45C82.6485 145.997 73.9502 146.956 65.9996 145.374C61.0148 144.377 55.8432 142.173 53.1515 137.825C49.8865 132.556 51.1326 125.604 53.8119 120.011C56.4912 114.418 60.4541 109.472 62.7221 103.692C68.2676 89.5906 63.6941 73.5955 77.3398 63.6172C82.6901 59.7484 88.9312 57.2931 95.4842 56.4792C97.3659 56.2425 113.753 58.3603 113.516 58.6468C116.619 55.0716 123.249 57.2267 125.355 61.4497C127.065 65.3221 127.11 69.7262 125.48 73.6328C125.243 74.1187 120.931 79.55 121.031 77.943C120.757 82.2283 118.14 84.4706 114.962 87.4354C111.784 90.4003 108.008 92.6675 104.544 95.2959C97.7896 100.391 100.12 106.657 99.4221 113.907C99.3349 114.841 99.2227 115.751 99.0732 116.648V116.648Z" fill="white"/>
<path fill-rule="evenodd" clip-rule="evenodd" d="M95.9267 57.0763H95.5529C89.105 57.8758 82.963 60.288 77.6951 64.09C69.084 70.3188 67.9126 79.1513 66.6664 88.4448C66.182 93.7337 65.0477 98.9429 63.2893 103.955C61.9024 107.22 60.2345 110.358 58.3045 113.335C56.8756 115.597 55.5613 117.93 54.3666 120.324C52.8837 123.426 49.8305 131.337 53.6812 137.541C56.4727 142.063 61.9932 143.981 66.143 144.803C74.6046 146.485 82.954 145.09 89.0354 140.979C96.5124 135.934 97.0732 129.842 97.7586 122.778C97.9456 120.785 98.1449 118.729 98.4939 116.549C98.6434 115.69 98.7556 114.78 98.8428 113.846C98.9846 112.118 99.0345 110.384 98.9923 108.651C98.9923 103.581 98.9051 98.8096 104.201 94.7982C105.448 93.9137 106.594 93.0666 107.803 92.207C110.182 90.6272 112.447 88.883 114.582 86.9872L115.006 86.5886C117.909 83.8852 120.202 81.755 120.452 77.8682C120.484 77.5301 120.772 77.2745 121.112 77.2826C121.23 77.2897 121.343 77.3332 121.436 77.4072C122.713 76.1669 123.873 74.8116 124.9 73.3585C126.437 69.624 126.396 65.4272 124.788 61.723C123.5 59.408 121.186 57.8444 118.557 57.5123C116.86 57.2036 115.121 57.7812 113.946 59.0446C113.741 59.2857 113.387 59.3339 113.124 59.1567C107.431 58.1698 101.691 57.4754 95.9268 57.0763H95.9267ZM73.0972 146.709C70.6742 146.707 68.2573 146.465 65.8818 145.987C61.5077 145.115 55.6507 143.059 52.6225 138.163C48.4478 131.424 51.6629 123.04 53.2456 119.738C54.417 117.247 55.8501 114.93 57.2333 112.65C59.1308 109.738 60.7696 106.666 62.1308 103.469C63.8413 98.5715 64.9503 93.4847 65.4332 88.3201C66.6794 78.7526 67.9256 69.7207 76.9728 63.1182C82.4044 59.1802 88.7453 56.6815 95.4039 55.8553C95.5285 55.8553 109.735 56.9765 113.274 57.9731C114.727 56.5668 116.764 55.9375 118.757 56.2789C121.783 56.6751 124.44 58.4887 125.91 61.1623C127.692 65.2148 127.738 69.82 126.035 73.9065C126.035 73.9065 123.194 78.0051 121.574 78.7401C121.063 82.6144 118.608 84.8942 115.804 87.4605L115.38 87.8591C113.206 89.7947 110.899 91.5763 108.476 93.191C107.23 94.0382 106.071 94.8728 104.912 95.7573C100.102 99.3825 100.139 103.656 100.189 108.601C100.231 110.38 100.181 112.16 100.04 113.933C99.9524 114.892 99.8278 115.827 99.6783 116.711C99.3294 118.817 99.1424 120.86 98.9555 122.828C98.2576 130.203 97.7093 136.531 89.7088 141.938C84.7676 145.14 78.9853 146.801 73.0972 146.709L73.0972 146.709Z" fill="#231F20"/>
<path fill-rule="evenodd" clip-rule="evenodd" d="M125.084 112.536C125.084 112.536 119.353 116.406 115.965 110.452Z" fill="white"/>
<path fill-rule="evenodd" clip-rule="evenodd" d="M121.064 114.399C120.599 114.404 120.134 114.354 119.681 114.249C117.833 113.749 116.287 112.484 115.431 110.773C115.259 110.473 115.362 110.091 115.661 109.919C115.961 109.747 116.343 109.85 116.515 110.15C117.198 111.557 118.449 112.604 119.955 113.028C121.618 113.284 123.318 112.93 124.74 112.031C124.875 111.936 125.043 111.9 125.205 111.931C125.366 111.961 125.509 112.056 125.6 112.193C125.696 112.33 125.732 112.499 125.702 112.663C125.671 112.827 125.576 112.972 125.438 113.065C124.125 113.891 122.615 114.351 121.064 114.399V114.399Z" fill="#231F20"/>
<path fill-rule="evenodd" clip-rule="evenodd" d="M92.5046 99.4946H92.38C92.0427 99.4259 91.8251 99.0967 91.894 98.7596C92.6666 94.9226 93.4019 94.7981 93.7259 94.7607C94.349 94.6486 118.961 89.5908 131.896 86.9248C132.241 86.856 132.575 87.0791 132.644 87.4231C132.713 87.7671 132.49 88.1018 132.146 88.1706C130.65 88.4696 96.5423 95.5082 94.0499 95.9816C93.6009 96.9517 93.2865 97.9786 93.1152 99.0337C93.0374 99.3063 92.7882 99.4944 92.5046 99.4947L92.5046 99.4946Z" fill="#231F20"/>
<path fill-rule="evenodd" clip-rule="evenodd" d="M109.053 98.4521C108.758 96.5626 107.947 94.791 106.711 93.332C105.911 92.0875 104.933 90.9669 103.808 90.0058C102.66 89.0458 101.141 88.6525 99.6719 88.9345C98.4008 89.316 97.3535 90.2227 96.794 91.426C96.2567 92.5976 95.9885 93.8746 96.0092 95.1633C95.9952 100.98 99.0873 106.361 104.119 109.278L103.721 108.941" fill="white"/>
<path fill-rule="evenodd" clip-rule="evenodd" d="M104.116 109.949C104.008 109.948 103.902 109.923 103.805 109.874C98.6002 106.832 95.3952 101.263 95.3805 95.2364C95.3509 93.8346 95.6452 92.4449 96.2403 91.1752C96.8683 89.8052 98.0667 88.7803 99.5179 88.3722C101.185 88.0431 102.91 88.503 104.191 89.618C105.367 90.612 106.384 91.7799 107.207 93.0812C108.537 94.6184 109.402 96.5024 109.7 98.5128C109.72 98.8568 109.458 99.1524 109.114 99.1731C108.77 99.1937 108.474 98.9315 108.453 98.5875C108.15 96.819 107.38 95.1633 106.223 93.7913C105.461 92.5988 104.529 91.5244 103.456 90.6021C102.457 89.7546 101.13 89.4022 99.8419 89.6429C98.7408 89.9642 97.8322 90.7454 97.3495 91.7856C96.8501 92.8971 96.6032 94.1054 96.6267 95.3236C96.6358 100.562 99.2461 105.454 103.593 108.379C103.785 108.355 103.978 108.419 104.116 108.554L104.553 108.99C104.776 109.205 104.803 109.553 104.615 109.799C104.478 109.918 104.296 109.973 104.116 109.949Z" fill="#231F20"/>
<path fill-rule="evenodd" clip-rule="evenodd" d="M119.85 87.2859C119.706 85.7901 120.066 84.5317 120.655 84.475C121.244 84.4183 121.838 85.5849 121.982 87.0807C122.126 88.5764 121.765 89.8349 121.177 89.8915C120.588 89.9482 119.994 88.7816 119.85 87.2859Z" fill="#231F20"/>
<path fill-rule="evenodd" clip-rule="evenodd" d="M152.312 233.52C152.225 233.538 152.136 233.538 152.05 233.52C122.487 219.628 107.725 168.118 107.575 167.607C107.487 167.274 107.68 166.932 108.011 166.835C108.17 166.789 108.34 166.81 108.483 166.892C108.626 166.974 108.73 167.111 108.771 167.271C108.92 167.782 123.534 218.743 152.586 232.386C152.847 232.513 152.987 232.804 152.921 233.088C152.855 233.371 152.602 233.571 152.312 233.57V233.52Z" fill="#231F20"/>
<path fill-rule="evenodd" clip-rule="evenodd" d="M296.675 277.056H217.169L232.397 197.577H311.903L296.675 277.056Z" fill="white"/>
<path fill-rule="evenodd" clip-rule="evenodd" d="M217.917 276.431H296.164L311.118 198.197H232.908L217.917 276.431ZM296.675 277.677H217.119C216.933 277.674 216.756 277.593 216.633 277.453C216.52 277.309 216.474 277.122 216.509 276.942L231.737 197.449C231.792 197.157 232.05 196.946 232.348 196.951H311.854C312.041 196.949 312.22 197.031 312.34 197.175C312.455 197.319 312.5 197.506 312.465 197.686L297.286 277.117C297.26 277.434 296.994 277.678 296.675 277.677L296.675 277.677Z" fill="#231F20"/>
<path fill-rule="evenodd" clip-rule="evenodd" d="M296.68 213.902H243.173C242.792 213.895 242.487 213.586 242.487 213.207C242.487 212.83 242.794 212.525 243.173 212.525L296.68 212.525C296.863 212.521 297.041 212.592 297.172 212.72C297.303 212.848 297.377 213.024 297.377 213.207C297.377 213.591 297.065 213.902 296.68 213.902L296.68 213.902Z" fill="#D1D3D4"/>
<path fill-rule="evenodd" clip-rule="evenodd" d="M294.305 226.348H240.796C240.612 226.352 240.435 226.281 240.303 226.153C240.172 226.025 240.098 225.849 240.098 225.666C240.098 225.282 240.411 224.971 240.796 224.971L294.318 224.971C294.698 224.978 295.003 225.287 295.003 225.666C295.003 225.849 294.929 226.025 294.798 226.153C294.667 226.281 294.489 226.352 294.305 226.348Z" fill="#D1D3D4"/>
<path fill-rule="evenodd" clip-rule="evenodd" d="M291.899 238.811H238.39C238.043 238.764 237.785 238.467 237.785 238.116C237.785 237.765 238.043 237.468 238.39 237.422H291.899C292.168 237.385 292.434 237.509 292.58 237.739C292.727 237.969 292.727 238.263 292.58 238.493C292.434 238.723 292.168 238.847 291.899 238.811V238.811Z" fill="#D1D3D4"/>
<path fill-rule="evenodd" clip-rule="evenodd" d="M289.53 251.267H236.011C235.742 251.303 235.476 251.18 235.33 250.95C235.184 250.72 235.184 250.425 235.33 250.195C235.476 249.965 235.742 249.842 236.011 249.878H289.53C289.877 249.925 290.135 250.222 290.135 250.572C290.135 250.923 289.877 251.22 289.53 251.267V251.267Z" fill="#D1D3D4"/>
<path fill-rule="evenodd" clip-rule="evenodd" d="M271.246 263.732H233.617C233.271 263.685 233.012 263.388 233.012 263.036C233.012 262.685 233.271 262.387 233.617 262.34H271.246C271.593 262.387 271.851 262.685 271.851 263.036C271.851 263.388 271.593 263.685 271.246 263.732Z" fill="#D1D3D4"/>
</svg>
