<svg width="259" height="214" viewBox="0 0 259 214" fill="none" xmlns="http://www.w3.org/2000/svg">
<path fill-rule="evenodd" clip-rule="evenodd" d="M127.765 155.697L232.416 155.818C235.482 155.662 238.051 153.445 238.656 150.435L258.122 47.6695C258.47 46.3717 258.189 44.9859 257.363 43.9262C256.537 42.8665 255.262 42.2557 253.918 42.2762L149.268 42.1552C146.202 42.3118 143.632 44.5283 143.028 47.5384L123.562 150.304C123.214 151.602 123.495 152.987 124.321 154.047C125.147 155.107 126.422 155.718 127.765 155.697H127.765Z" fill="white"/>
<path fill-rule="evenodd" clip-rule="evenodd" d="M127.736 155.198L232.388 155.319C235.214 155.171 237.58 153.124 238.134 150.349L257.591 47.5817C257.872 46.3614 257.587 45.0792 256.814 44.0936C256.08 43.2422 255.005 42.7619 253.881 42.783L149.229 42.6621C146.402 42.8102 144.036 44.8565 143.482 47.6321L124.056 150.399C123.776 151.619 124.061 152.901 124.832 153.887C125.567 154.739 126.642 155.219 127.766 155.198H127.736ZM232.388 156.327L127.735 156.206C126.308 156.232 124.945 155.614 124.026 154.522C123.053 153.315 122.682 151.731 123.017 150.218L142.535 47.4405C143.197 44.2017 145.967 41.8214 149.269 41.654V41.654L253.921 41.7749C255.332 41.7612 256.676 42.3741 257.59 43.4484C258.562 44.66 258.933 46.2464 258.599 47.7631L239.152 150.54C238.487 153.79 235.701 156.173 232.388 156.327Z" fill="#231F20"/>
<path fill-rule="evenodd" clip-rule="evenodd" d="M256.294 57.8282L141.206 57.6885C140.928 57.6885 140.702 57.4651 140.702 57.1896C140.708 56.9162 140.93 56.6959 141.206 56.6906L256.304 56.8303C256.583 56.8303 256.808 57.0537 256.808 57.3293C256.803 57.6064 256.574 57.8283 256.294 57.8282Z" fill="#231F20"/>
<path fill-rule="evenodd" clip-rule="evenodd" d="M244.838 51.8096C243.875 50.9015 243.988 49.2165 245.092 48.0462C246.195 46.8758 247.87 46.6633 248.833 47.5715C249.797 48.4796 249.683 50.1646 248.58 51.3349C247.477 52.5052 245.802 52.7178 244.838 51.8096Z" fill="#D1D3D4"/>
<path fill-rule="evenodd" clip-rule="evenodd" d="M235.669 51.7971C234.706 50.889 234.82 49.204 235.923 48.0337C237.026 46.8633 238.701 46.6508 239.665 47.559C240.628 48.4671 240.515 50.1521 239.411 51.3224C238.308 52.4927 236.633 52.7053 235.669 51.7971Z" fill="#D1D3D4"/>
<path fill-rule="evenodd" clip-rule="evenodd" d="M226.503 51.7847C225.539 50.8765 225.653 49.1916 226.756 48.0213C227.859 46.8509 229.535 46.6384 230.498 47.5466C231.461 48.4547 231.348 50.1397 230.245 51.31C229.141 52.4803 227.466 52.6929 226.503 51.7847Z" fill="#D1D3D4"/>
<path fill-rule="evenodd" clip-rule="evenodd" d="M201.867 65.7566L191.975 117.943L233.921 117.993L243.813 65.807L201.867 65.7566Z" fill="white"/>
<path fill-rule="evenodd" clip-rule="evenodd" d="M201.859 64.7498C201.369 64.7409 200.944 65.0854 200.851 65.5664L190.972 117.756C190.914 118.055 190.994 118.364 191.189 118.597C191.385 118.83 191.676 118.962 191.98 118.956H233.917C234.41 118.964 234.837 118.614 234.925 118.129L244.805 65.9394C244.86 65.6461 244.782 65.3433 244.593 65.1127C244.401 64.8823 244.117 64.7493 243.817 64.7498H201.879L201.859 64.7498ZM201.86 65.7578H243.807L233.928 117.948H191.98L201.86 65.7578" fill="#231F20"/>
<path fill-rule="evenodd" clip-rule="evenodd" d="M231.698 79.4422C231.616 80.1209 231.685 80.8094 231.899 81.4584C232.091 81.8371 232.32 82.1951 232.585 82.527C233.416 83.7974 233.896 85.2652 233.976 86.7812C234.087 87.8071 233.949 88.8446 233.573 89.8055C233.27 90.5112 232.786 91.1362 232.504 91.8217C232.168 92.6553 232.115 93.5761 232.353 94.4428C232.585 95.2593 233.049 96.1465 232.625 96.8723C232.286 97.3554 231.71 97.6144 231.123 97.5477C230.548 97.4745 229.983 97.3358 229.439 97.1344C226.364 96.2473 222.493 96.6707 219.267 96.4489L207.169 95.6021C205.525 95.4811 203.489 95.0678 203.055 93.475C202.692 92.1342 204.003 89.8962 204.527 88.6361C205.334 86.4635 206.394 84.3928 207.683 82.4666C208.427 81.5865 209.06 80.6182 209.568 79.5834C209.795 78.898 209.987 78.2015 210.143 77.4966C210.835 75.469 212.032 73.651 213.621 72.2142C214.647 71.1541 215.826 70.2536 217.119 69.5427C221.505 67.2644 228.794 68.8068 230.79 73.6558C231.51 75.4956 231.82 77.4704 231.698 79.4422Z" fill="white"/>
<path fill-rule="evenodd" clip-rule="evenodd" d="M221.741 69.0545C220.233 69.0408 218.744 69.3863 217.396 70.0626C216.145 70.7451 215.006 71.6155 214.019 72.6433C212.487 74.0045 211.337 75.742 210.682 77.6839C210.602 77.9359 210.551 78.188 210.491 78.44C210.388 78.9089 210.253 79.3704 210.087 79.8211C209.714 80.6662 209.221 81.4537 208.626 82.1599L208.132 82.8152C206.879 84.7088 205.844 86.738 205.047 88.8639C204.936 89.1361 204.785 89.4385 204.634 89.7813C204.089 90.9205 203.353 92.4931 203.625 93.3702C203.898 94.2472 205.127 94.9529 207.265 95.1041L219.362 95.9509C220.421 96.0215 221.529 96.0316 222.699 96.0316C225.036 95.932 227.375 96.1456 229.655 96.6667L230.048 96.7877C230.426 96.9206 230.819 97.0085 231.217 97.0498C231.603 97.1 231.986 96.9428 232.226 96.6364C232.447 96.2634 232.226 95.719 232.074 95.1444C232.014 94.963 231.953 94.7815 231.903 94.6101C231.636 93.6332 231.696 92.5958 232.074 91.6563C232.241 91.2627 232.436 90.8819 232.659 90.5172C232.841 90.2047 233.012 89.9123 233.153 89.6099C233.495 88.7143 233.62 87.7503 233.516 86.7972C233.45 85.3612 233.001 83.969 232.215 82.7648L232.034 82.5229C231.814 82.2396 231.628 81.9317 231.48 81.6055C231.239 80.9273 231.153 80.2041 231.228 79.4884L231.752 79.4179H231.238C231.372 77.5281 231.09 75.6319 230.411 73.8632C229.504 71.8841 227.8 70.3821 225.723 69.7299C224.446 69.2719 223.098 69.0466 221.741 69.0645L221.741 69.0545ZM231.216 98.0881H231.085C230.599 98.0474 230.121 97.9423 229.663 97.7756L229.29 97.6647C227.105 97.1732 224.864 96.9732 222.627 97.0699C221.427 97.0699 220.308 97.0699 219.219 96.9892L207.122 96.1424C204.45 95.961 202.958 95.1343 202.555 93.6423C202.212 92.3922 203.009 90.6986 203.644 89.3377C203.795 89.0151 203.936 88.7227 204.047 88.4707C204.867 86.2594 205.943 84.1515 207.253 82.1902C207.414 81.9583 207.586 81.7365 207.757 81.5147C208.29 80.8784 208.734 80.1731 209.078 79.4178C209.225 79.0136 209.343 78.5992 209.43 78.1779C209.491 77.9057 209.562 77.6436 209.632 77.3714C210.344 75.2582 211.591 73.3654 213.251 71.8771C214.307 70.772 215.528 69.8369 216.87 69.1048C219.726 67.7765 222.998 67.6566 225.943 68.7722C228.29 69.5256 230.208 71.2355 231.226 73.4801C231.962 75.3895 232.271 77.4367 232.133 79.4783V79.5691C231.948 80.4147 232.176 81.2981 232.748 81.9482L232.93 82.2103C233.82 83.5563 234.335 85.1153 234.422 86.7267C234.542 87.8461 234.386 88.978 233.968 90.0232C233.808 90.3704 233.626 90.7071 233.423 91.0313C233.227 91.3554 233.052 91.6922 232.899 92.0394C232.613 92.7656 232.57 93.5653 232.778 94.3178C232.778 94.479 232.879 94.6403 232.93 94.8016C233.297 95.5369 233.319 96.3973 232.99 97.1505C232.599 97.747 231.929 98.101 231.216 98.0881V98.0881Z" fill="#231F20"/>
<path fill-rule="evenodd" clip-rule="evenodd" d="M194.829 102.879L191.975 117.993H233.933L236.787 102.929C233.328 98.7876 227.52 97.3568 222.407 96.8832C220.391 96.7018 218.576 96.6514 216.993 96.6514H216.619C215.137 96.6514 213.423 96.6514 211.578 96.863H211.487C206.173 97.2963 199.85 98.7473 194.829 102.879V102.879Z" fill="#57BE85"/>
<path fill-rule="evenodd" clip-rule="evenodd" d="M210.82 99.7477L212.1 113.863L212.483 117.977H213.43L215.364 113.853L221.962 99.8183C219.464 98.9411 213.651 98.9411 210.82 99.7477H210.82Z" fill="#231F20"/>
<path fill-rule="evenodd" clip-rule="evenodd" d="M221.982 99.7696C220.588 101.726 218.338 102.889 215.938 102.895C213.739 103.046 211.686 101.788 210.82 99.7596L213.681 87.4695H223.755L221.982 99.7696Z" fill="white"/>
<path fill-rule="evenodd" clip-rule="evenodd" d="M211.361 99.7212C212.199 101.459 214.013 102.51 215.938 102.373H215.938C218.122 102.365 220.176 101.331 221.483 99.5801L223.156 88.0069H214.083L211.361 99.7212ZM215.946 103.411C213.525 103.552 211.277 102.156 210.331 99.9229C210.301 99.8312 210.301 99.7323 210.331 99.6406L213.194 87.3618C213.25 87.1276 213.458 86.9613 213.698 86.9585H223.779C223.931 86.9568 224.075 87.0234 224.172 87.14C224.273 87.2527 224.317 87.4044 224.293 87.5533L222.509 99.8422C222.501 99.9138 222.477 99.9827 222.439 100.044C220.952 102.156 218.53 103.412 215.946 103.411V103.411Z" fill="#231F20"/>
<path fill-rule="evenodd" clip-rule="evenodd" d="M222.773 92.748C221.786 93.9019 220.571 94.8391 219.204 95.5008C216.997 96.6401 213.761 97.9106 211.412 97.5174L212.793 92.3245C214.568 92.5373 216.361 92.5373 218.136 92.3245C219.768 92.2575 221.382 91.9483 222.924 91.407C223.196 91.3465 223.176 92.2539 222.773 92.748H222.773Z" fill="#231F20"/>
<path fill-rule="evenodd" clip-rule="evenodd" d="M212.044 97.09C214.473 97.1807 217.649 95.729 218.969 95.0738C220.278 94.456 221.44 93.5658 222.377 92.4628C222.439 92.3684 222.49 92.2668 222.528 92.1603C221.107 92.5795 219.642 92.8298 218.163 92.9063C216.488 93.0908 214.798 93.0908 213.122 92.9064L212.044 97.09ZM212.315 98.0982C211.977 98.0983 211.64 98.0713 211.307 98.0176C211.166 97.9965 211.041 97.9157 210.964 97.7958C210.884 97.6773 210.862 97.5292 210.903 97.3925L212.285 92.2008C212.349 91.9553 212.588 91.7985 212.839 91.8378C214.573 92.0533 216.327 92.0533 218.061 91.8378C219.648 91.7764 221.218 91.4808 222.718 90.9608C222.972 90.8576 223.263 90.9408 223.424 91.1624C223.684 91.7882 223.575 92.5063 223.142 93.0274C222.115 94.2403 220.844 95.2227 219.412 95.9106C217.779 96.7877 214.825 98.0982 212.315 98.0982L212.315 98.0982Z" fill="#231F20"/>
<path fill-rule="evenodd" clip-rule="evenodd" d="M227.139 118.509H226.978C226.846 118.468 226.736 118.375 226.674 118.251C226.611 118.128 226.601 117.985 226.645 117.854L230.675 105.193C230.764 104.915 231.062 104.761 231.34 104.85C231.618 104.939 231.772 105.237 231.683 105.516L227.653 118.176C227.573 118.388 227.364 118.523 227.139 118.509L227.139 118.509Z" fill="#231F20"/>
<path fill-rule="evenodd" clip-rule="evenodd" d="M198.77 118.456C198.484 118.44 198.264 118.198 198.275 117.912L199.043 105.247C199.119 105.025 199.335 104.881 199.57 104.895C199.806 104.909 200.003 105.078 200.052 105.308L199.285 117.973C199.269 118.244 199.043 118.457 198.77 118.456L198.77 118.456Z" fill="#231F20"/>
<path fill-rule="evenodd" clip-rule="evenodd" d="M212.902 84.6484C213.114 81.7639 209.786 81.0478 209.322 84.4467C209.112 85.52 209.22 86.6313 209.634 87.6438C209.805 88.0491 210.14 88.3623 210.556 88.5048C210.972 88.6474 211.43 88.6056 211.813 88.3901" fill="white"/>
<path fill-rule="evenodd" clip-rule="evenodd" d="M211.071 89.1187C210.883 89.1224 210.695 89.0951 210.516 89.038C209.928 88.8564 209.445 88.4349 209.185 87.8774C208.719 86.7724 208.585 85.5553 208.801 84.3756C209.084 82.3573 210.304 81.5601 211.393 81.6711C212.783 81.955 213.683 83.3064 213.411 84.6986C213.33 84.921 213.111 85.0622 212.876 85.0433C212.64 85.0245 212.446 84.8502 212.402 84.6178C212.483 83.4573 211.908 82.7812 211.293 82.7206C210.677 82.6601 210.042 83.094 209.85 84.527C209.654 85.494 209.745 86.4975 210.113 87.4132C210.253 87.7111 210.508 87.9402 210.819 88.049C211.074 88.1255 211.349 88.0887 211.575 87.9481C211.829 87.8108 212.146 87.9002 212.291 88.1499C212.426 88.4037 212.331 88.7186 212.079 88.8563C211.772 89.0307 211.424 89.1212 211.071 89.1187H211.071Z" fill="#231F20"/>
<path fill-rule="evenodd" clip-rule="evenodd" d="M225.951 84.67C226.827 81.7853 230.42 81.0793 229.605 84.4784C229.361 85.6477 228.839 86.7409 228.085 87.6657C227.33 88.4928 226.303 88.8862 225.619 88.4121" fill="white"/>
<path fill-rule="evenodd" clip-rule="evenodd" d="M226.341 89.1349C225.982 89.1451 225.628 89.0391 225.334 88.8327C225.1 88.6685 225.044 88.3461 225.208 88.1123C225.372 87.8787 225.694 87.8223 225.928 87.9864C226.341 88.2685 227.107 87.9864 227.711 87.3115C228.408 86.4538 228.888 85.4415 229.112 84.3597C229.192 84.0171 229.404 82.919 228.799 82.7478C228.195 82.5765 226.915 83.3119 226.452 84.8231C226.366 85.1013 226.07 85.2569 225.792 85.1707C225.514 85.0844 225.358 84.789 225.444 84.5108C226.069 82.4959 227.842 81.4179 229.051 81.7504C229.434 81.8512 230.643 82.3649 230.059 84.6015C229.799 85.854 229.235 87.0234 228.416 88.0066C227.906 88.6487 227.157 89.0559 226.341 89.1349L226.341 89.1349Z" fill="#231F20"/>
<path fill-rule="evenodd" clip-rule="evenodd" d="M213.002 78.3207L211.419 86.6792C210.664 90.7123 213.203 93.9387 217.093 93.9488H217.91C222.042 93.7379 225.508 90.7557 226.335 86.6994C226.718 84.6829 228.108 81.5371 226.637 80.0247C224.289 77.6049 222.011 75.9917 220.711 72.7148C217.728 73.3399 213.002 74.1667 213.002 78.3208L213.002 78.3207Z" fill="white"/>
<path fill-rule="evenodd" clip-rule="evenodd" d="M220.402 73.2885C217.469 73.9035 213.527 74.7604 213.527 78.3291C213.532 78.3625 213.532 78.3965 213.527 78.4299L211.944 86.7771C211.554 88.467 211.951 90.2428 213.023 91.606C214.035 92.804 215.538 93.4757 217.106 93.4306L217.932 93.4306C221.816 93.2264 225.068 90.4181 225.836 86.6057C225.927 86.1419 226.068 85.5976 226.219 85.0532C226.683 83.3192 227.227 81.3534 226.28 80.3957C225.755 79.8513 225.272 79.3876 224.737 78.8835C222.91 77.3567 221.432 75.4557 220.402 73.3087L220.402 73.2885ZM217.92 94.459H217.094C215.219 94.5011 213.428 93.6887 212.224 92.2513C210.951 90.6511 210.473 88.5599 210.924 86.5655L212.497 78.2687C212.497 73.8734 217.194 72.9056 220.289 72.2705L220.622 72.1999C220.867 72.1477 221.114 72.2797 221.207 72.5124C222.16 74.6862 223.614 76.6034 225.451 78.1074C225.965 78.6014 226.459 79.1155 227.023 79.6499C228.374 81.031 227.729 83.4 227.215 85.3054C227.074 85.8296 226.943 86.3135 226.862 86.7772C225.987 91.0805 222.306 94.2429 217.92 94.459L217.92 94.459Z" fill="#231F20"/>
<path fill-rule="evenodd" clip-rule="evenodd" d="M218.645 87.881C218.272 87.8797 217.898 87.8562 217.527 87.8105C217.325 87.8149 217.14 87.7003 217.053 87.5179C216.966 87.3355 216.994 87.1191 217.125 86.965C217.255 86.8108 217.464 86.7476 217.658 86.8035C218.264 86.8653 218.875 86.8653 219.481 86.8034C219.67 85.1914 219.575 83.5588 219.199 81.9798C219.15 81.6964 219.339 81.4266 219.622 81.3755C219.904 81.3323 220.171 81.5186 220.227 81.7985C220.418 82.876 221.012 86.4812 220.287 87.4681C220.152 87.6643 219.939 87.7928 219.703 87.8206C219.352 87.8641 218.999 87.8843 218.645 87.881V87.881Z" fill="#231F20"/>
<path fill-rule="evenodd" clip-rule="evenodd" d="M190.863 76.6005H147.792C147.574 76.6298 147.359 76.5299 147.24 76.3445C147.122 76.159 147.122 75.9217 147.24 75.7363C147.359 75.5509 147.574 75.451 147.792 75.4803L190.863 75.5308C191.143 75.5685 191.352 75.8078 191.352 76.0908C191.352 76.3738 191.143 76.6132 190.863 76.6509V76.6005Z" fill="#D1D3D4"/>
<path fill-rule="evenodd" clip-rule="evenodd" d="M189.406 84.2894H146.345C146.127 84.3187 145.912 84.2188 145.794 84.0333C145.676 83.8479 145.676 83.6106 145.794 83.4251C145.912 83.2397 146.127 83.1398 146.345 83.1691V83.1692L189.416 83.2196C189.697 83.2573 189.906 83.4967 189.906 83.7797C189.906 84.0627 189.697 84.3021 189.416 84.3399L189.406 84.2894Z" fill="#D1D3D4"/>
<path fill-rule="evenodd" clip-rule="evenodd" d="M187.949 91.9696L144.885 91.9192C144.577 91.9137 144.331 91.6623 144.331 91.3541C144.331 91.0475 144.579 90.799 144.885 90.799L187.949 90.8495C188.167 90.8201 188.382 90.92 188.5 91.1055C188.618 91.2909 188.618 91.5282 188.5 91.7136C188.382 91.8991 188.167 91.999 187.949 91.9697V91.9696Z" fill="#D1D3D4"/>
<path fill-rule="evenodd" clip-rule="evenodd" d="M186.498 99.6535L143.437 99.5927C143.289 99.5955 143.146 99.5376 143.042 99.4325C142.937 99.3273 142.88 99.1839 142.882 99.0352C142.88 98.8856 142.937 98.7412 143.041 98.6345C143.145 98.5277 143.288 98.4676 143.437 98.4676V98.4677L186.498 98.5183C186.81 98.5183 187.063 98.7724 187.063 99.0859C187.057 99.3971 186.808 99.6481 186.498 99.6535V99.6535Z" fill="#D1D3D4"/>
<path fill-rule="evenodd" clip-rule="evenodd" d="M185.003 107.374H154.642C154.362 107.336 154.153 107.096 154.153 106.811C154.153 106.527 154.362 106.286 154.642 106.248H185.003C185.283 106.286 185.492 106.527 185.492 106.811C185.492 107.096 185.283 107.336 185.003 107.374Z" fill="#D1D3D4"/>
<path fill-rule="evenodd" clip-rule="evenodd" d="M135.203 147.395L228.121 147.506L232.154 126.073L139.226 125.962L135.203 147.395ZM228.584 148.625L134.528 148.514C134.36 148.517 134.2 148.443 134.094 148.312C133.986 148.184 133.941 148.013 133.973 147.849L138.247 125.297C138.3 125.037 138.526 124.848 138.792 124.843L232.849 124.954C233.016 124.953 233.176 125.027 233.282 125.156C233.387 125.286 233.431 125.455 233.403 125.62L229.129 148.171C229.077 148.432 228.85 148.621 228.584 148.625L228.584 148.625Z" fill="#D1D3D4"/>
<path fill-rule="evenodd" clip-rule="evenodd" d="M231.168 133.127L137.413 133.016C137.195 133.045 136.98 132.946 136.862 132.76C136.744 132.575 136.744 132.338 136.862 132.152C136.98 131.967 137.195 131.867 137.413 131.897V131.897L231.168 132.008C231.448 132.045 231.657 132.284 231.657 132.567C231.657 132.85 231.448 133.089 231.168 133.127V133.127Z" fill="#D1D3D4"/>
<path fill-rule="evenodd" clip-rule="evenodd" d="M203.155 148.597H203.054C202.752 148.536 202.555 148.244 202.61 147.941L206.875 125.39C206.936 125.088 207.227 124.891 207.53 124.946C207.833 125.007 208.033 125.297 207.984 125.601L203.709 148.153C203.652 148.413 203.421 148.598 203.155 148.597V148.597Z" fill="#D1D3D4"/>
<path fill-rule="evenodd" clip-rule="evenodd" d="M155.696 148.537H155.595C155.289 148.48 155.086 148.187 155.141 147.881L159.423 125.316C159.436 125.097 159.575 124.904 159.779 124.823C159.984 124.742 160.217 124.787 160.377 124.938C160.537 125.089 160.594 125.319 160.524 125.528L156.252 148.083C156.199 148.347 155.966 148.537 155.696 148.537Z" fill="#D1D3D4"/>
<path fill-rule="evenodd" clip-rule="evenodd" d="M76.6142 114.758L181.269 114.879C184.335 114.731 186.907 112.516 187.509 109.506L206.976 6.73869C207.541 3.71434 205.655 1.34527 202.772 1.34527L98.1177 1.2243C95.0638 1.36835 92.4956 3.56314 91.8774 6.55723L72.4103 109.385C71.8457 112.339 73.7309 114.758 76.6142 114.758L76.6142 114.758Z" fill="white"/>
<path fill-rule="evenodd" clip-rule="evenodd" d="M76.6162 114.309L181.268 114.43C184.122 114.282 186.502 112.198 187.025 109.389L206.481 6.64211C206.761 5.42504 206.476 4.14663 205.705 3.1641C204.978 2.30329 203.898 1.82085 202.771 1.85357L98.1193 1.73259C95.2943 1.8842 92.9302 3.92893 92.373 6.70259L72.9064 109.47C72.6308 110.687 72.9157 111.963 73.6826 112.948C74.4108 113.807 75.4901 114.289 76.6162 114.258V114.309ZM181.269 115.438L76.6164 115.317C75.1901 115.35 73.8257 114.734 72.9066 113.643C71.9335 112.432 71.5627 110.845 71.8984 109.329L91.3853 6.56152C92.0412 3.31882 94.815 0.935368 98.1195 0.774944H98.1194L202.772 0.895919C204.192 0.851362 205.555 1.45175 206.482 2.52907C207.453 3.74064 207.824 5.3271 207.49 6.84378L188.033 109.601C187.395 112.874 184.6 115.285 181.269 115.438H181.269Z" fill="#231F20"/>
<path fill-rule="evenodd" clip-rule="evenodd" d="M205.164 16.8892L90.0743 16.7593C89.7959 16.7593 89.5703 16.5355 89.5703 16.2594C89.5703 15.9834 89.7959 15.7596 90.0743 15.7596L205.164 15.8896C205.44 15.8949 205.663 16.1156 205.668 16.3894C205.668 16.6655 205.443 16.8892 205.164 16.8892Z" fill="#231F20"/>
<path fill-rule="evenodd" clip-rule="evenodd" d="M193.682 10.885C192.719 9.97682 192.832 8.29187 193.936 7.12154C195.039 5.95121 196.714 5.73867 197.678 6.64683C198.641 7.55499 198.528 9.23993 197.424 10.4103C196.321 11.5806 194.646 11.7931 193.682 10.885Z" fill="#D1D3D4"/>
<path fill-rule="evenodd" clip-rule="evenodd" d="M184.516 10.8726C183.552 9.96441 183.666 8.27946 184.769 7.10913C185.872 5.9388 187.548 5.72626 188.511 6.63442C189.474 7.54257 189.361 9.22752 188.258 10.3979C187.154 11.5682 185.479 11.7807 184.516 10.8726Z" fill="#D1D3D4"/>
<path fill-rule="evenodd" clip-rule="evenodd" d="M175.351 10.8601C174.387 9.95195 174.501 8.267 175.604 7.09667C176.707 5.92634 178.383 5.71381 179.346 6.62196C180.309 7.53012 180.196 9.21507 179.093 10.3854C177.99 11.5557 176.314 11.7683 175.351 10.8601Z" fill="#D1D3D4"/>
<path fill-rule="evenodd" clip-rule="evenodd" d="M150.719 24.8256L140.83 77.0138L182.776 77.0541L192.655 24.876L150.719 24.8256Z" fill="white"/>
<path fill-rule="evenodd" clip-rule="evenodd" d="M150.731 23.8204C150.241 23.8115 149.816 24.156 149.723 24.6369L139.844 76.827C139.788 77.1203 139.866 77.423 140.055 77.6536C140.247 77.884 140.532 78.017 140.832 78.0165L182.779 78.0669C183.269 78.0759 183.694 77.7314 183.787 77.2504L193.667 25.0603C193.722 24.767 193.645 24.4643 193.455 24.2337C193.265 23.9995 192.98 23.8627 192.679 23.8607H150.741L150.731 23.8204ZM150.732 24.8286H192.669L182.79 77.0186L140.842 76.9682L150.732 24.8286" fill="#231F20"/>
<path fill-rule="evenodd" clip-rule="evenodd" d="M143.675 61.9366L140.822 77.0037L182.767 77.0541L185.629 62.0072C182.172 57.8549 176.365 56.4339 171.255 55.9602C169.239 55.7788 167.424 55.7284 165.842 55.7284H165.469C163.987 55.7284 162.273 55.7284 160.428 55.94H160.338C155.046 56.3936 148.715 57.8146 143.675 61.9366V61.9366Z" fill="#57BE85"/>
<path fill-rule="evenodd" clip-rule="evenodd" d="M159.663 58.8248L160.954 72.9343L161.327 77.0462H162.275L164.211 72.9242L170.817 58.8954C167.149 58.0583 163.341 58.0342 159.663 58.8248H159.663Z" fill="#231F20"/>
<path fill-rule="evenodd" clip-rule="evenodd" d="M170.833 58.8408C169.438 60.796 167.185 61.9567 164.784 61.9566C162.583 62.1111 160.526 60.8517 159.663 58.8206L162.536 46.5386H172.617L170.833 58.8408Z" fill="white"/>
<path fill-rule="evenodd" clip-rule="evenodd" d="M160.256 58.7817C161.091 60.5239 162.906 61.5791 164.833 61.4431V61.4431C167.02 61.4456 169.078 60.4091 170.377 58.6506L172.061 47.0775H162.988L160.256 58.7817ZM164.841 62.4814C162.423 62.6135 160.179 61.22 159.226 58.9934C159.201 58.901 159.201 58.8035 159.226 58.7111L162.089 46.4222C162.149 46.1864 162.36 46.0207 162.603 46.019H172.684C172.834 46.0174 172.977 46.0797 173.077 46.1903C173.176 46.3081 173.22 46.4619 173.198 46.6137L171.414 58.8926C171.406 58.9642 171.382 59.0331 171.344 59.0942C169.863 61.2211 167.433 62.4868 164.841 62.4814L164.841 62.4814Z" fill="#231F20"/>
<path fill-rule="evenodd" clip-rule="evenodd" d="M171.616 51.8105C170.631 52.9641 169.415 53.8982 168.047 54.5528C165.839 55.692 162.602 56.9724 160.253 56.5692L161.634 51.3669C163.409 51.5848 165.203 51.5848 166.978 51.3669C168.611 51.2999 170.225 50.9907 171.767 50.4494C172.04 50.4091 172.03 51.3064 171.616 51.8105Z" fill="#231F20"/>
<path fill-rule="evenodd" clip-rule="evenodd" d="M160.893 56.1506C163.323 56.2615 166.508 54.7897 167.829 54.1344C169.133 53.5133 170.29 52.6235 171.226 51.5234L171.226 51.5234C171.296 51.4374 171.348 51.3379 171.377 51.231C169.955 51.6422 168.491 51.8891 167.012 51.967C165.337 52.1458 163.647 52.1458 161.972 51.967L160.893 56.1506ZM161.164 57.1587C160.827 57.1617 160.49 57.1381 160.156 57.0881C160.017 57.0625 159.894 56.9827 159.813 56.8663C159.739 56.7456 159.718 56.6002 159.753 56.4631L161.134 51.2713C161.198 51.0204 161.442 50.8591 161.698 50.8983C163.433 51.1097 165.186 51.1097 166.92 50.8983C168.504 50.8309 170.069 50.5355 171.568 50.0212C171.819 49.912 172.112 49.9916 172.273 50.2128C172.532 50.8421 172.424 51.5627 171.991 52.0879C170.967 53.3029 169.695 54.2858 168.261 54.9711C166.079 56.1982 163.659 56.9441 161.164 57.1587H161.164Z" fill="#231F20"/>
<path fill-rule="evenodd" clip-rule="evenodd" d="M175.982 77.5692H175.83C175.697 77.5298 175.584 77.4378 175.52 77.3142C175.455 77.1907 175.444 77.0462 175.487 76.9138L179.521 64.2502C179.563 64.1182 179.656 64.0086 179.779 63.946C179.902 63.8834 180.046 63.8731 180.177 63.9174C180.308 63.9567 180.418 64.0477 180.48 64.1694C180.543 64.2911 180.554 64.4331 180.51 64.5627L176.476 77.2264C176.402 77.4351 176.203 77.5732 175.982 77.5692V77.5692Z" fill="#231F20"/>
<path fill-rule="evenodd" clip-rule="evenodd" d="M147.614 77.5453C147.474 77.5375 147.343 77.4746 147.25 77.3705C147.157 77.2664 147.109 77.1297 147.118 76.9906L147.887 64.3245C147.84 64.1077 147.935 63.885 148.124 63.7683C148.314 63.6516 148.556 63.6661 148.73 63.8045C148.904 63.9429 148.972 64.1754 148.899 64.385L148.13 77.0511C148.119 77.3272 147.891 77.5455 147.614 77.5453H147.614Z" fill="#231F20"/>
<path fill-rule="evenodd" clip-rule="evenodd" d="M161.763 43.7167C161.975 40.833 158.648 40.1171 158.174 43.5151C157.964 44.5848 158.073 45.6927 158.487 46.7013C158.657 47.1089 158.994 47.4244 159.411 47.5687C159.829 47.7131 160.288 47.6726 160.674 47.4575" fill="white"/>
<path fill-rule="evenodd" clip-rule="evenodd" d="M159.915 48.1875C159.728 48.1865 159.541 48.1594 159.361 48.1069C158.779 47.916 158.299 47.4981 158.031 46.9482C157.563 45.8456 157.433 44.6288 157.658 43.4523C157.94 41.4373 159.149 40.6414 160.238 40.7522C161.626 41.0357 162.526 42.3849 162.254 43.7747C162.298 43.9915 162.201 44.2126 162.011 44.327C161.822 44.4414 161.581 44.4246 161.409 44.2849C161.238 44.1452 161.172 43.9128 161.246 43.7042C161.337 42.5456 160.752 41.8706 160.137 41.8C159.522 41.7295 158.897 42.1829 158.696 43.6135C158.501 44.5757 158.593 45.5737 158.958 46.4848C159.098 46.7847 159.352 47.0166 159.663 47.1296C159.922 47.1991 160.198 47.1628 160.429 47.0289C160.549 46.9607 160.692 46.9437 160.825 46.9816C160.957 47.0195 161.069 47.1091 161.135 47.2304C161.271 47.4811 161.181 47.7946 160.933 47.9356C160.621 48.104 160.271 48.1906 159.915 48.1875L159.915 48.1875Z" fill="#231F20"/>
<path fill-rule="evenodd" clip-rule="evenodd" d="M174.788 43.7301C175.677 40.8465 179.275 40.1407 178.456 43.5386C178.223 44.7093 177.702 45.804 176.941 46.7247C176.193 47.5615 175.152 47.9548 174.475 47.4809" fill="white"/>
<path fill-rule="evenodd" clip-rule="evenodd" d="M175.149 48.2038C174.789 48.2126 174.437 48.1067 174.142 47.9016C173.967 47.8048 173.862 47.617 173.872 47.4174C173.882 47.2179 174.005 47.0414 174.188 46.9623C174.372 46.8833 174.584 46.9155 174.736 47.0454C175.149 47.3375 175.914 47.0454 176.518 46.3806C177.222 45.52 177.712 44.5053 177.949 43.4192C178.029 43.0868 178.251 41.9788 177.636 41.8176C177.022 41.6564 175.753 42.3817 175.3 43.8322C175.216 44.1103 174.923 44.2682 174.645 44.1847C174.367 44.1013 174.209 43.8081 174.293 43.53C174.917 41.5154 176.69 40.4276 177.908 40.76C178.281 40.8708 179.49 41.3845 178.915 43.6106C178.644 44.864 178.078 46.0347 177.264 47.0252C176.754 47.6958 175.987 48.123 175.149 48.2038V48.2038Z" fill="#231F20"/>
<path fill-rule="evenodd" clip-rule="evenodd" d="M161.817 37.3882L160.233 45.7386C159.467 49.7726 162.008 53.0099 165.902 53.0099H166.729C170.861 52.7945 174.325 49.8125 175.151 45.7588L176.694 37.8118C176.694 37.8118 178.016 29.7438 170.501 30.5506C162.987 31.3574 161.817 37.3882 161.817 37.3882H161.817Z" fill="white"/>
<path fill-rule="evenodd" clip-rule="evenodd" d="M162.365 37.4904L160.812 45.8779C160.431 47.5678 160.827 49.3397 161.891 50.7067C162.909 51.8976 164.408 52.5676 165.974 52.5314H166.801C170.686 52.3308 173.94 49.5208 174.704 45.7065L176.206 37.7827C176.206 37.7827 176.761 34.2241 174.936 32.3087C173.76 31.243 172.145 30.8045 170.591 31.1292C163.544 31.8651 162.415 37.2484 162.365 37.4904L162.365 37.4904ZM166.77 53.5295H165.943C164.068 53.5727 162.274 52.7647 161.064 51.3318C159.805 49.7249 159.342 47.6343 159.804 45.646L161.387 37.2888C161.387 37.2283 162.677 30.9175 170.46 30.0505C172.341 29.6821 174.284 30.2411 175.682 31.5526C177.849 33.841 177.234 37.7525 177.214 37.9239L175.702 45.8779C174.816 50.1658 171.143 53.3122 166.77 53.5295L166.77 53.5295Z" fill="#231F20"/>
<path fill-rule="evenodd" clip-rule="evenodd" d="M167.492 46.9417C167.118 46.9406 166.744 46.9204 166.372 46.8813C166.089 46.8397 165.892 46.5802 165.928 46.2973C165.964 46.0156 166.22 45.8146 166.503 45.8443C167.11 45.9146 167.723 45.9146 168.33 45.8443C168.572 45.361 168.441 43.1761 168.048 41.0215C167.999 40.7382 168.188 40.4685 168.472 40.4174C168.607 40.3909 168.747 40.4197 168.861 40.4973C168.975 40.5749 169.053 40.6948 169.077 40.8302C169.269 41.9176 169.865 45.5221 169.138 46.4987C169.003 46.6967 168.79 46.8285 168.552 46.8612C168.201 46.9117 167.847 46.9386 167.492 46.9417V46.9417Z" fill="#231F20"/>
<path fill-rule="evenodd" clip-rule="evenodd" d="M139.718 35.6803H96.65C96.3698 35.6423 96.1607 35.4017 96.1607 35.1173C96.1607 34.8328 96.3698 34.5922 96.65 34.5543V34.5543H139.718C139.998 34.5923 140.207 34.8328 140.207 35.1173C140.207 35.4017 139.998 35.6423 139.718 35.6803Z" fill="#D1D3D4"/>
<path fill-rule="evenodd" clip-rule="evenodd" d="M138.26 43.3569H95.1985C94.8867 43.3569 94.634 43.1031 94.634 42.79C94.634 42.4768 94.8868 42.223 95.1985 42.223V42.223L138.26 42.2838C138.566 42.2838 138.814 42.5331 138.814 42.8406C138.789 43.1299 138.549 43.3528 138.26 43.3569Z" fill="#D1D3D4"/>
<path fill-rule="evenodd" clip-rule="evenodd" d="M136.8 51.0307H93.7471C93.5293 51.0601 93.3143 50.9599 93.1961 50.7739C93.0778 50.5879 93.0778 50.3498 93.1961 50.1638C93.3143 49.9777 93.5293 49.8775 93.7471 49.9069H136.8C137.112 49.9069 137.365 50.1608 137.365 50.4739C137.365 50.6234 137.305 50.7666 137.199 50.8713C137.093 50.976 136.949 51.0334 136.8 51.0307L136.8 51.0307Z" fill="#D1D3D4"/>
<path fill-rule="evenodd" clip-rule="evenodd" d="M135.344 58.7089H92.2844C92.0042 58.6712 91.7951 58.4318 91.7951 58.1488C91.7951 57.8658 92.0042 57.6264 92.2844 57.5887L135.344 57.6392C135.562 57.6098 135.777 57.7097 135.895 57.8952C136.013 58.0806 136.013 58.3179 135.895 58.5034C135.777 58.6888 135.562 58.7887 135.344 58.7594V58.7089Z" fill="#D1D3D4"/>
<path fill-rule="evenodd" clip-rule="evenodd" d="M133.894 66.3913H103.53C103.249 66.3538 103.04 66.1158 103.04 65.8344C103.04 65.5531 103.249 65.3151 103.53 65.2776H133.894C134.2 65.2776 134.449 65.5247 134.449 65.8294C134.449 66.1359 134.202 66.3859 133.894 66.3913H133.894Z" fill="#D1D3D4"/>
<path fill-rule="evenodd" clip-rule="evenodd" d="M84.0546 106.466L176.972 106.576L181.005 85.1338L88.087 85.0229L84.0546 106.466ZM177.437 107.695L83.3801 107.585C83.2141 107.581 83.0578 107.505 82.9516 107.378C82.8453 107.25 82.7993 107.083 82.8256 106.919L87.1 84.3676C87.1487 84.0995 87.3819 83.9044 87.6544 83.9039L181.711 84.0148C181.88 84.017 182.039 84.0946 182.145 84.2265C182.254 84.3502 182.299 84.5183 182.266 84.6801L177.951 107.232C177.906 107.486 177.694 107.676 177.437 107.695L177.437 107.695Z" fill="#D1D3D4"/>
<path fill-rule="evenodd" clip-rule="evenodd" d="M180.02 92.2481L86.2544 92.1376C85.9426 92.1376 85.6898 91.8857 85.6898 91.575C85.6898 91.4266 85.7496 91.2846 85.8558 91.1807C85.962 91.0768 86.1056 91.0198 86.2544 91.0225H86.2544L180.02 91.133C180.3 91.1705 180.509 91.4088 180.509 91.6905C180.509 91.9722 180.3 92.2105 180.02 92.2481Z" fill="#D1D3D4"/>
<path fill-rule="evenodd" clip-rule="evenodd" d="M151.972 107.666H151.871C151.57 107.605 151.372 107.313 151.428 107.01L155.704 84.4615C155.728 84.3154 155.811 84.1852 155.932 84.1C156.053 84.0148 156.203 83.9816 156.349 84.0079C156.655 84.0641 156.858 84.357 156.803 84.6631L152.527 107.212C152.474 107.476 152.242 107.666 151.972 107.666V107.666Z" fill="#D1D3D4"/>
<path fill-rule="evenodd" clip-rule="evenodd" d="M104.547 107.606H104.446C104.145 107.545 103.948 107.253 104.003 106.95L108.265 84.3935C108.354 84.1254 108.629 83.9652 108.906 84.0187C109.184 84.0721 109.379 84.3229 109.363 84.6053L105.101 107.162C105.044 107.422 104.813 107.607 104.547 107.606V107.606Z" fill="#D1D3D4"/>
<path fill-rule="evenodd" clip-rule="evenodd" d="M6.33431 213.392L4.62053 181.969L82.3659 167.735C82.4566 168.571 85.8035 194.581 88.223 213.372L6.33431 213.392Z" fill="#231F20"/>
<path fill-rule="evenodd" clip-rule="evenodd" d="M6.81147 212.892H87.6621C85.6459 197.307 82.4401 172.376 81.9361 168.354L5.14808 182.407L6.81147 212.892ZM88.2284 213.9H6.33933C6.07234 213.901 5.85128 213.693 5.83527 213.426L4.12149 182.024C4.11165 181.771 4.2869 181.549 4.53482 181.499L82.2805 167.265C82.4199 167.242 82.5625 167.278 82.6737 167.366C82.785 167.447 82.8579 167.571 82.8753 167.708C82.966 168.606 86.9985 199.968 88.7324 213.336C88.744 213.477 88.7007 213.618 88.6115 213.729C88.5132 213.837 88.3743 213.899 88.2284 213.9L88.2284 213.9Z" fill="#231F20"/>
<path fill-rule="evenodd" clip-rule="evenodd" d="M129.727 118.615L143.457 106.637C143.457 106.637 148.497 94.0947 150.514 91.7052C152.53 89.3157 167.65 81.9253 167.822 83.5788C167.993 85.2323 164.384 87.4706 163.376 88.2973C161.854 89.5375 160.271 90.6869 158.709 91.8665C161.874 93.1772 165.04 96.7967 166.441 99.9323C167.766 102.692 167.524 105.948 165.806 108.482C165.336 109.179 164.642 109.695 163.84 109.944C163.014 110.167 162.137 109.844 161.652 109.138L161.451 109.39C159.838 111.564 157.912 113.487 155.735 115.096C153.961 116.286 151.753 116.417 150.302 117.889C148.185 120.016 146.512 122.93 144.697 125.289L134.596 138.628L129.727 118.615Z" fill="white"/>
<path fill-rule="evenodd" clip-rule="evenodd" d="M130.337 118.795L134.843 137.445L144.319 124.934C144.914 124.158 145.489 123.321 146.074 122.474C147.228 120.705 148.533 119.039 149.975 117.494C150.889 116.675 151.973 116.069 153.15 115.72C153.966 115.452 154.747 115.09 155.479 114.641C157.613 113.054 159.501 111.162 161.084 109.026L161.286 108.774C161.4 108.652 161.562 108.586 161.73 108.593C161.895 108.611 162.042 108.709 162.123 108.855C162.49 109.367 163.14 109.593 163.746 109.419C164.436 109.196 165.03 108.744 165.429 108.139C167.052 105.748 167.271 102.671 166.004 100.074C164.744 97.2916 161.709 93.6221 158.544 92.3116C158.38 92.2443 158.264 92.0942 158.241 91.9184C158.214 91.7402 158.288 91.5615 158.433 91.4547L159.854 90.376C160.923 89.5695 162.022 88.7428 163.08 87.8859C163.262 87.7347 163.514 87.5532 163.816 87.3214C164.824 86.5754 167.123 84.8717 167.335 83.8132C165.318 83.8132 152.959 89.64 150.923 92.0192C148.886 94.3983 144.027 106.677 143.977 106.798C143.945 106.875 143.897 106.944 143.836 107L130.337 118.795ZM134.601 139.108H134.5C134.307 139.065 134.155 138.917 134.107 138.725L129.288 118.744C129.24 118.561 129.298 118.367 129.439 118.24L143.039 106.365C143.583 105.024 148.079 93.7431 150.096 91.4144C152.112 89.0856 165.641 82.2607 167.758 82.9261C168.048 83.01 168.259 83.2608 168.292 83.5612C168.433 85.033 166.427 86.6561 164.36 88.1884L163.655 88.7126C162.586 89.5897 161.477 90.4264 160.399 91.2329L159.653 91.7975C162.801 93.6447 165.315 96.4042 166.861 99.7112C168.275 102.64 168.013 106.101 166.175 108.784C165.639 109.578 164.845 110.162 163.927 110.437C163.124 110.649 162.269 110.461 161.628 109.933C160.028 112.059 158.126 113.941 155.983 115.518C155.184 116.01 154.332 116.41 153.443 116.708C152.405 117.009 151.445 117.532 150.63 118.24C149.232 119.745 147.967 121.367 146.85 123.089C146.255 123.946 145.66 124.793 145.065 125.589L134.984 138.947C134.885 139.052 134.746 139.111 134.601 139.108V139.108Z" fill="#231F20"/>
<path fill-rule="evenodd" clip-rule="evenodd" d="M1.45423 201.747C1.45423 201.747 2.46234 117.502 12.4931 100.645C22.5238 83.7881 50.0956 78.9791 63.7858 88.2343C77.476 97.4895 88.2224 194.639 88.2224 194.639C88.2224 194.639 45.1256 203.582 1.45422 201.747H1.45423Z" fill="#57BE85"/>
<path fill-rule="evenodd" clip-rule="evenodd" d="M63.7932 88.2161C63.7932 88.2161 76.657 90.1819 83.7442 101.09C90.8314 111.998 98.6847 127.039 98.6847 127.039L135.663 107.734L152.973 124.196C152.973 124.196 121.922 157.807 106.911 166.911C92.7468 175.5 81.5969 163.634 73.8645 155.993C70.5881 152.757 65.5171 144.803 65.5171 144.803L63.7932 88.2161Z" fill="#57BE85"/>
<path fill-rule="evenodd" clip-rule="evenodd" d="M65.857 44.6682H65.4941C64.3201 44.7646 63.2324 45.3229 62.4698 46.2207C61.7142 47.117 61.3509 48.2796 61.4616 49.4466C61.6219 51.4477 63.106 53.0917 65.0804 53.455C67.0546 53.8184 69.0269 52.8105 69.889 50.9976C70.7511 49.1847 70.2882 47.0187 68.7604 45.7166C67.9583 45.029 66.9336 44.6564 65.8772 44.6682L65.857 44.6682ZM65.8557 54.5578C64.565 54.5601 63.3163 54.0986 62.3374 53.2573C60.3647 51.5763 59.8539 48.736 61.1172 46.4729C62.3806 44.2099 65.0664 43.1541 67.5326 43.951C69.9988 44.748 71.5589 47.1759 71.2589 49.7503C70.959 52.3247 68.8827 54.3289 66.2993 54.5376L65.8557 54.5578Z" fill="#231F20"/>
<path fill-rule="evenodd" clip-rule="evenodd" d="M63.8179 53.1297C63.8179 53.1297 70.3178 62.1049 69.1268 64.0692C67.9358 66.0335 63.6867 64.9456 63.6867 64.9456" fill="white"/>
<path fill-rule="evenodd" clip-rule="evenodd" d="M66.129 65.7565C65.2666 65.7477 64.4079 65.6429 63.5687 65.4441C63.4389 65.4108 63.3277 65.3273 63.2596 65.2119C63.1915 65.0966 63.1722 64.9588 63.2058 64.8292C63.2365 64.6979 63.3196 64.5848 63.4357 64.5163C63.5518 64.4478 63.6909 64.4297 63.8207 64.4663C64.8993 64.7384 67.8528 65.1618 68.6894 63.8211C69.3244 62.8131 66.4415 57.6117 63.4074 53.4183C63.2494 53.1948 63.2986 52.886 63.5183 52.7228C63.6255 52.6409 63.7615 52.6064 63.8948 52.6274C64.0281 52.6483 64.147 52.7229 64.2239 52.8337C65.3428 54.376 70.8465 62.1881 69.5563 64.3352C68.8809 65.4642 67.4294 65.7565 66.129 65.7565Z" fill="#231F20"/>
<path fill-rule="evenodd" clip-rule="evenodd" d="M62.0208 40.9663C66.0533 43.9904 65.1863 50.7342 65.3375 55.0788C65.5526 61.2143 65.6198 67.3566 65.5392 73.5056C65.5392 77.3966 55.4581 77.9006 53.6032 76.8119L56.5065 86.3277L34.3281 84.8761L34.6608 72.1447C34.6608 72.1447 31.8482 54.6655 35.4471 46.571C37.5889 41.8221 42.2373 38.6974 47.4436 38.5067C47.4436 38.5067 58.0792 38.033 62.0209 40.9663H62.0208Z" fill="white"/>
<path fill-rule="evenodd" clip-rule="evenodd" d="M34.8171 84.4382L55.7959 85.7992L53.1042 76.9883C53.0462 76.7888 53.1138 76.574 53.2756 76.4439C53.4461 76.3286 53.6696 76.3286 53.8401 76.4439C55.0398 77.1596 60.7054 77.0992 63.5382 75.5063C64.5463 74.9619 65.0201 74.3067 65.0201 73.5607C65.1008 67.4515 65.0201 61.2617 64.8185 55.1626C64.8185 54.4166 64.8185 53.6 64.8185 52.7532C64.8185 48.7208 64.8185 43.7609 61.7236 41.412C57.9835 38.6195 47.61 39.0832 47.4689 39.0933C42.4472 39.2474 37.9556 42.2588 35.9058 46.8457C32.3976 54.6989 35.1295 71.9578 35.1598 72.1292L34.8171 84.4382ZM56.4907 86.8576L34.3122 85.4059C34.0418 85.3897 33.8325 85.1626 33.8384 84.8918L34.1711 72.1492C34.0602 71.5242 31.3786 54.5274 34.9977 46.392C38.6168 38.2565 47.3168 38.0448 47.4681 38.0448C47.8814 38.0448 58.3154 37.5508 62.3478 40.5651C65.8863 43.2164 65.8661 48.4888 65.846 52.6624C65.846 53.4992 65.846 54.3056 65.846 55.0315C66.0577 61.1507 66.1283 67.3607 66.0476 73.4799C65.9635 74.7241 65.1826 75.8135 64.0314 76.2926C61.4405 77.7443 56.6923 78.0568 54.3535 77.5729L56.9746 86.2024C57.0214 86.3625 56.9875 86.5354 56.8839 86.6661C56.7897 86.7876 56.6444 86.8584 56.4907 86.8576V86.8576Z" fill="#231F20"/>
<path fill-rule="evenodd" clip-rule="evenodd" d="M30.2389 88.2205L31.7613 81.3616L58.8937 81.7953L60.9102 87.8473C60.9102 87.8473 47.4096 95.6543 30.2388 88.2205L30.2389 88.2205Z" fill="white"/>
<path fill-rule="evenodd" clip-rule="evenodd" d="M30.8258 87.9264C40.2522 92.0317 50.9848 91.907 60.3131 87.5836L58.5288 82.3112L32.1666 81.8878L30.8258 87.9264ZM45.2905 91.9084C40.0393 91.8963 34.8469 90.8015 30.0378 88.6925C29.8174 88.5935 29.6957 88.3543 29.7454 88.1179L31.2677 81.2627C31.3162 81.0298 31.5238 80.8646 31.7616 80.8696L58.89 81.3131C59.1005 81.3114 59.2879 81.4459 59.3537 81.6458L61.3699 87.6945C61.4545 87.9203 61.3599 88.174 61.1481 88.2892C56.2256 90.7405 50.7891 91.9813 45.2905 91.9084V91.9084Z" fill="#231F20"/>
<path fill-rule="evenodd" clip-rule="evenodd" d="M1.77192 192.059C1.51043 192.059 1.29383 191.856 1.27782 191.595C-0.456578 170.421 5.52302 125.443 5.84569 124.123C5.91252 123.844 6.19243 123.673 6.47089 123.739C6.74934 123.806 6.92089 124.086 6.85406 124.365C6.53138 125.685 0.592126 170.401 2.30634 191.514C2.31747 191.648 2.27476 191.781 2.18771 191.883C2.10062 191.985 1.97638 192.048 1.8425 192.059L1.77192 192.059Z" fill="#231F20"/>
<path fill-rule="evenodd" clip-rule="evenodd" d="M44.1435 72.2794C42.833 80.2634 44.2342 86.9872 36.2903 92.3502C30.8566 96.0297 23.82 96.8059 17.3882 95.5256C13.3557 94.7191 9.17208 92.9348 6.99456 89.4167C4.3533 85.1525 5.3614 79.5275 7.52885 75.0012C9.69629 70.4749 12.9021 66.4729 14.7368 61.7954C19.223 50.384 15.5232 37.4404 26.562 29.3657C30.8902 26.2349 35.939 24.248 41.2402 23.5894C42.7624 23.3979 56.0191 25.1116 55.8275 25.3434C58.3377 22.4503 63.7009 24.1943 65.4046 27.6116C66.7876 30.7453 66.8241 34.3093 65.5054 37.4706C65.3139 37.8637 61.8258 42.2589 61.9064 40.9585C61.6847 44.4263 59.5676 46.2408 56.9969 48.64C54.4263 51.0393 51.3717 52.874 48.5691 55.001C43.1051 59.124 44.9903 64.1946 44.4258 70.0616C44.3552 70.8177 44.2645 71.5536 44.1435 72.2794V72.2794Z" fill="white"/>
<path fill-rule="evenodd" clip-rule="evenodd" d="M41.6036 24.0725H41.3012C36.0851 24.7194 31.1165 26.6715 26.8549 29.7482C19.8889 34.7887 18.9413 41.9362 17.9331 49.4568C17.5412 53.7367 16.6237 57.9521 15.2011 62.0078C14.0792 64.6501 12.73 67.19 11.1687 69.5989C10.0127 71.4295 8.94952 73.317 7.98306 75.2544C6.7834 77.7646 4.31352 84.1661 7.42859 89.1865C9.68676 92.846 14.1527 94.3985 17.5097 95.0638C24.3548 96.4248 31.1092 95.2957 36.0288 91.9689C42.0774 87.886 42.5311 82.9564 43.0855 77.2403C43.2368 75.6274 43.3981 73.964 43.6803 72.1998C43.8013 71.5042 43.892 70.7683 43.9626 70.0122C44.0773 68.614 44.1177 67.2108 44.0836 65.8083C44.0836 61.7053 44.013 57.8443 48.2975 54.5981C49.3056 53.8824 50.233 53.1969 51.2109 52.5013C53.1352 51.2228 54.9677 49.8113 56.6951 48.2773L57.0378 47.9547C59.3867 45.7671 61.2416 44.0432 61.4433 40.8979C61.4696 40.6243 61.7028 40.4175 61.9776 40.424C62.0733 40.4297 62.1648 40.465 62.2397 40.5249C63.2725 39.5212 64.2107 38.4244 65.0422 37.2485C66.2849 34.2265 66.2522 30.8303 64.9515 27.8327C63.9095 25.9594 62.0377 24.6941 59.911 24.4253C58.5375 24.1755 57.1314 24.6429 56.1809 25.6653C56.0145 25.8604 55.7282 25.8994 55.5156 25.756C50.9101 24.9574 46.2667 24.3955 41.6037 24.0725H41.6036ZM23.1352 96.6062C21.175 96.6039 19.2199 96.408 17.2982 96.0215C13.7597 95.3158 9.02158 93.6524 6.57187 89.6905C3.1947 84.2366 5.79563 77.452 7.07593 74.7805C8.02355 72.7643 9.18288 70.8892 10.3019 69.0444C11.8369 66.6882 13.1626 64.2021 14.2638 61.6146C15.6475 57.6516 16.5446 53.5352 16.9353 49.3559C17.9434 41.6136 18.9515 34.3047 26.2704 28.9618C30.6643 25.775 35.7938 23.7531 41.1804 23.0845C41.2812 23.0845 52.7737 23.9918 55.6367 24.7983C56.8122 23.6602 58.4598 23.1509 60.0724 23.4272C62.5205 23.7479 64.6695 25.2154 65.859 27.379C67.3007 30.6584 67.3371 34.385 65.9598 37.692C65.9598 37.692 63.6613 41.0087 62.3508 41.6035C61.9374 44.7387 59.9515 46.5836 57.6832 48.6603L57.3405 48.9829C55.5814 50.5492 53.7152 51.9909 51.7555 53.2976C50.7474 53.9831 49.8099 54.6585 48.8723 55.3743C44.981 58.3079 45.0112 61.7657 45.0516 65.7679C45.0852 67.2073 45.0448 68.6475 44.9306 70.0827C44.86 70.8589 44.7592 71.615 44.6382 72.3308C44.356 74.0345 44.2048 75.6878 44.0535 77.2806C43.489 83.2486 43.0454 88.3699 36.5733 92.7451C32.5761 95.3365 27.8984 96.6806 23.1352 96.6062L23.1352 96.6062Z" fill="#231F20"/>
<path fill-rule="evenodd" clip-rule="evenodd" d="M65.1881 68.9524C65.1881 68.9524 60.552 72.0839 57.8107 67.2655L65.1881 68.9524Z" fill="white"/>
<path fill-rule="evenodd" clip-rule="evenodd" d="M61.9352 70.4596C61.5587 70.4637 61.183 70.4231 60.8161 70.3386C59.3217 69.9335 58.0712 68.91 57.3782 67.5251C57.239 67.2829 57.3225 66.9736 57.5647 66.8344C57.807 66.6951 58.1161 66.7787 58.2553 67.0209C58.8074 68.1595 59.8202 69.0073 61.0379 69.3504C62.3834 69.5571 63.7583 69.2706 64.9093 68.5436C65.0183 68.467 65.1538 68.4376 65.2847 68.4623C65.4157 68.487 65.5312 68.5636 65.6049 68.6747C65.682 68.7854 65.7116 68.9224 65.687 69.0551C65.6623 69.1877 65.5856 69.305 65.4738 69.3806C64.4112 70.0486 63.1897 70.4211 61.9352 70.4596V70.4596Z" fill="#231F20"/>
<path fill-rule="evenodd" clip-rule="evenodd" d="M38.8285 58.3987H38.7277C38.4548 58.343 38.2788 58.0767 38.3345 57.8039C38.9595 54.6989 39.5543 54.5981 39.8165 54.5678C40.3205 54.4771 60.2307 50.3842 70.695 48.2268C70.9733 48.1711 71.2441 48.3517 71.2998 48.6301C71.3555 48.9085 71.175 49.1793 70.8966 49.2349C69.6868 49.4769 42.0948 55.1727 40.0785 55.5558C39.7153 56.3409 39.4609 57.1718 39.3224 58.0257C39.2595 58.2463 39.0579 58.3985 38.8285 58.3987L38.8285 58.3987Z" fill="#231F20"/>
<path fill-rule="evenodd" clip-rule="evenodd" d="M52.2183 57.5551C51.9795 56.026 51.3239 54.5924 50.3235 53.4118C49.6764 52.4046 48.8852 51.4978 47.9753 50.7201C47.0467 49.9433 45.8182 49.625 44.6293 49.8532C43.6011 50.1619 42.7539 50.8956 42.3013 51.8694C41.8666 52.8174 41.6496 53.8508 41.6664 54.8937C41.6551 59.6003 44.1565 63.955 48.2273 66.3155L47.9048 66.0434" fill="white"/>
<path fill-rule="evenodd" clip-rule="evenodd" d="M48.2246 66.8586C48.1371 66.858 48.0509 66.8373 47.9726 66.7982C43.7622 64.3364 41.1695 59.83 41.1575 54.9528C41.1336 53.8184 41.3717 52.6938 41.8531 51.6664C42.3611 50.5577 43.3306 49.7283 44.5045 49.3981C45.8528 49.1318 47.2485 49.504 48.2851 50.4063C49.2364 51.2106 50.0592 52.1557 50.7248 53.2088C51.8007 54.4527 52.5 55.9773 52.7411 57.6042C52.7578 57.8826 52.5457 58.1218 52.2673 58.1385C51.9889 58.1552 51.7497 57.943 51.733 57.6647C51.4873 56.2335 50.8643 54.8937 49.9284 53.7834C49.3125 52.8184 48.5584 51.9489 47.6903 51.2027C46.8824 50.5168 45.8084 50.2317 44.7667 50.4264C43.8759 50.6864 43.1409 51.3185 42.7504 52.1604C42.3464 53.0598 42.1467 54.0376 42.1657 55.0234C42.173 59.2624 44.2847 63.2212 47.8012 65.5884C47.9565 65.5686 48.1123 65.6205 48.2246 65.7296L48.5775 66.0824C48.7582 66.2563 48.7799 66.5381 48.6279 66.7377C48.5169 66.8337 48.3701 66.8777 48.2246 66.8586Z" fill="#231F20"/>
<path fill-rule="evenodd" clip-rule="evenodd" d="M60.9538 48.519C60.8372 47.3087 61.1288 46.2903 61.605 46.2444C62.0812 46.1985 62.5618 47.1426 62.6783 48.353C62.7949 49.5634 62.5033 50.5818 62.0271 50.6276C61.5509 50.6735 61.0703 49.7294 60.9538 48.519Z" fill="#231F20"/>
<path fill-rule="evenodd" clip-rule="evenodd" d="M87.213 166.856C87.1432 166.87 87.0711 166.87 87.0013 166.856C63.0862 155.614 51.1437 113.931 51.0228 113.517C50.9515 113.248 51.108 112.971 51.3755 112.892C51.5039 112.856 51.6417 112.872 51.7575 112.939C51.8733 113.005 51.9573 113.116 51.9903 113.245C52.1112 113.659 63.9327 154.898 87.4347 165.939C87.6465 166.041 87.759 166.277 87.706 166.506C87.6529 166.735 87.4483 166.897 87.213 166.896V166.856Z" fill="#231F20"/>
<path fill-rule="evenodd" clip-rule="evenodd" d="M203.998 202.087H139.681L152 137.77H216.317L203.998 202.087Z" fill="white"/>
<path fill-rule="evenodd" clip-rule="evenodd" d="M140.287 201.581H203.586L215.683 138.271H152.414L140.287 201.581ZM204 202.589H139.642C139.491 202.587 139.348 202.521 139.248 202.408C139.157 202.291 139.12 202.14 139.148 201.994L151.467 137.667C151.511 137.43 151.72 137.259 151.961 137.263H216.278C216.43 137.262 216.574 137.328 216.672 137.445C216.765 137.561 216.801 137.712 216.772 137.858L204.494 202.135C204.473 202.392 204.257 202.59 204 202.589L204 202.589Z" fill="#231F20"/>
<path fill-rule="evenodd" clip-rule="evenodd" d="M204 150.98H160.715C160.407 150.974 160.16 150.724 160.16 150.418C160.16 150.113 160.408 149.866 160.715 149.866L204 149.866C204.148 149.863 204.292 149.92 204.398 150.024C204.504 150.128 204.564 150.27 204.564 150.418C204.564 150.728 204.311 150.98 204 150.98L204 150.98Z" fill="#D1D3D4"/>
<path fill-rule="evenodd" clip-rule="evenodd" d="M202.079 161.052H158.792C158.643 161.055 158.5 160.998 158.394 160.894C158.287 160.79 158.228 160.648 158.228 160.5C158.228 160.19 158.48 159.938 158.792 159.938L202.089 159.938C202.397 159.944 202.644 160.194 202.644 160.5C202.644 160.648 202.584 160.79 202.478 160.894C202.372 160.998 202.228 161.055 202.079 161.052Z" fill="#D1D3D4"/>
<path fill-rule="evenodd" clip-rule="evenodd" d="M200.134 171.137H156.847C156.567 171.099 156.358 170.859 156.358 170.575C156.358 170.291 156.567 170.051 156.847 170.013H200.134C200.352 169.984 200.567 170.084 200.685 170.27C200.804 170.456 200.804 170.694 200.685 170.88C200.567 171.066 200.352 171.166 200.134 171.137V171.137Z" fill="#D1D3D4"/>
<path fill-rule="evenodd" clip-rule="evenodd" d="M198.218 181.217H154.923C154.705 181.246 154.49 181.146 154.372 180.96C154.254 180.774 154.254 180.536 154.372 180.35C154.49 180.164 154.705 180.064 154.923 180.093H198.218C198.498 180.131 198.707 180.371 198.707 180.655C198.707 180.939 198.498 181.179 198.218 181.217V181.217Z" fill="#D1D3D4"/>
<path fill-rule="evenodd" clip-rule="evenodd" d="M183.427 191.304H152.987C152.706 191.266 152.497 191.026 152.497 190.741C152.497 190.457 152.706 190.216 152.987 190.178H183.427C183.707 190.216 183.917 190.457 183.917 190.741C183.917 191.026 183.707 191.266 183.427 191.304Z" fill="#D1D3D4"/>
</svg>
